<?xml version="1.0" encoding="UTF-8" standalone="no"?>
<svg width="1477px" height="500px" viewBox="0 0 1477 500" version="1.1" xmlns="http://www.w3.org/2000/svg" xmlns:xlink="http://www.w3.org/1999/xlink" xmlns:sketch="http://www.bohemiancoding.com/sketch/ns">
    <!-- Generator: Sketch 3.1.1 (8761) - http://www.bohemiancoding.com/sketch -->
    <title>App Store</title>
    <desc>Created with Sketch.</desc>
    <defs></defs>
    <g id="Page-1" stroke="none" stroke-width="1" fill="none" fill-rule="evenodd" sketch:type="MSPage">
        <g id="Artboard-1" sketch:type="MSArtboardGroup" transform="translate(-462.000000, -850.000000)">
            <g id="App-Store" sketch:type="MSLayerGroup" transform="translate(462.000000, 850.000000)">
                <rect id="background" fill="#000000" sketch:type="MSShapeGroup" x="0" y="0" width="1477" height="500" rx="60"></rect>
                <g id="icon" transform="translate(131.000000, 88.000000)" fill="#FFFFFF" sketch:type="MSShapeGroup">
                    <path d="M192.340766,150.55423 C192.018956,114.788858 221.625537,97.3888881 222.979361,96.5788129 C206.211916,72.132299 180.22293,68.7921262 171.090165,68.5258002 C149.262524,66.2287378 128.089602,81.5868745 116.970488,81.5868745 C105.629437,81.5868745 88.5068896,68.7477385 70.0527122,69.1250338 C46.3053043,69.4912322 24.0892712,83.2403156 11.9048535,104.590789 C-13.2407663,148.124005 5.5130278,212.097746 29.6044403,247.286078 C41.655695,264.530691 55.737686,283.761653 74.1696694,283.084741 C92.2021638,282.352344 98.937994,271.588332 120.699053,271.588332 C142.260368,271.588332 148.585612,283.084741 167.383794,282.640864 C186.736822,282.352344 198.92124,265.340766 210.550811,247.940796 C224.477446,228.210473 230.070293,208.735379 230.292231,207.736657 C229.848355,207.592397 192.718062,193.42163 192.340766,150.55423" id="Fill-2"></path>
                    <path d="M156.830624,45.3776258 C166.529331,33.2486927 173.165289,16.7475733 171.323201,0.00232156273 C157.285597,0.623749061 139.73027,9.71212622 129.620977,21.5747333 C120.67686,32.0280316 112.687077,49.1616754 114.751104,65.2744027 C130.519827,66.4506762 146.710233,57.3179113 156.830624,45.3776258" id="Fill-3"></path>
                </g>
                <g transform="translate(460.000000, 219.000000)" fill="#FFFFFF" sketch:type="MSShapeGroup">
                    <path d="M124.528963,149.610128 L99.3278588,149.610128 L85.5232908,106.232269 L37.5402104,106.232269 L24.3903606,149.610128 L-0.144928625,149.610128 L47.4053719,1.93232156 L76.7678212,1.93232156 L124.528963,149.610128 L124.528963,149.610128 Z M81.3619459,88.0333208 L68.8779113,49.4826221 C67.5573779,45.5321187 65.0716679,36.2550939 61.4318783,21.6515477 L60.9880015,21.6515477 C59.5232081,27.9324042 57.1817581,37.209429 53.9747483,49.4826221 L41.7015552,88.0333208 L81.3619459,88.0333208 L81.3619459,88.0333208 Z" id="Fill-4"></path>
                    <path d="M246.572885,95.0576709 C246.572885,113.167844 241.65695,127.48287 231.813982,137.991653 C223.003028,147.346356 212.050368,152.018159 198.989294,152.018159 C184.885109,152.018159 174.742524,146.991255 168.583734,136.904155 L168.583734,192.777145 L144.925101,192.777145 L144.925101,78.1237716 C144.925101,66.749429 144.625485,55.0865665 144.048445,43.1240872 L164.855169,43.1240872 L166.175702,60.0135988 L166.619579,60.0135988 C174.509489,47.285432 186.483065,40.9268971 202.551405,40.9268971 C215.113118,40.9268971 225.599707,45.8872201 233.988978,55.8189632 C242.367153,65.7729001 246.572885,78.8450714 246.572885,95.0576709 L246.572885,95.0576709 Z M222.470376,95.9232307 C222.470376,85.5587077 220.140023,77.0140796 215.457122,70.2893464 C210.341443,63.2871901 203.472449,59.7694666 194.86124,59.7694666 C189.02426,59.7694666 183.719932,61.7225244 178.981548,65.5842524 C174.232066,69.4570774 171.124929,74.5283696 169.671232,80.8203231 C168.938835,83.7388129 168.572637,86.1246506 168.572637,88.011127 L168.572637,105.788392 C168.572637,113.511848 170.947378,120.047934 175.69686,125.396649 C180.446341,130.723171 186.616228,133.397528 194.206521,133.397528 C203.117348,133.397528 210.052923,129.946386 215.013246,123.099587 C219.984666,116.230594 222.470376,107.175507 222.470376,95.9232307 L222.470376,95.9232307 Z" id="Fill-5"></path>
                    <path d="M369.049587,95.0576709 C369.049587,113.167844 364.133651,127.48287 354.290684,137.991653 C345.468633,147.346356 334.52707,152.018159 321.454899,152.018159 C307.361811,152.018159 297.219226,146.991255 291.049339,136.904155 L291.049339,192.777145 L267.390706,192.777145 L267.390706,78.1237716 C267.390706,66.749429 267.091089,55.0865665 266.51405,43.1240872 L287.320774,43.1240872 L288.641307,60.0135988 L289.085184,60.0135988 C296.963997,47.285432 308.937573,40.9268971 325.01701,40.9268971 C337.567626,40.9268971 348.065312,45.8872201 356.46568,55.8189632 C364.832757,65.7729001 369.049587,78.8450714 369.049587,95.0576709 L369.049587,95.0576709 Z M344.93598,95.9232307 C344.93598,85.5587077 342.59453,77.0140796 337.91163,70.2893464 C332.807047,63.2871901 325.949151,59.7694666 317.337941,59.7694666 C311.500962,59.7694666 306.196634,61.7225244 301.436056,65.5842524 C296.697671,69.4570774 293.590533,74.5283696 292.136837,80.8203231 C291.415537,83.7388129 291.027145,86.1246506 291.027145,88.011127 L291.027145,105.788392 C291.027145,113.511848 293.412983,120.047934 298.14027,125.396649 C302.889752,130.712074 309.059639,133.397528 316.672126,133.397528 C325.59405,133.397528 332.529624,129.946386 337.47885,123.099587 C342.45027,116.230594 344.93598,107.175507 344.93598,95.9232307 L344.93598,95.9232307 Z" id="Fill-6"></path>
                    <path d="M505.985575,108.196424 C505.985575,120.758137 501.602292,130.9784 492.857919,138.86831 C483.247986,147.479519 469.831811,151.796221 452.631585,151.796221 C436.740796,151.796221 424.001533,148.733471 414.3916,142.596875 L419.862382,122.877648 C430.238002,129.014245 441.634538,132.088092 454.040894,132.088092 C462.962817,132.088092 469.898392,130.068452 474.847618,126.062464 C479.819038,122.034282 482.315845,116.67447 482.315845,109.971931 C482.315845,103.968497 480.251818,98.9304959 476.168152,94.8357325 C472.073388,90.763163 465.304267,86.9458227 455.805304,83.4613899 C429.949482,73.8181668 417.010473,59.702885 417.010473,41.1599324 C417.010473,29.0420962 421.582404,19.12145 430.692975,11.3647032 C439.814643,3.61905334 451.910285,-0.2537716 466.957708,-0.2537716 C480.396078,-0.2537716 491.59287,2.08767844 500.481503,6.75948159 L494.544651,26.0459279 C486.177573,21.5183847 476.734095,19.2546131 466.169827,19.2546131 C457.824944,19.2546131 451.266664,21.3075432 446.594861,25.3912096 C442.655455,29.0420962 440.646912,33.4919609 440.646912,38.7740947 C440.646912,44.5999775 442.921781,49.4382344 447.460421,53.222284 C451.38873,56.7289106 458.55734,60.535154 468.921863,64.6188204 C481.638933,69.7455973 490.971443,75.71574 496.963779,82.5736364 C502.989406,89.4315327 505.985575,97.9872577 505.985575,108.196424" id="Fill-7"></path>
                    <path d="M584.407506,60.8791585 L558.329745,60.8791585 L558.329745,112.579707 C558.329745,125.729557 562.923869,132.287836 572.134313,132.287836 C576.362239,132.287836 579.868866,131.932735 582.643095,131.189241 L583.297814,149.155154 C578.637107,150.89737 572.500511,151.774027 564.910218,151.774027 C555.555515,151.774027 548.264838,148.911022 542.982705,143.218302 C537.722765,137.514485 535.092795,127.960038 535.092795,114.510571 L535.092795,60.8347708 L519.568204,60.8347708 L519.568204,43.0796995 L535.092795,43.0796995 L535.092795,23.5824117 L558.329745,16.5691585 L558.329745,43.0796995 L584.407506,43.0796995 L584.407506,60.8791585" id="Fill-8"></path>
                    <path d="M701.835109,95.4904508 C701.835109,111.858407 697.163306,125.296777 687.808603,135.80556 C678.032216,146.613959 665.026627,152.018159 648.814027,152.018159 C633.16737,152.018159 620.727724,146.835898 611.450699,136.471375 C602.173674,126.106852 597.535162,113.034681 597.535162,97.2659579 C597.535162,80.7648385 602.340128,67.2487904 611.883479,56.7400075 C621.449023,46.2312246 634.343644,40.9601878 650.556243,40.9601878 C666.191803,40.9601878 678.731322,46.1646431 688.241382,56.5180691 C697.318663,66.5829752 701.835109,79.5552742 701.835109,95.4904508 L701.835109,95.4904508 Z M677.310917,96.0341998 C677.310917,86.2800075 675.202502,77.9129301 670.974576,70.9107739 C666.014252,62.4549211 658.901127,58.2380917 649.712878,58.2380917 C640.247205,58.2380917 632.956529,62.4549211 628.0184,70.9107739 C623.768279,77.9129301 621.670962,86.4242675 621.670962,96.4780766 C621.670962,106.243366 623.768279,114.632637 628.0184,121.601503 C633.13408,130.068452 640.269399,134.296379 649.52423,134.296379 C658.557122,134.296379 665.648054,129.96858 670.785928,121.401758 C675.124823,114.233148 677.310917,105.810586 677.310917,96.0341998 L677.310917,96.0341998 Z" id="Fill-9"></path>
                    <path d="M778.770053,63.9308114 C776.428603,63.4980316 773.920699,63.2871901 771.312923,63.2871901 C762.990233,63.2871901 756.55402,66.4054245 752.026476,72.7084748 C748.08707,78.2569346 746.122915,85.2701878 746.122915,93.7371375 L746.122915,149.610128 L722.464282,149.610128 L722.464282,76.6589782 C722.464282,64.396882 722.231247,53.2000902 721.776273,43.1351841 L742.383253,43.1351841 L743.248813,63.5091285 L743.903531,63.5091285 C746.411435,56.5069722 750.339745,50.8586401 755.732847,46.6418107 C761.014981,42.8244703 766.696604,40.9268971 772.833201,40.9268971 C775.019294,40.9268971 776.994545,41.0933509 778.747859,41.3596769 L778.770053,63.9308114" id="Fill-10"></path>
                    <path d="M884.579181,91.3291059 C884.579181,95.5681292 884.301758,99.1413373 883.713621,102.059827 L812.74882,102.059827 C813.00405,112.579707 816.455192,120.636071 823.035665,126.18453 C829.016905,131.133757 836.762554,133.619467 846.250421,133.619467 C856.759204,133.619467 866.346942,131.954929 874.969249,128.581465 L878.67562,145.004906 C868.599617,149.388189 856.692622,151.585379 842.976829,151.585379 C826.464613,151.585379 813.503411,146.724929 804.071029,137.026221 C794.671938,127.316416 789.944651,114.255342 789.944651,97.9206762 C789.944651,81.8745304 794.316837,68.5027423 803.105597,57.8386026 C812.293847,46.453163 824.7113,40.7604433 840.335763,40.7604433 C855.682802,40.7604433 867.301277,46.453163 875.18009,57.8386026 C881.438753,66.8603982 884.579181,78.0460932 884.579181,91.3291059 L884.579181,91.3291059 Z M862.019144,85.1925094 C862.185597,78.1681593 860.632029,72.131435 857.425019,67.0046582 C853.330255,60.4130879 847.027205,57.1283997 838.582449,57.1283997 C830.836799,57.1283997 824.544846,60.3354095 819.750977,66.7716228 C815.81157,71.8873028 813.47012,78.0460932 812.74882,85.1703156 L862.019144,85.1925094 L862.019144,85.1925094 Z" id="Fill-11"></path>
                </g>
                <g id="Available-on-the" transform="translate(469.000000, 92.000000)" fill="#FFFFFF" sketch:type="MSShapeGroup">
                    <path d="M60.9543125,76.0776935 L48.5590533,76.0776935 L41.7788355,54.7605109 L18.1978813,54.7605109 L11.7283772,76.0776935 L-0.333974455,76.0776935 L23.0361382,3.4927423 L37.4621337,3.4927423 L60.9543125,76.0776935 L60.9543125,76.0776935 Z M39.7370023,45.8163937 L33.6004057,26.862855 C32.9567844,24.9208941 31.769414,20.4044478 29.9384222,13.19145 L29.7164838,13.19145 C28.9618933,16.3096844 27.8854921,20.8372276 26.2653418,26.862855 L20.2397145,45.8163937 L39.7370023,45.8163937 L39.7370023,45.8163937 Z" id="Fill-12"></path>
                    <path d="M119.390691,23.7446206 L99.5715928,76.0776935 L88.2638317,76.0776935 L69.0883546,23.7446206 L81.5834861,23.7446206 L90.5276033,51.4203381 C92.0367844,56.0477536 93.324027,60.4643276 94.2894591,64.6589632 L94.6112697,64.6589632 C95.4768295,60.8971074 96.7640721,56.4805334 98.3731255,51.4203381 L107.206273,23.7446206 L119.390691,23.7446206" id="Fill-13"></path>
                    <path d="M161.58118,76.0776935 L160.71562,70.0520661 L160.393809,70.0520661 C156.842795,74.90142 151.67163,77.2650639 145.102254,77.2650639 C135.736454,77.2650639 129.056108,70.6956875 129.056108,61.8625394 C129.056108,48.945725 140.2529,42.2653794 159.639219,42.2653794 L159.639219,41.2999474 C159.639219,34.4087603 155.977235,30.9576183 148.764237,30.9576183 C143.593073,30.9576183 139.06553,32.2559579 135.092832,34.8415402 L132.729189,27.1957626 C137.578542,24.1774005 143.60417,22.6682194 150.717295,22.6682194 C164.3887,22.6682194 171.290984,29.8812171 171.290984,44.3183095 L171.290984,63.5936589 C171.290984,68.8757926 171.512923,72.970556 172.045575,76.0887904 L161.58118,76.0776935 L161.58118,76.0776935 Z M159.961029,50.0110293 C147.033118,50.0110293 140.574711,53.1403606 140.574711,60.5641998 C140.574711,66.0571751 143.914884,68.7426296 148.542299,68.7426296 C154.468054,68.7426296 159.961029,64.2261833 159.961029,58.0895868 L159.961029,50.0110293 L159.961029,50.0110293 Z" id="Fill-14"></path>
                    <path d="M197.191195,15.122314 C193.31837,15.122314 190.300008,12.1039519 190.300008,8.12015778 C190.300008,4.13636364 193.418242,1.2289707 197.413133,1.2289707 C201.396927,1.2289707 204.626131,4.13636364 204.515162,8.12015778 C204.515162,12.3258903 201.507896,15.122314 197.191195,15.122314 L197.191195,15.122314 Z M191.598347,23.7446206 L203.227919,23.7446206 L203.227919,76.0776935 L191.598347,76.0776935 L191.598347,23.7446206 Z" id="Fill-15"></path>
                    <path d="M223.890383,-0.269113449 L235.519955,-0.269113449 L235.519955,76.0776935 L223.890383,76.0776935 L223.890383,-0.269113449 Z" id="Fill-16"></path>
                    <path d="M284.945635,76.0776935 L284.068978,70.0520661 L283.758264,70.0520661 C280.20725,74.90142 275.036086,77.2650639 268.466709,77.2650639 C259.100909,77.2650639 252.420563,70.6956875 252.420563,61.8625394 C252.420563,48.945725 263.617355,42.2653794 283.003674,42.2653794 L283.003674,41.2999474 C283.003674,34.4087603 279.34169,30.9576183 272.128693,30.9576183 C266.957528,30.9576183 262.429985,32.2559579 258.457288,34.8415402 L256.082547,27.1846657 C260.931901,24.1663035 266.957528,22.6571225 274.070654,22.6571225 C287.742059,22.6571225 294.65544,29.8701202 294.65544,44.3072126 L294.65544,63.582562 C294.65544,68.8646957 294.877378,72.9594591 295.387836,76.0776935 L284.945635,76.0776935 L284.945635,76.0776935 Z M283.325485,50.0110293 C270.397573,50.0110293 263.939166,53.1403606 263.939166,60.5641998 C263.939166,66.0571751 267.279339,68.7426296 271.906754,68.7426296 C277.832509,68.7426296 283.325485,64.2261833 283.325485,58.0895868 L283.325485,50.0110293 L283.325485,50.0110293 Z" id="Fill-17"></path>
                    <path d="M341.761863,77.2650639 C334.338024,77.2650639 328.856146,74.1357325 325.294035,67.999136 L325.072096,67.999136 L324.406281,76.0776935 L314.507829,76.0776935 C314.818542,71.8830579 314.929512,67.1335763 314.929512,61.9735086 L314.929512,-0.269113449 L326.581277,-0.269113449 L326.581277,31.4014951 L326.792119,31.4014951 C330.243261,25.5867092 335.836108,22.6793163 343.481886,22.6793163 C356.087986,22.6793163 364.921134,33.4544252 364.921134,49.1676634 C364.921134,65.4135537 355.111458,77.2650639 341.761863,77.2650639 L341.761863,77.2650639 Z M339.398219,31.8120811 C332.706777,31.8120811 326.581277,37.626867 326.581277,45.7054245 L326.581277,54.8603832 C326.581277,62.0733809 332.085349,67.999136 339.187378,67.999136 C347.89846,67.999136 353.091818,60.8971074 353.091818,49.5893464 C353.080721,39.0361758 347.687618,31.8120811 339.398219,31.8120811 L339.398219,31.8120811 Z" id="Fill-18"></path>
                    <path d="M382.132457,-0.269113449 L393.750932,-0.269113449 L393.750932,76.0776935 L382.132457,76.0776935 L382.132457,-0.269113449 Z" id="Fill-19"></path>
                    <path d="M457.047761,52.7075808 L422.136852,52.7075808 C422.369887,62.61713 428.91707,68.2099775 438.604681,68.2099775 C443.786942,68.2099775 448.525327,67.3444177 452.719962,65.7353644 L454.52876,73.8139219 C449.579534,75.9667243 443.764748,77.0431255 436.98453,77.0431255 C420.605477,77.0431255 410.917866,66.7007964 410.917866,50.6657476 C410.917866,34.6196018 420.838512,22.5572502 435.686191,22.5572502 C449.024688,22.5572502 457.44725,32.4667994 457.44725,47.436544 C457.480541,49.4783772 457.380669,51.3093689 457.047761,52.7075808 L457.047761,52.7075808 Z M446.394718,44.4181818 C446.394718,36.3396243 442.288858,30.6358077 434.853922,30.6358077 C428.173576,30.6358077 422.913636,36.4505935 422.136852,44.4181818 L446.394718,44.4181818 L446.394718,44.4181818 Z" id="Fill-20"></path>
                    <path d="M527.535394,77.2650639 C512.243839,77.2650639 502.33429,65.8463336 502.33429,50.3439369 C502.33429,34.1868219 512.454681,22.6682194 528.412051,22.6682194 C543.470571,22.6682194 553.613156,33.5432006 553.613156,49.4894741 C553.613156,65.8463336 543.159857,77.2650639 527.535394,77.2650639 L527.535394,77.2650639 Z M527.979271,31.1684598 C519.578903,31.1684598 514.196897,39.0250789 514.196897,50.0110293 C514.196897,60.7861382 519.689872,68.6427573 527.868302,68.6427573 C536.046732,68.6427573 541.539707,60.2423892 541.539707,49.7890909 C541.539707,39.1360481 536.157701,31.1684598 527.979271,31.1684598 L527.979271,31.1684598 Z" id="Fill-21"></path>
                    <path d="M616.133201,76.0776935 L604.525823,76.0776935 L604.525823,46.0272352 C604.525823,36.7724042 600.963711,32.1338918 593.961555,32.1338918 C587.070368,32.1338918 582.320887,38.0596469 582.320887,44.950834 L582.320887,76.0776935 L570.713509,76.0776935 L570.713509,38.7032682 C570.713509,34.0758527 570.580346,29.1155297 570.269632,23.7335237 L580.500992,23.7335237 L581.044741,31.8120811 L581.377648,31.8120811 C584.473689,26.2192337 590.843321,22.6571225 597.956446,22.6571225 C608.920203,22.6571225 616.133201,31.0574906 616.133201,44.7288956 L616.133201,76.0776935" id="Fill-22"></path>
                    <path d="M692.224778,32.4667994 L679.43003,32.4667994 L679.43003,57.8787453 C679.43003,64.3482494 681.682705,67.577453 686.199151,67.577453 C688.240984,67.577453 689.983201,67.3555147 691.370316,67.033704 L691.692126,75.866852 C689.428355,76.7324117 686.398896,77.1651916 682.659234,77.1651916 C673.482081,77.1651916 668.022397,72.1049962 668.022397,58.8552742 L668.022397,32.4667994 L660.398813,32.4667994 L660.398813,23.7446206 L668.022397,23.7446206 L668.022397,14.156882 L679.43003,10.70574 L679.43003,23.7335237 L692.224778,23.7335237 L692.224778,32.4667994" id="Fill-23"></path>
                    <path d="M753.812682,76.0776935 L742.172014,76.0776935 L742.172014,46.2491736 C742.172014,36.8833734 738.609902,32.1449887 731.618843,32.1449887 C725.593216,32.1449887 720.000368,36.2397521 720.000368,44.529151 L720.000368,76.0776935 L708.359699,76.0776935 L708.359699,-0.269113449 L720.000368,-0.269113449 L720.000368,31.1684598 L720.222307,31.1684598 C723.873193,25.4646431 729.166424,22.6571225 735.946642,22.6571225 C747.032464,22.6571225 753.812682,31.2683321 753.812682,44.950834 L753.812682,76.0776935" id="Fill-24"></path>
                    <path d="M813.236687,52.7075808 L778.336875,52.7075808 C778.558813,62.61713 785.105995,68.2099775 794.804703,68.2099775 C799.998062,68.2099775 804.725349,67.3444177 808.897791,65.7353644 L810.717686,73.8139219 C805.779557,75.9667243 799.953674,77.0431255 793.162359,77.0431255 C776.794403,77.0431255 767.106792,66.7007964 767.106792,50.6657476 C767.106792,34.6196018 777.016341,22.5572502 791.86402,22.5572502 C805.213614,22.5572502 813.625079,32.4667994 813.625079,47.436544 C813.669467,49.4783772 813.558497,51.3093689 813.236687,52.7075808 L813.236687,52.7075808 Z M802.572547,44.4181818 C802.572547,36.3396243 798.488881,30.6358077 791.053944,30.6358077 C784.373599,30.6358077 779.102562,36.4505935 778.336875,44.4181818 L802.572547,44.4181818 L802.572547,44.4181818 Z" id="Fill-25"></path>
                </g>
            </g>
        </g>
    </g>
</svg>