<?xml version="1.0" encoding="utf-8"?>
<!-- Generator: Adobe Illustrator 23.1.1, SVG Export Plug-In . SVG Version: 6.00 Build 0)  -->
<svg version="1.1" id="Layer_1" xmlns="http://www.w3.org/2000/svg" xmlns:xlink="http://www.w3.org/1999/xlink" x="0px" y="0px"
	 viewBox="0 0 254.21 95.28" style="enable-background:new 0 0 254.21 95.28;" xml:space="preserve">
<style type="text/css">
	.st0{fill:#FFFFFF;}
</style>
<g>
	<path class="st0" d="M70.98,40.19c-0.05-0.01-0.13-0.04-0.14-0.02c-0.05,0.07,0.02,0.08,0.07,0.09c-0.04,0.17,0.07,0.3,0.13,0.44
		c5.12,11.67,10.25,23.34,15.38,35c0.06,0.14,0.06,0.36,0.29,0.39c0.05-0.05,0.1-0.1,0.14-0.16c6.82-9.6,9.74-20.29,8.88-32.02
		c-0.1-1.34-0.12-1.3-1.46-1.2c-4.4,0.35-8.79,0.23-13.18-0.27C77.63,42.06,74.26,41.32,70.98,40.19z"/>
	<path class="st0" d="M17.77,52.98c1.29-0.02,3.5-0.15,5.65-0.72c11.15-2.96,18.67-9.97,22.86-20.64c0.43-1.1,0.91-2.23,0.91-3.42
		c0-3.76-1.57-6.72-4.78-8.75c-1.81-1.15-3.86-1.62-5.92-2c-0.62-0.11-0.66-0.39-0.65-0.89c0.01-0.64,0.48-0.35,0.73-0.35
		c7.27-0.02,14.54-0.01,21.82-0.02c0.31,0,0.6,0.02,0.93-0.19c0.53-0.34,1.18-0.01,1.38,0.59c1.26,3.67,3.11,7.05,5.23,10.29
		c2.32,3.54,4.92,6.88,8.46,9.25c5.85,3.92,12.3,5.71,19.38,4.7c1.57-0.22,1.58-0.24,1.34-1.53c-1.92-10.35-6.65-19.22-14.4-26.33
		c-11.96-10.96-26.07-15-42-12.03C26.6,3.2,16.89,9.51,9.51,19.32C3.26,27.62,0.2,37.06,0,47.44c-0.01,0.43,0.21,0.58,0.5,0.77
		C5.46,51.46,10.93,52.96,17.77,52.98z"/>
	<path class="st0" d="M0.32,52.77C0.31,52.87,0.29,52.93,0.29,53c0,0.11,0.01,0.22,0.02,0.33c0.7,5.89,2.3,11.51,5.13,16.72
		c7.23,13.34,18.28,21.65,33.13,24.9c1.35,0.3,2.22-0.05,3.13-0.95c2.19-2.16,3.27-4.86,3.95-7.77c0.9-3.83,1.06-7.73,1.21-11.64
		c0.26-6.79,0.4-13.58,0.43-20.38c0-0.85,0.01-1.6-0.71-2.36c-1.17-1.22-2.13-2.65-3.39-3.79c-0.8-0.72-0.96-0.74-1.86-0.17
		c-1.19,0.74-2.37,1.51-3.64,2.12c-9.38,4.52-19.29,5.41-29.49,4.26C5.54,53.99,2.92,53.47,0.32,52.77z"/>
	<path class="st0" d="M49.58,23.81c-0.08,9.4-0.28,18.75-0.31,28.1c-0.03,9.1-0.02,18.21,0.03,27.31c0.02,2.9,0.13,5.81,0.79,8.66
		c0.68,2.95,2,5.48,4.62,7.18c0.26,0.16,0.48,0.26,0.8,0.21c7.74-1.27,14.76-4.23,21.06-8.9c0.37-0.28,0.45-0.47,0.26-0.91
		c-4.68-10.92-9.5-21.77-14.32-32.62C58.78,44.41,55,35.99,51.24,27.57C50.68,26.32,50.13,25.07,49.58,23.81z"/>
	<path class="st0" d="M203.22,30.11c0.21,0.24,0.14,0.45,0.14,0.63c-0.01,9.15-0.02,18.3-0.04,27.45c0,1.65-0.06,3.3-0.28,4.95
		c-0.24,1.82-1.08,3.17-2.7,4.06c-1.22,0.67-2.53,0.98-3.9,1.1c-0.25,0.02-0.48-0.01-0.47,0.38c0.01,0.36,0.23,0.31,0.45,0.31
		c6.42,0,12.84,0,19.27,0c0.21,0,0.46,0.07,0.45-0.31c-0.02-0.32-0.21-0.34-0.45-0.35c-0.58-0.01-1.16-0.12-1.71-0.3
		c-2.35-0.79-4.06-2.09-4.16-4.86c-0.07-1.83-0.1-3.67-0.11-5.5c-0.02-6.31,0.01-12.62,0.03-18.93c0.01-2.12,0.1-4.25,0.29-6.36
		c0.11-1.22,0.43-2.36,1.29-3.3c1.07-1.17,2.45-1.56,3.97-1.68c0.23-0.02,0.57,0.08,0.51-0.38c-0.05-0.43-0.36-0.26-0.56-0.26
		c-3.8-0.01-7.61,0-11.41-0.02c-0.43,0-0.62,0.14-0.78,0.52c-3.96,9.46-8.18,18.8-12.41,28.14c-0.47,1.04-0.96,2.07-1.48,3.18
		c-0.1-0.23-0.16-0.35-0.21-0.47c-4.52-10.28-9.04-20.57-13.55-30.86c-0.17-0.39-0.37-0.52-0.79-0.52
		c-3.78,0.02-7.56,0.01-11.34,0.02c-0.21,0-0.57-0.2-0.62,0.27c-0.05,0.46,0.3,0.41,0.57,0.46c1.7,0.34,3.25,0.93,4.33,2.41
		c0.89,1.22,0.94,2.63,0.95,4.03c0.06,7.13,0.08,14.27-0.17,21.4c-0.08,2.32-0.1,4.65-0.61,6.93c-0.32,1.43-0.8,2.79-1.81,3.9
		c-1.07,1.18-2.49,1.7-3.98,2.07c-0.26,0.07-0.61,0.03-0.54,0.48c0.07,0.47,0.43,0.23,0.63,0.23c4.68,0.02,9.35,0.01,14.03,0.01
		c0.11,0,0.22,0,0.34,0c0.2,0.01,0.34-0.03,0.32-0.29c-0.01-0.2-0.04-0.35-0.28-0.38c-0.31-0.04-0.62-0.09-0.92-0.15
		c-3.69-0.72-5.42-2.6-5.75-6.2c-0.15-1.6-0.19-3.21-0.2-4.82c-0.01-4.36,0.01-8.72,0.04-13.09c0.02-4.18,0.06-8.37,0.09-12.55
		c0-0.14-0.06-0.3,0.15-0.45c0.08,0.17,0.15,0.33,0.22,0.48c1.11,2.48,2.22,4.97,3.33,7.45c4.23,9.46,8.41,18.94,12.5,28.47
		c0.09,0.2,0.08,0.54,0.41,0.54c0.33,0,0.31-0.34,0.39-0.54c0.92-2.2,1.79-4.42,2.76-6.6c3.96-8.87,7.96-17.73,11.94-26.6
		C201.98,32.9,202.58,31.53,203.22,30.11z"/>
	<path class="st0" d="M225.18,63.06c0.05,0,0.1,0,0.15,0c0,1.79,0,3.58,0.01,5.36c0,0.17-0.11,0.43,0.2,0.49
		c0.24,0.05,0.42-0.04,0.57-0.24c0.28-0.38,0.57-0.75,0.87-1.11c0.66-0.79,0.66-0.78,1.53-0.29c0.31,0.18,0.62,0.36,0.95,0.49
		c5.31,2.05,10.74,2.24,16.17,0.68c6.34-1.81,9.63-7.4,8.28-13.84c-0.79-3.79-3.28-6.19-6.66-7.78c-1.9-0.9-3.92-1.47-5.91-2.15
		c-2.47-0.84-4.98-1.57-7.16-3.08c-1.37-0.95-2.51-2.08-3.04-3.72c-0.38-1.19-0.45-2.41-0.31-3.64c0.31-2.71,1.58-4.81,4.05-6.08
		c3.82-1.95,8.37-1.22,11.66,1.84c2.18,2.04,3.64,4.55,4.72,7.31c0.11,0.29,0.25,0.42,0.57,0.4c0.44-0.03,0.27-0.35,0.27-0.55
		c0.01-3.27,0.01-6.53,0-9.8c0-0.18,0.16-0.48-0.2-0.53c-0.27-0.04-0.5-0.01-0.68,0.28c-0.3,0.47-0.67,0.89-1,1.34
		c-0.31,0.44-0.61,0.56-1.07,0.15c-0.31-0.28-0.7-0.48-1.08-0.66c-4.76-2.23-9.67-2.42-14.61-0.82c-5.67,1.84-8.89,7.15-7.82,13.02
		c0.81,4.42,3.62,7.34,7.75,8.94c2.89,1.12,5.84,2.06,8.75,3.12c1.75,0.64,3.44,1.42,4.7,2.86c3.08,3.51,1.96,9.53-2.24,12.04
		c-4.22,2.52-9.91,1.59-13.38-1.45c-2.43-2.13-4.04-4.85-5.23-7.84c-0.11-0.27-0.13-0.67-0.58-0.56c-0.45,0.1-0.21,0.48-0.21,0.72
		C225.17,59.67,225.18,61.36,225.18,63.06z"/>
	<path class="st0" d="M153.55,33.78c0-1.97,0.01-3.94-0.01-5.91c0-0.22,0.17-0.54-0.16-0.64c-0.31-0.09-0.58,0.01-0.79,0.33
		c-0.53,0.81-1.21,1.49-1.92,2.14c-0.31,0.29-0.59,0.32-0.94,0.06c-0.7-0.51-1.45-0.96-2.24-1.33c-5.62-2.66-11.51-3.15-17.53-1.94
		c-4.91,0.99-9.17,3.25-12.35,7.22c-4.1,5.13-5.72,10.99-4.82,17.49c0.91,6.56,4.18,11.59,10,14.87c3.55,2,7.42,2.9,11.46,3.11
		c5.44,0.29,10.65-0.51,15.34-3.51c0.42-0.27,0.72-0.21,1.05,0.12c0.64,0.63,1.23,1.3,1.74,2.04c0.22,0.32,0.5,0.23,0.78,0.22
		c0.24-0.02,0.16-0.23,0.16-0.37c0.06-4.02,0.11-8.05,0.16-12.07c0-0.19,0.12-0.47-0.28-0.46c-0.3,0-0.46,0.04-0.55,0.4
		c-0.78,3.16-2.42,5.83-4.74,8.1c-7.02,6.86-18.07,6.03-23.93-1.84c-3.32-4.47-4.4-9.61-4.15-15.06c0.23-4.8,1.59-9.27,4.41-13.21
		c4.77-6.66,13.07-8.54,20.06-4.51c4.23,2.44,6.83,6.18,8.32,10.77c0.09,0.29,0.05,0.7,0.58,0.62c0.58-0.09,0.32-0.51,0.33-0.78
		C153.56,37.67,153.55,35.72,153.55,33.78z"/>
	<path class="st0" d="M17.77,52.98c-6.84-0.02-12.31-1.52-17.27-4.77c-0.29-0.19-0.5-0.34-0.5-0.77c0.2-10.38,3.26-19.82,9.51-28.13
		C16.89,9.51,26.6,3.2,38.69,0.95c15.94-2.97,30.04,1.07,42,12.03c7.75,7.1,12.47,15.98,14.4,26.33c0.24,1.29,0.23,1.31-1.34,1.53
		c-7.08,1.01-13.53-0.77-19.38-4.7c-3.54-2.37-6.13-5.71-8.46-9.25c-2.13-3.23-3.97-6.61-5.23-10.29c-0.2-0.59-0.85-0.93-1.38-0.59
		c-0.33,0.21-0.62,0.19-0.93,0.19c-7.27,0.01-14.54,0-21.82,0.02c-0.25,0-0.71-0.29-0.73,0.35c-0.01,0.5,0.03,0.78,0.65,0.89
		c2.07,0.37,4.11,0.85,5.92,2c3.21,2.03,4.78,4.99,4.78,8.75c0,1.19-0.48,2.32-0.91,3.42C42.09,42.29,34.56,49.3,23.42,52.26
		C21.27,52.83,19.05,52.96,17.77,52.98z"/>
	<path class="st0" d="M0.32,52.77c2.6,0.7,5.22,1.21,7.88,1.51c10.2,1.14,20.11,0.25,29.49-4.26c1.27-0.61,2.45-1.38,3.64-2.12
		c0.91-0.57,1.07-0.55,1.86,0.17c1.26,1.15,2.22,2.57,3.39,3.79c0.72,0.76,0.71,1.51,0.71,2.36c-0.03,6.79-0.17,13.59-0.43,20.38
		c-0.15,3.91-0.31,7.82-1.21,11.64c-0.68,2.9-1.77,5.6-3.95,7.77c-0.91,0.9-1.78,1.24-3.13,0.95C23.72,91.7,12.67,83.4,5.44,70.06
		c-2.83-5.21-4.43-10.84-5.13-16.72C0.3,53.22,0.29,53.11,0.29,53C0.29,52.93,0.31,52.87,0.32,52.77z"/>
	<path class="st0" d="M49.58,23.81c0.55,1.25,1.1,2.51,1.66,3.76c3.76,8.42,7.54,16.83,11.28,25.26
		c4.82,10.85,9.64,21.71,14.32,32.62c0.19,0.44,0.12,0.63-0.26,0.91c-6.3,4.67-13.32,7.62-21.06,8.9c-0.32,0.05-0.55-0.04-0.8-0.21
		c-2.63-1.7-3.94-4.23-4.62-7.18c-0.66-2.85-0.77-5.76-0.79-8.66c-0.05-9.1-0.06-18.21-0.03-27.31
		C49.3,42.56,49.51,33.21,49.58,23.81z"/>
	<path class="st0" d="M203.22,30.11c-0.63,1.42-1.24,2.79-1.85,4.16c-3.98,8.87-7.98,17.73-11.94,26.6c-0.97,2.18-1.84,4.4-2.76,6.6
		c-0.09,0.21-0.06,0.54-0.39,0.54c-0.33,0-0.32-0.34-0.41-0.54c-4.09-9.52-8.27-19.01-12.5-28.47c-1.11-2.48-2.22-4.97-3.33-7.45
		c-0.07-0.15-0.14-0.31-0.22-0.48c-0.21,0.14-0.14,0.31-0.15,0.45c-0.03,4.18-0.07,8.37-0.09,12.55c-0.02,4.36-0.05,8.72-0.04,13.09
		c0,1.61,0.05,3.22,0.2,4.82c0.33,3.59,2.07,5.47,5.75,6.2c0.31,0.06,0.62,0.11,0.92,0.15c0.24,0.03,0.27,0.18,0.28,0.38
		c0.02,0.26-0.12,0.3-0.32,0.29c-0.11-0.01-0.22,0-0.34,0c-4.68,0-9.35,0-14.03-0.01c-0.2,0-0.56,0.24-0.63-0.23
		c-0.07-0.46,0.28-0.42,0.54-0.48c1.49-0.38,2.91-0.89,3.98-2.07c1.01-1.11,1.49-2.47,1.81-3.9c0.51-2.28,0.53-4.61,0.61-6.93
		c0.25-7.13,0.23-14.27,0.17-21.4c-0.01-1.41-0.07-2.81-0.95-4.03c-1.08-1.49-2.63-2.08-4.33-2.41c-0.27-0.05-0.62-0.01-0.57-0.46
		c0.05-0.46,0.41-0.27,0.62-0.27c3.78-0.01,7.56,0,11.34-0.02c0.42,0,0.61,0.12,0.79,0.52c4.51,10.29,9.03,20.57,13.55,30.86
		c0.05,0.12,0.11,0.24,0.21,0.47c0.52-1.11,1.01-2.14,1.48-3.18c4.23-9.34,8.45-18.68,12.41-28.14c0.16-0.38,0.35-0.53,0.78-0.52
		c3.8,0.02,7.61,0.01,11.41,0.02c0.2,0,0.51-0.17,0.56,0.26c0.05,0.46-0.28,0.36-0.51,0.38c-1.51,0.12-2.89,0.52-3.97,1.68
		c-0.87,0.94-1.18,2.08-1.29,3.3c-0.19,2.12-0.29,4.24-0.29,6.36c-0.03,6.31-0.06,12.62-0.03,18.93c0.01,1.83,0.03,3.66,0.11,5.5
		c0.11,2.76,1.82,4.06,4.16,4.86c0.55,0.19,1.13,0.29,1.71,0.3c0.24,0.01,0.44,0.02,0.45,0.35c0.02,0.38-0.23,0.31-0.45,0.31
		c-6.42,0-12.84,0-19.27,0c-0.22,0-0.44,0.05-0.45-0.31c-0.01-0.39,0.22-0.36,0.47-0.38c1.37-0.12,2.68-0.43,3.9-1.1
		c1.62-0.88,2.47-2.24,2.7-4.06c0.21-1.65,0.27-3.3,0.28-4.95c0.02-9.15,0.03-18.3,0.04-27.45
		C203.36,30.56,203.43,30.35,203.22,30.11z"/>
	<path class="st0" d="M70.98,40.19c3.28,1.13,6.66,1.87,10.1,2.26c4.38,0.5,8.78,0.62,13.18,0.27c1.34-0.11,1.36-0.14,1.46,1.2
		c0.86,11.73-2.06,22.42-8.88,32.02c-0.04,0.05-0.09,0.1-0.14,0.16c-0.23-0.04-0.22-0.25-0.29-0.39
		c-5.13-11.67-10.26-23.33-15.38-35c-0.06-0.14-0.18-0.27-0.13-0.44C70.93,40.24,70.95,40.22,70.98,40.19z"/>
	<path class="st0" d="M225.18,63.06c0-1.7-0.01-3.4,0.01-5.1c0-0.24-0.24-0.61,0.21-0.72c0.45-0.1,0.47,0.29,0.58,0.56
		c1.19,2.99,2.8,5.71,5.23,7.84c3.47,3.04,9.16,3.97,13.38,1.45c4.2-2.51,5.33-8.53,2.24-12.04c-1.26-1.44-2.95-2.22-4.7-2.86
		c-2.91-1.07-5.86-2-8.75-3.12c-4.13-1.6-6.95-4.51-7.75-8.94c-1.07-5.87,2.15-11.17,7.82-13.02c4.94-1.6,9.85-1.41,14.61,0.82
		c0.38,0.18,0.77,0.38,1.08,0.66c0.46,0.41,0.76,0.29,1.07-0.15c0.32-0.46,0.7-0.88,1-1.34c0.18-0.28,0.41-0.31,0.68-0.28
		c0.37,0.05,0.2,0.35,0.2,0.53c0.01,3.27,0.01,6.53,0,9.8c0,0.2,0.17,0.51-0.27,0.55c-0.33,0.02-0.46-0.11-0.57-0.4
		c-1.08-2.75-2.53-5.27-4.72-7.31c-3.28-3.07-7.84-3.8-11.66-1.84c-2.47,1.27-3.74,3.36-4.05,6.08c-0.14,1.23-0.07,2.45,0.31,3.64
		c0.53,1.63,1.67,2.77,3.04,3.72c2.18,1.51,4.7,2.24,7.16,3.08c1.98,0.68,4.01,1.25,5.91,2.15c3.38,1.59,5.87,3.99,6.66,7.78
		c1.35,6.44-1.94,12.03-8.28,13.84c-5.43,1.55-10.86,1.37-16.17-0.68c-0.33-0.13-0.64-0.31-0.95-0.49c-0.87-0.5-0.87-0.5-1.53,0.29
		c-0.3,0.36-0.59,0.73-0.87,1.11c-0.15,0.21-0.33,0.29-0.57,0.24c-0.31-0.06-0.2-0.32-0.2-0.49c-0.01-1.79-0.01-3.58-0.01-5.36
		C225.28,63.06,225.23,63.06,225.18,63.06z"/>
	<path class="st0" d="M153.55,33.78c0,1.95,0.01,3.89-0.01,5.84c0,0.27,0.25,0.69-0.33,0.78c-0.54,0.08-0.49-0.33-0.58-0.62
		c-1.49-4.58-4.1-8.33-8.32-10.77c-6.99-4.03-15.29-2.15-20.06,4.51c-2.82,3.94-4.19,8.41-4.41,13.21
		c-0.26,5.45,0.82,10.6,4.15,15.06c5.86,7.87,16.91,8.7,23.93,1.84c2.32-2.27,3.96-4.93,4.74-8.1c0.09-0.36,0.25-0.39,0.55-0.4
		c0.4-0.01,0.28,0.27,0.28,0.46c-0.05,4.02-0.1,8.05-0.16,12.07c0,0.14,0.08,0.36-0.16,0.37c-0.27,0.02-0.56,0.1-0.78-0.22
		c-0.51-0.74-1.1-1.41-1.74-2.04c-0.33-0.33-0.63-0.39-1.05-0.12c-4.69,3-9.89,3.8-15.34,3.51c-4.04-0.21-7.91-1.11-11.46-3.11
		c-5.82-3.28-9.09-8.31-10-14.87c-0.9-6.5,0.72-12.36,4.82-17.49c3.18-3.98,7.44-6.23,12.35-7.22c6.02-1.21,11.91-0.72,17.53,1.94
		c0.79,0.37,1.54,0.82,2.24,1.33c0.35,0.26,0.63,0.23,0.94-0.06c0.71-0.65,1.39-1.33,1.92-2.14c0.21-0.32,0.48-0.42,0.79-0.33
		c0.33,0.1,0.16,0.42,0.16,0.64C153.55,29.84,153.55,31.81,153.55,33.78z"/>
	<path class="st0" d="M70.9,40.26c-0.05-0.01-0.12-0.02-0.07-0.09c0.01-0.02,0.09,0.01,0.14,0.02
		C70.95,40.22,70.93,40.24,70.9,40.26z"/>
</g>
</svg>
