<?xml version="1.0" encoding="utf-8"?>
<!-- Generator: Adobe Illustrator 23.1.1, SVG Export Plug-In . SVG Version: 6.00 Build 0)  -->
<svg version="1.1" id="Layer_1" xmlns="http://www.w3.org/2000/svg" xmlns:xlink="http://www.w3.org/1999/xlink" x="0px" y="0px"
	 viewBox="0 0 276.91 80.75" style="enable-background:new 0 0 276.91 80.75;" xml:space="preserve">
<style type="text/css">
	.st0{fill:#FFFFFF;}
	.st1{fill:#66ADE3;}
	.st2{fill:url(#Path_553_1_);}
	.st3{fill:url(#Path_554_1_);}
	.st4{fill:none;}
	.st5{fill:#008277;}
	.st6{opacity:0.95;fill:url(#SVGID_1_);enable-background:new    ;}
	.st7{fill:#9DA1A4;}
	.st8{fill:#04181E;}
	.st9{fill:#003341;}
	.st10{fill:#D2EEF7;}
	.st11{fill:#9BCBDB;}
	.st12{fill:#CAEDF6;}
	.st13{fill:#C7ECF9;}
	.st14{fill:#C1E6F4;}
	.st15{fill:#003343;}
	.st16{fill:#97CADB;}
	.st17{fill:#D1EEF7;}
	.st18{fill:#CCEEF9;}
	.st19{fill:#C7EDF8;}
	.st20{fill:#C2E9F7;}
	.st21{fill:#BCE5F2;}
	.st22{fill:#9DCFDF;}
	.st23{fill:#90C3D2;}
	.st24{fill:#326171;}
	.st25{fill:#92C3D2;}
	.st26{fill:#6393A3;}
	.st27{fill:#114757;}
	.st28{fill:#497D8B;}
	.st29{fill:#356774;}
	.st30{fill:#C7EBF6;}
	.st31{fill:#9CCDDD;}
	.st32{fill:#9CCEDC;}
	.st33{fill:#C2EAF5;}
	.st34{fill:#9DD0DD;}
	.st35{fill:#9ACDDC;}
	.st36{fill:#90C3D4;}
	.st37{fill:#90C4D5;}
	.st38{fill:#BFE8F6;}
	.st39{fill:#8EC2D2;}
	.st40{fill:#7EB1C0;}
	.st41{fill:#346978;}
	.st42{fill:#80B3C5;}
	.st43{fill:#8AC1D0;}
	.st44{fill:#81B5C4;}
	.st45{fill:#7AAEBC;}
	.st46{fill:#84B8C7;}
	.st47{fill:#80B4C2;}
	.st48{fill:#89BDCC;}
	.st49{fill:#407482;}
	.st50{fill:#7EB1BF;}
	.st51{fill:#87BECC;}
	.st52{fill:#7EAFBF;}
	.st53{fill:#6798A8;}
	.st54{fill:#7BACBC;}
	.st55{fill:#568A9B;}
	.st56{fill:#6698A7;}
	.st57{fill:#78AAB9;}
	.st58{fill:#6091A1;}
	.st59{fill:#699BAA;}
	.st60{fill:#75A7B7;}
	.st61{fill:#003546;}
	.st62{fill:#023440;}
	.st63{fill:#C2E7F4;}
	.st64{fill:#013849;}
	.st65{fill:#214F5D;}
	.st66{fill:#BBE6F5;}
	.st67{fill:#0E4455;}
	.st68{fill:#154A5B;}
	.st69{fill:#104557;}
	.st70{fill:#255A6C;}
	.st71{fill:#255C6D;}
	.st72{fill:#003541;}
	.st73{fill:#C5E9F6;}
	.st74{fill:#80B3C1;}
	.st75{fill:#78A9B8;}
	.st76{fill:#6597A8;}
	.st77{fill:url(#SVGID_4_);}
	.st78{fill:#15213B;}
	.st79{fill:#15213B;stroke:#15213B;stroke-width:0.4252;stroke-miterlimit:10;}
	.st80{fill-rule:evenodd;clip-rule:evenodd;fill:url(#Path_1_);}
	.st81{fill-rule:evenodd;clip-rule:evenodd;fill:url(#Path-Copy_1_);}
	.st82{fill-rule:evenodd;clip-rule:evenodd;fill:url(#Path-Copy-2_1_);}
	.st83{fill:#F43052;}
	.st84{fill:#12A3E4;}
</style>
<g>
	<g id="Group_766" transform="translate(72.083 5.793)">
		
			<linearGradient id="Path_553_1_" gradientUnits="userSpaceOnUse" x1="115.0491" y1="54.3563" x2="114.946" y2="-13.9241" gradientTransform="matrix(1 -2.116813e-03 2.116813e-03 1 1.7547 5.2123)">
			<stop  offset="0" style="stop-color:#FDEA5F"/>
			<stop  offset="0.201" style="stop-color:#F8E35B"/>
			<stop  offset="0.479" style="stop-color:#EDD154"/>
			<stop  offset="0.801" style="stop-color:#DAB445"/>
			<stop  offset="1" style="stop-color:#CC9F3C"/>
		</linearGradient>
		<path id="Path_553" class="st2" d="M96.71,12.38c-0.85-1.99-2.07-3.8-3.6-5.33c-1.54-1.53-3.36-2.75-5.36-3.6
			c-4.18-1.72-8.88-1.71-13.06,0.03c-4.03,1.7-7.24,4.92-8.92,8.96c-0.87,2.07-1.31,4.29-1.3,6.54c0,2.24,0.45,4.46,1.31,6.52
			c0.86,1.99,2.08,3.8,3.61,5.34c6.56,6.55,17.18,6.54,23.73-0.02c1.54-1.54,2.77-3.37,3.61-5.39
			C98.48,21.25,98.47,16.55,96.71,12.38L96.71,12.38z M92.54,23.7c-0.61,1.45-1.5,2.78-2.6,3.9c-1.13,1.11-2.44,2-3.88,2.64
			c-1.52,0.62-3.14,0.94-4.78,0.94c-1.63,0.01-3.25-0.31-4.76-0.93c-1.45-0.63-2.78-1.52-3.91-2.63c-1.1-1.13-2-2.45-2.63-3.89
			c-0.63-1.51-0.96-3.13-0.95-4.76c0-1.64,0.32-3.27,0.93-4.79c0.62-1.45,1.51-2.77,2.63-3.88c1.11-1.13,2.43-2.03,3.89-2.64
			c1.51-0.64,3.13-0.96,4.76-0.96c1.64,0,3.27,0.32,4.79,0.94c1.45,0.63,2.77,1.52,3.89,2.63c1.11,1.11,2,2.42,2.61,3.87
			c0.65,1.51,0.98,3.14,0.99,4.78C93.52,20.56,93.19,22.19,92.54,23.7L92.54,23.7z M54.22,27.68c-1.13,1.11-2.44,2-3.88,2.64
			c-1.52,0.62-3.15,0.94-4.8,0.94c-3.25,0.03-6.37-1.26-8.66-3.56c-1.11-1.12-2.01-2.44-2.64-3.89c-2.63-6.25,0.3-13.45,6.55-16.08
			c3.04-1.28,6.47-1.28,9.51-0.01c1.45,0.62,2.77,1.51,3.89,2.62c1.01,1.01,1.83,2.19,2.43,3.49l4.87-0.01
			c-0.14-0.46-0.31-0.91-0.5-1.36c-3.66-8.5-13.48-12.47-22.02-8.91c-1.99,0.86-3.8,2.09-5.34,3.61
			c-4.82,4.85-6.22,12.13-3.55,18.43c0.85,1.99,2.06,3.8,3.59,5.33c1.54,1.52,3.36,2.74,5.36,3.59c2.07,0.86,4.3,1.29,6.54,1.29
			c4.45-0.01,8.71-1.77,11.85-4.92c1.53-1.54,2.75-3.37,3.6-5.37c0.17-0.44,0.34-0.89,0.49-1.35l-4.88,0.01
			C56.02,25.47,55.21,26.65,54.22,27.68L54.22,27.68z M103.07,2.13l0.07,33.55l4.53-0.01L107.6,2.12L103.07,2.13z M167.1,1.94
			c-6.52-0.15-11.93,5.01-12.09,11.53c-0.15,6.52,5.01,11.93,11.53,12.09c0.26,0.01,0.53,0,0.79-0.01l2.73-0.01l-5.32,10.16
			l4.55-0.01l8.28-15.96c1.03-1.83,1.6-3.89,1.64-6c-0.02-6.54-5.33-11.82-11.87-11.8C167.27,1.94,167.18,1.94,167.1,1.94
			L167.1,1.94z M167.14,21.73c-4.36,0.09-7.97-3.38-8.06-7.74c0-0.05,0-0.11,0-0.16c-0.07-4.42,3.46-8.06,7.88-8.13
			s8.06,3.46,8.13,7.88c0,0.07,0,0.14,0,0.21C175.09,18.19,171.53,21.74,167.14,21.73L167.14,21.73z M201.04,17.47l-1.22-1.02
			l0.98-1.26c1.1-1.43,1.69-3.2,1.67-5.01c-0.09-4.65-3.94-8.35-8.6-8.26c-4.53,0.09-8.18,3.76-8.26,8.29
			c-0.02,1.83,0.56,3.62,1.66,5.09l0.93,1.24L187,17.56c-2.36,1.99-3.72,4.93-3.7,8.02c0.16,5.94,5.12,10.63,11.06,10.47
			c5.73-0.16,10.33-4.78,10.47-10.51C204.84,22.41,203.44,19.45,201.04,17.47L201.04,17.47z M193.97,5.48
			c2.61-0.01,4.72,2.1,4.73,4.71c0.01,2.61-2.1,4.72-4.71,4.73c-2.61-0.06-4.67-2.22-4.61-4.82C189.43,7.58,191.45,5.55,193.97,5.48
			z M194.03,32.55c-3.83,0.01-6.94-3.09-6.95-6.92s3.09-6.94,6.92-6.95l0,0c3.81-0.1,6.97,2.91,7.07,6.71c0,0.05,0,0.09,0,0.14
			C201.05,29.42,197.9,32.55,194.03,32.55L194.03,32.55z M144.09,2.04l0.06,26.04c0.15,1.21-0.72,2.32-1.93,2.46
			c-0.08,0.01-0.15,0.01-0.23,0.02c-1.07-0.05-2.03-0.71-2.47-1.69L129.11,6.59c-0.54-1.36-1.48-2.52-2.71-3.32
			c-1.2-0.8-2.62-1.21-4.06-1.19c-1.69-0.02-3.33,0.55-4.64,1.61c-0.06,0.05-0.12,0.1-0.17,0.15c-1.4,1.15-2.2,2.87-2.19,4.68
			l0.06,27.13l4.81-0.01l-0.06-26.43c-0.07-1.23,0.88-2.27,2.1-2.34c0.04,0,0.08,0,0.11,0c1.08,0.04,2.03,0.72,2.41,1.73l0.1,0.22
			c2.44,5.38,7.92,17.21,11.12,23.48c1.07,2.1,2.91,3.04,5.96,3.06c1.72,0.03,3.39-0.54,4.74-1.61c1.52-0.97,2.39-2.69,2.27-4.49
			L148.9,2.03L144.09,2.04z"/>
		<path id="Path_677" class="st0" d="M47.84,45.27l-8.68,19.6l-1.43,0l-8.77-19.56l1.57,0l7.95,17.71l7.88-17.75L47.84,45.27z
			 M64.54,63.53l0,1.29l-13.51,0.03L51,45.27l13.09-0.03l0,1.29l-11.66,0.02l0.02,7.72l10.43-0.02l0,1.26l-10.43,0.02l0.02,8.03
			L64.54,63.53z M85.65,45.19l0.04,19.58l-1.17,0L71.14,47.8l0.04,17l-1.43,0l-0.04-19.58l1.2,0L84.26,62.2l-0.04-17L85.65,45.19z
			 M96.22,46.46l-7.05,0.01l0-1.29l15.52-0.03l0,1.29l-7.05,0.01l0.04,18.29l-1.43,0L96.22,46.46z M115.53,64.85
			c-2.14,0.13-4.24-0.64-5.78-2.14c-1.48-1.75-2.23-4-2.07-6.29l-0.02-11.27l1.43,0l0.02,11.21c-0.15,1.94,0.45,3.87,1.66,5.39
			c1.26,1.26,3.01,1.9,4.79,1.78c1.77,0.11,3.5-0.54,4.75-1.8c1.21-1.53,1.79-3.46,1.64-5.4l-0.02-11.21l1.43,0l0.02,11.27
			c0.17,2.29-0.57,4.55-2.06,6.3C119.78,64.18,117.68,64.97,115.53,64.85z M143.64,64.65l-4.68-6.53c-0.63,0.09-1.27,0.14-1.9,0.14
			l-5.59,0.01l0.01,6.4l-1.43,0L130,45.1l7.02-0.01c2.08-0.13,4.13,0.49,5.79,1.74c1.42,1.2,2.2,2.99,2.11,4.85
			c0.05,1.4-0.37,2.77-1.18,3.9c-0.85,1.1-2.05,1.88-3.39,2.23l4.91,6.84L143.64,64.65z M137.05,57c1.71,0.11,3.4-0.38,4.78-1.39
			c1.13-0.99,1.73-2.44,1.64-3.93c0.08-1.49-0.53-2.94-1.66-3.93c-1.38-1.01-3.08-1.49-4.79-1.37l-5.59,0.01l0.02,10.63L137.05,57z
			 M163.69,63.32l0,1.29l-13.51,0.03l-0.04-19.58l13.09-0.03l0,1.29l-11.66,0.02l0.02,7.72l10.43-0.02l0,1.26l-10.43,0.02l0.02,8.03
			L163.69,63.32z M174.04,64.72c-1.4,0.01-2.79-0.24-4.1-0.73c-1.15-0.39-2.19-1.05-3.04-1.91l0.64-1.06
			c0.79,0.79,1.74,1.39,2.79,1.77c1.17,0.46,2.42,0.69,3.68,0.68c1.48,0.1,2.96-0.28,4.22-1.07c0.91-0.63,1.44-1.67,1.42-2.77
			c0.04-0.77-0.24-1.53-0.76-2.1c-0.53-0.54-1.17-0.95-1.88-1.2c-0.99-0.35-2-0.64-3.02-0.86c-1.17-0.27-2.33-0.61-3.46-1.03
			c-0.85-0.32-1.61-0.86-2.21-1.55c-0.64-0.79-0.97-1.79-0.91-2.81c-0.01-0.93,0.25-1.84,0.75-2.62c0.56-0.85,1.37-1.5,2.3-1.89
			c1.23-0.51,2.55-0.75,3.87-0.71c1.08,0,2.16,0.16,3.19,0.47c0.97,0.28,1.88,0.71,2.72,1.28l-0.53,1.15
			c-0.79-0.54-1.67-0.96-2.59-1.23c-0.9-0.27-1.84-0.41-2.78-0.41c-1.45-0.1-2.9,0.29-4.11,1.1c-0.9,0.66-1.42,1.71-1.39,2.83
			c-0.04,0.77,0.24,1.53,0.76,2.1c0.53,0.54,1.17,0.95,1.88,1.2c1,0.35,2.02,0.65,3.05,0.89c1.17,0.27,2.32,0.61,3.44,1.03
			c0.84,0.32,1.6,0.84,2.2,1.52c0.64,0.77,0.97,1.75,0.91,2.75c0.01,0.92-0.26,1.83-0.76,2.6c-0.58,0.84-1.41,1.5-2.36,1.88
			C176.71,64.52,175.38,64.76,174.04,64.72L174.04,64.72z"/>
	</g>
	<g id="Group_767">
		
			<linearGradient id="Path_554_1_" gradientUnits="userSpaceOnUse" x1="80.2122" y1="63.2187" x2="-3.1134" y2="6.9699" gradientTransform="matrix(1 -2.116813e-03 2.116813e-03 1 1.7424 5.3649)">
			<stop  offset="0" style="stop-color:#FDEA5F"/>
			<stop  offset="0.129" style="stop-color:#F5DE59"/>
			<stop  offset="0.709" style="stop-color:#D7B043"/>
			<stop  offset="1" style="stop-color:#CC9F3C"/>
		</linearGradient>
		<path id="Path_554" class="st3" d="M65.91,0L14.65,0.11C6.54,0.13-0.02,6.73,0,14.85l0.11,51.23c0.01,8.11,6.6,14.68,14.71,14.67
			l51.26-0.11c8.11-0.02,14.67-6.62,14.65-14.73l-0.11-51.23C80.61,6.56,74.03-0.01,65.91,0z M38.05,50l0,0.01
			c-0.23,0.28-0.46,0.55-0.7,0.83c-2.4,2.83-5.84,4.58-9.54,4.84c-0.26,0.01-0.54,0.02-0.82,0.02c-1.53,0-3.06-0.22-4.52-0.67
			c-0.16-0.06-0.33-0.12-0.51-0.17c-0.1-0.03-0.22-0.08-0.32-0.11c-1.35-0.51-2.62-1.21-3.78-2.06c-0.59-0.45-1.14-0.93-1.67-1.45
			c-0.87-0.86-1.65-1.83-2.3-2.87c0-0.01-0.01-0.01-0.01-0.01c-0.24-0.42-0.49-0.86-0.7-1.3c-0.32-0.67-0.6-1.37-0.83-2.08
			c-0.14-0.48-0.28-0.97-0.38-1.47c-0.5-2.33-0.43-4.75,0.19-7.05c0.1-0.37,0.22-0.73,0.35-1.09c0.03-0.14,0.08-0.25,0.13-0.39
			c0.16-0.39,0.33-0.78,0.5-1.16c0.54-1.12,1.21-2.17,2.01-3.12c0.31-0.37,0.63-0.74,0.98-1.08c2.86-2.89,6.75-4.51,10.81-4.52
			c0.28,0,0.55,0.01,0.82,0.02c1.52,0.08,3.02,0.44,4.42,1.05l-2.23,5.22c-0.75-0.31-1.54-0.49-2.35-0.52
			c-0.21-0.01-0.42-0.02-0.66-0.02c-1.13,0-2.24,0.19-3.3,0.58c-0.44,0.16-0.86,0.35-1.26,0.58c-0.15,0.06-0.29,0.14-0.42,0.23
			c-1.58,0.96-2.85,2.36-3.64,4.03c-0.14,0.28-0.25,0.56-0.37,0.86c-0.11,0.3-0.2,0.6-0.28,0.91c-0.19,0.79-0.29,1.6-0.29,2.41
			c0,0.65,0.07,1.3,0.2,1.93c0.8,3.92,3.97,6.92,7.93,7.51c0.48,0.08,0.97,0.11,1.46,0.11c0.23,0,0.45-0.01,0.66-0.02
			c2.14-0.14,4.12-1.21,5.41-2.92c0.69-0.8,1.32-1.67,1.86-2.58c0.18-0.31,0.38-0.62,0.56-0.95l3.18,5.71
			C38.45,49.49,38.25,49.75,38.05,50L38.05,50z M40.38,46.55c-0.15-0.29-0.34-0.63-0.52-1c-0.83-1.61-1.98-3.89-3.2-6.09
			c-0.09-0.17-0.19-0.35-0.28-0.51c-0.91-1.69-1.95-3.31-3.09-4.85c-0.1-0.13-0.21-0.24-0.31-0.37c-0.1-0.13-0.23-0.26-0.35-0.38
			c-0.11-0.12-0.23-0.23-0.35-0.34l2.34-5.47c0.97,0.69,1.86,1.48,2.65,2.37c0.25,0.29,0.5,0.57,0.73,0.87
			c0.87,1.1,1.66,2.26,2.36,3.47c0.68-1.22,1.46-2.38,2.33-3.48c0.23-0.3,0.47-0.59,0.72-0.88c0.79-0.89,1.67-1.69,2.64-2.38
			l2.36,5.46c-0.25,0.23-0.48,0.47-0.69,0.73c-0.07,0.07-0.11,0.14-0.17,0.21c-0.14,0.16-0.26,0.33-0.4,0.51
			c-0.02,0.04-0.05,0.07-0.08,0.1c-0.94,1.35-1.8,2.74-2.59,4.18c-0.03,0.07-0.08,0.15-0.13,0.23c-1.11,2.02-2.2,4.16-3.05,5.83
			C40.95,45.46,40.63,46.07,40.38,46.55L40.38,46.55z M68.79,43.39c-0.11,0.51-0.24,0.99-0.39,1.47c-0.23,0.71-0.5,1.41-0.82,2.08
			c-0.22,0.44-0.46,0.87-0.7,1.3l-0.01,0.01c-0.65,1.04-1.41,2.01-2.27,2.88c-0.34,0.35-0.7,0.67-1.07,0.98
			c-0.2,0.17-0.4,0.32-0.6,0.47c-1.19,0.88-2.49,1.59-3.87,2.12c-0.01,0.01-0.02,0.01-0.03,0.01c-0.7,0.26-1.41,0.46-2.14,0.61
			c-1.01,0.21-2.05,0.32-3.08,0.32c-0.28,0-0.55-0.01-0.82-0.02c-3.7-0.25-7.15-1.98-9.56-4.8c-0.24-0.28-0.47-0.56-0.7-0.83l0-0.01
			c-0.21-0.25-0.4-0.52-0.59-0.77l0-0.01l3.13-5.71c0.2,0.32,0.38,0.63,0.56,0.93c0.55,0.91,1.18,1.77,1.87,2.57
			c1.31,1.71,3.3,2.77,5.45,2.9c0.21,0.01,0.42,0.02,0.63,0.02c0.65-0.01,1.3-0.07,1.93-0.2c3.76-0.76,6.69-3.7,7.43-7.46
			c0.29-1.43,0.25-2.92-0.11-4.33c-0.15-0.61-0.37-1.2-0.64-1.76l0-0.01c-0.8-1.67-2.08-3.07-3.67-4.02
			c-0.14-0.07-0.28-0.16-0.42-0.23c-0.4-0.23-0.82-0.42-1.26-0.57c-1.06-0.38-2.19-0.58-3.32-0.57c-0.22,0-0.42,0.01-0.63,0.03
			c-0.81,0.04-1.61,0.22-2.36,0.54l-2.25-5.22c1.39-0.62,2.88-0.98,4.4-1.07c0.28-0.01,0.54-0.02,0.82-0.02
			c2.55,0,5.06,0.63,7.3,1.84c0.42,0.24,0.85,0.49,1.24,0.77c0.83,0.55,1.6,1.17,2.3,1.87c0.35,0.34,0.67,0.71,0.99,1.08
			c0.79,0.95,1.47,2,2.01,3.11c0.19,0.38,0.35,0.77,0.51,1.16c0.05,0.14,0.09,0.26,0.14,0.39c0.13,0.35,0.24,0.71,0.35,1.09
			c0.35,1.3,0.54,2.64,0.54,3.98C69.09,41.36,68.99,42.38,68.79,43.39L68.79,43.39z"/>
		<path id="Path_555" class="st0" d="M47.54,33.91c-0.02,0.03-0.03,0.05-0.05,0.08c-0.11,0.14-0.24,0.28-0.36,0.42
			C47.27,34.25,47.4,34.08,47.54,33.91z"/>
		<path id="Path_556" class="st0" d="M48.41,32.99c-0.17,0.16-0.33,0.33-0.49,0.51c-0.07,0.06-0.14,0.13-0.21,0.21
			c0.21-0.26,0.44-0.5,0.69-0.73L48.41,32.99z"/>
	</g>
</g>
</svg>
