<?xml version="1.0" encoding="utf-8"?>
<!-- Generator: Adobe Illustrator 25.2.3, SVG Export Plug-In . SVG Version: 6.00 Build 0)  -->
<svg version="1.1" id="Layer_1" xmlns="http://www.w3.org/2000/svg" xmlns:xlink="http://www.w3.org/1999/xlink" x="0px" y="0px"
	 viewBox="0 0 1000 445" style="enable-background:new 0 0 1000 445;" xml:space="preserve">
<style type="text/css">
	.st0{fill:#4D4D4D;}
	.st1{fill:url(#SVGID_1_);}
	.st2{fill:url(#SVGID_2_);}
	.st3{fill:url(#SVGID_3_);}
	.st4{fill:url(#SVGID_4_);}
	.st5{fill:url(#SVGID_5_);}
</style>
<g>
	<g>
		<g>
			<path class="st0" d="M495.98,255.91c0,2.15-0.86,4.01-2.58,5.59c-4.16,4.16-9.28,7.45-15.36,9.89
				c-6.09,2.43-12.36,3.65-18.8,3.65c-9.31,0-17.87-2.22-25.68-6.66c-7.81-4.44-14-10.6-18.59-18.48
				c-4.59-7.88-6.88-16.62-6.88-26.22c0-10.03,2.36-18.94,7.09-26.75c4.73-7.81,11.03-13.86,18.91-18.16
				c7.88-4.3,16.26-6.45,25.14-6.45c6.59,0,12.89,1.15,18.91,3.44c6.02,2.29,11.1,5.52,15.26,9.67c1.57,1.43,2.36,3.15,2.36,5.16
				c0,1.43-0.5,2.94-1.5,4.51c-1.29,1.43-2.72,2.15-4.3,2.15c-1.72,0-3.65-0.79-5.8-2.36c-6.74-6.16-15.12-9.24-25.14-9.24
				c-6.88,0-13.15,1.69-18.8,5.05c-5.66,3.37-10.1,7.95-13.32,13.75c-3.22,5.8-4.83,12.14-4.83,19.02s1.61,13.22,4.83,19.02
				c3.22,5.8,7.66,10.42,13.32,13.86c5.66,3.44,11.93,5.16,18.8,5.16c10.17,0,18.55-3.22,25.14-9.67c2.29-1.43,4.3-2.15,6.02-2.15
				c1.72,0,3.15,0.72,4.3,2.15C495.48,252.84,495.98,254.2,495.98,255.91z"/>
			<path class="st0" d="M602.24,175.55c1.22,1.29,1.83,2.87,1.83,4.73c0,1-0.21,2.08-0.64,3.22l-41.69,90.68
				c-5.73,12.75-11.89,21.92-18.48,27.5c-6.59,5.59-15.04,8.38-25.36,8.38c-2.01,0-3.73-0.61-5.16-1.83
				c-1.43-1.22-2.15-2.76-2.15-4.62c0-3.87,2.36-5.95,7.09-6.23c8.17-0.14,14.54-2.33,19.12-6.55c4.58-4.23,9.03-11.36,13.32-21.38
				l-39.75-85.95c-0.29-0.57-0.43-1.43-0.43-2.58c0-2,0.61-3.76,1.83-5.26c1.22-1.5,2.83-2.26,4.83-2.26c1.29,0,2.54,0.4,3.76,1.18
				c1.22,0.79,2.11,1.83,2.69,3.12l33.74,77.36l34.17-77.14c1-3.01,3.22-4.51,6.66-4.51C599.48,173.54,601.02,174.26,602.24,175.55z
				"/>
			<path class="st0" d="M698.83,255.91c0,2.15-0.86,4.01-2.58,5.59c-4.16,4.16-9.28,7.45-15.36,9.89
				c-6.09,2.43-12.36,3.65-18.8,3.65c-9.31,0-17.87-2.22-25.68-6.66c-7.81-4.44-14-10.6-18.59-18.48
				c-4.59-7.88-6.88-16.62-6.88-26.22c0-10.03,2.36-18.94,7.09-26.75c4.73-7.81,11.03-13.86,18.91-18.16
				c7.88-4.3,16.26-6.45,25.14-6.45c6.59,0,12.89,1.15,18.91,3.44c6.02,2.29,11.1,5.52,15.26,9.67c1.57,1.43,2.36,3.15,2.36,5.16
				c0,1.43-0.5,2.94-1.5,4.51c-1.29,1.43-2.72,2.15-4.3,2.15c-1.72,0-3.65-0.79-5.8-2.36c-6.74-6.16-15.12-9.24-25.14-9.24
				c-6.88,0-13.15,1.69-18.8,5.05c-5.66,3.37-10.1,7.95-13.32,13.75c-3.22,5.8-4.83,12.14-4.83,19.02s1.61,13.22,4.83,19.02
				c3.22,5.8,7.66,10.42,13.32,13.86c5.66,3.44,11.93,5.16,18.8,5.16c10.17,0,18.55-3.22,25.14-9.67c2.29-1.43,4.3-2.15,6.02-2.15
				c1.72,0,3.15,0.72,4.3,2.15C698.32,252.84,698.83,254.2,698.83,255.91z"/>
			<path class="st0" d="M725.9,136.98c1.29-1.36,2.93-2.04,4.94-2.04c2,0,3.69,0.68,5.05,2.04c1.36,1.36,2.04,3.04,2.04,5.05v124.2
				c0,2.29-0.68,4.08-2.04,5.37c-1.36,1.29-2.98,1.93-4.83,1.93c-1.86,0-3.51-0.64-4.94-1.93c-1.43-1.29-2.15-3.08-2.15-5.37v-124.2
				C723.97,140.02,724.61,138.34,725.9,136.98z"/>
			<path class="st0" d="M787.79,268.05c-7.88-4.65-14.15-10.92-18.8-18.8c-4.66-7.88-6.98-16.4-6.98-25.57
				c0-9.31,2.33-17.91,6.98-25.79c4.65-7.88,10.88-14.11,18.69-18.69c7.81-4.58,16.37-6.88,25.68-6.88c9.31,0,17.87,2.29,25.68,6.88
				c7.81,4.59,14,10.82,18.59,18.69c4.58,7.88,6.88,16.48,6.88,25.79c0,9.17-2.29,17.69-6.88,25.57
				c-4.59,7.88-10.82,14.15-18.69,18.8c-7.88,4.66-16.4,6.98-25.57,6.98C804.19,275.04,795.66,272.71,787.79,268.05z M832.48,256.34
				c5.73-3.44,10.28-8.06,13.65-13.86c3.36-5.8,5.05-12.07,5.05-18.8c0-6.88-1.69-13.25-5.05-19.12
				c-3.37-5.87-7.92-10.53-13.65-13.97c-5.73-3.44-12.11-5.16-19.12-5.16c-7.02,0-13.43,1.72-19.23,5.16
				c-5.8,3.44-10.39,8.09-13.75,13.97c-3.37,5.88-5.05,12.25-5.05,19.12c0,6.74,1.68,13,5.05,18.8c3.36,5.8,7.95,10.42,13.75,13.86
				c5.8,3.44,12.21,5.16,19.23,5.16C820.37,261.5,826.75,259.78,832.48,256.34z"/>
			<path class="st0" d="M898.13,270.96c-6.23-2.72-10.93-6.37-14.08-10.96c-1.58-1.57-2.36-3.44-2.36-5.59
				c0-1.57,0.54-2.93,1.61-4.08c1.07-1.15,2.4-1.72,3.97-1.72c2,0,4.37,0.93,7.09,2.79c5.16,7.02,13.89,10.53,26.22,10.53
				c6.02,0,11.03-1.5,15.04-4.51c4.01-3.01,6.02-6.8,6.02-11.39c0-4.58-2.19-8.24-6.55-10.96c-4.37-2.72-11.57-5.59-21.6-8.6
				c-8.45-2.43-15.22-5.91-20.31-10.42c-5.09-4.51-7.63-10.64-7.63-18.37c0-8.17,3.15-14.43,9.45-18.8
				c6.3-4.37,14.11-6.55,23.42-6.55c13.46,0,23.85,4.37,31.16,13.11c0.71,0.57,1.32,1.43,1.83,2.58c0.5,1.15,0.75,2.29,0.75,3.44
				c0,1.72-0.54,3.19-1.61,4.41c-1.07,1.22-2.4,1.83-3.98,1.83c-1.15,0-2.22-0.21-3.22-0.64c-1-0.43-2.08-1-3.22-1.72
				c-5.16-6.59-12.89-9.89-23.21-9.89c-4.87,0-8.99,0.97-12.36,2.9c-3.37,1.93-5.05,5.26-5.05,9.99c0,4.59,1.64,8.13,4.94,10.64
				c3.29,2.51,8.38,4.83,15.26,6.98c12.03,3.73,21.02,7.74,26.97,12.03c5.94,4.3,8.92,10.31,8.92,18.05c0,5.59-1.61,10.6-4.83,15.04
				c-3.22,4.44-7.56,7.88-13,10.31c-5.45,2.43-11.39,3.65-17.84,3.65C911.63,275.04,904.36,273.68,898.13,270.96z"/>
		</g>
	</g>
	<g>
		<linearGradient id="SVGID_1_" gradientUnits="userSpaceOnUse" x1="213.6486" y1="311.6495" x2="338.0912" y2="311.6495">
			<stop  offset="1.887480e-07" style="stop-color:#92FFC0"/>
			<stop  offset="1" style="stop-color:#4CA0A2"/>
		</linearGradient>
		<path class="st1" d="M320.47,258.06c21.14,18.11,23.61,49.93,5.5,71.09c-1.72,2.01-3.57,3.85-5.51,5.51l-2.81,2.37
			c-13.59,11.51-28.92,20.82-45.14,27.53c-16.22,6.72-33.33,10.85-50.52,12.33c-2.78,0.24-5.57,0.4-8.34,0.49
			c22.93-20.87,37.34-50.96,37.34-84.43c0-9.46-1.15-18.66-3.33-27.44c0.59-0.63,1.16-1.28,1.72-1.94
			C267.5,242.41,299.32,239.94,320.47,258.06z"/>
		<linearGradient id="SVGID_2_" gradientUnits="userSpaceOnUse" x1="151.877" y1="111.2153" x2="314.7067" y2="111.2153">
			<stop  offset="0" style="stop-color:#4CA0A2"/>
			<stop  offset="1" style="stop-color:#92FFC0"/>
		</linearGradient>
		<path class="st2" d="M313.54,140.07c2.6,4.94,0.72,11.07-4.23,13.68c-4.54,2.4-10.06,0.99-12.96-3.09l-0.06-0.09
			c-13.55-18.99-32.65-33.24-53.73-40.47c-13.13-4.62-26.94-6.44-40.44-5.68c-13.85-14.12-31.01-24.97-50.23-31.3
			c6-1.72,12.1-3.04,18.23-3.96c14.52-2.25,29.29-2.14,43.62,0.07c7.15,1.15,14.18,2.84,21.04,4.99c6.83,2.24,13.45,4.99,19.82,8.17
			C280.04,95.16,300.74,115.84,313.54,140.07z"/>
		<linearGradient id="SVGID_3_" gradientUnits="userSpaceOnUse" x1="76.2555" y1="321.488" x2="250.9929" y2="321.488">
			<stop  offset="0" style="stop-color:#00BECF"/>
			<stop  offset="1" style="stop-color:#92FFC0"/>
		</linearGradient>
		<path class="st3" d="M247.66,265.49c2.18,8.78,3.33,17.98,3.33,27.44c0,33.47-14.41,63.57-37.34,84.43
			c-14.42,0.55-28.83-0.77-42.78-3.9c-16.63-3.72-32.55-10.06-47.06-18.46c-3.66-2.07-7.15-4.42-10.62-6.75
			c-3.4-2.45-6.82-4.88-10.02-7.58c-3.27-2.58-6.33-5.44-9.39-8.24c-2.96-2.93-5.91-5.86-8.64-8.97c-3.14-3.49-6.1-7.1-8.88-10.84
			c11.47,3.47,23.64,5.32,36.24,5.32c30.14,0,57.8-10.62,79.44-28.33c6.1-0.04,12.11-0.79,17.93-2.21
			C224.76,283.86,237.98,276,247.66,265.49z"/>
		<linearGradient id="SVGID_4_" gradientUnits="userSpaceOnUse" x1="35.7237" y1="216.9073" x2="175.1662" y2="77.4648">
			<stop  offset="1.887480e-07" style="stop-color:#F252ED"/>
			<stop  offset="1" style="stop-color:#4CA0A2"/>
		</linearGradient>
		<path class="st4" d="M151.88,73.11c19.22,6.33,36.38,17.18,50.23,31.3c-8.09,0.44-16.07,1.84-23.74,4.1
			c-20.47,5.98-38.58,18.14-51.08,33.99c-9.4,11.8-15.77,25.65-18.72,39.87c-26.08,6.66-48.57,22.29-63.95,43.43
			c-0.67-12.44,0.13-24.93,2.44-37.09c5.81-31.1,21.49-59.55,43.64-80.63C108.15,91.38,129.4,79.53,151.88,73.11z"/>
		<linearGradient id="SVGID_5_" gradientUnits="userSpaceOnUse" x1="44.6234" y1="250.1697" x2="191.9338" y2="250.1697">
			<stop  offset="0" style="stop-color:#511280"/>
			<stop  offset="1" style="stop-color:#81FFEF"/>
		</linearGradient>
		<path class="st5" d="M160.82,283.79c10.08,4.02,20.7,5.94,31.12,5.84c-21.64,17.71-49.3,28.33-79.44,28.33
			c-12.6,0-24.77-1.85-36.24-5.32c-7.08-9.44-13.02-19.62-17.83-30.2c-8.12-17.98-12.76-37.29-13.81-56.63
			c15.39-21.14,37.88-36.77,63.95-43.43c-0.99,4.76-1.59,9.59-1.81,14.38c-0.92,19.13,4.31,38.15,14.15,53.58
			C130.75,265.82,144.93,277.46,160.82,283.79z"/>
	</g>
</g>
</svg>
