<?xml version="1.0" encoding="utf-8"?>
<!-- Generator: Adobe Illustrator 23.1.1, SVG Export Plug-In . SVG Version: 6.00 Build 0)  -->
<svg version="1.1" id="Layer_1" xmlns="http://www.w3.org/2000/svg" xmlns:xlink="http://www.w3.org/1999/xlink" x="0px" y="0px"
	 viewBox="0 0 297.14 93.89" style="enable-background:new 0 0 297.14 93.89;" xml:space="preserve">
<style type="text/css">
	.st0{fill:#FFFFFF;}
	.st1{fill:#66ADE3;}
	.st2{fill:url(#Path_553_1_);}
	.st3{fill:url(#Path_554_1_);}
	.st4{fill:none;}
	.st5{fill:#008277;}
	.st6{opacity:0.95;fill:url(#SVGID_1_);enable-background:new    ;}
	.st7{fill:#9DA1A4;}
	.st8{fill:#04181E;}
	.st9{fill:#003341;}
	.st10{fill:#D2EEF7;}
	.st11{fill:#9BCBDB;}
	.st12{fill:#CAEDF6;}
	.st13{fill:#C7ECF9;}
	.st14{fill:#C1E6F4;}
	.st15{fill:#003343;}
	.st16{fill:#97CADB;}
	.st17{fill:#D1EEF7;}
	.st18{fill:#CCEEF9;}
	.st19{fill:#C7EDF8;}
	.st20{fill:#C2E9F7;}
	.st21{fill:#BCE5F2;}
	.st22{fill:#9DCFDF;}
	.st23{fill:#90C3D2;}
	.st24{fill:#326171;}
	.st25{fill:#92C3D2;}
	.st26{fill:#6393A3;}
	.st27{fill:#114757;}
	.st28{fill:#497D8B;}
	.st29{fill:#356774;}
	.st30{fill:#C7EBF6;}
	.st31{fill:#9CCDDD;}
	.st32{fill:#9CCEDC;}
	.st33{fill:#C2EAF5;}
	.st34{fill:#9DD0DD;}
	.st35{fill:#9ACDDC;}
	.st36{fill:#90C3D4;}
	.st37{fill:#90C4D5;}
	.st38{fill:#BFE8F6;}
	.st39{fill:#8EC2D2;}
	.st40{fill:#7EB1C0;}
	.st41{fill:#346978;}
	.st42{fill:#80B3C5;}
	.st43{fill:#8AC1D0;}
	.st44{fill:#81B5C4;}
	.st45{fill:#7AAEBC;}
	.st46{fill:#84B8C7;}
	.st47{fill:#80B4C2;}
	.st48{fill:#89BDCC;}
	.st49{fill:#407482;}
	.st50{fill:#7EB1BF;}
	.st51{fill:#87BECC;}
	.st52{fill:#7EAFBF;}
	.st53{fill:#6798A8;}
	.st54{fill:#7BACBC;}
	.st55{fill:#568A9B;}
	.st56{fill:#6698A7;}
	.st57{fill:#78AAB9;}
	.st58{fill:#6091A1;}
	.st59{fill:#699BAA;}
	.st60{fill:#75A7B7;}
	.st61{fill:#003546;}
	.st62{fill:#023440;}
	.st63{fill:#C2E7F4;}
	.st64{fill:#013849;}
	.st65{fill:#214F5D;}
	.st66{fill:#BBE6F5;}
	.st67{fill:#0E4455;}
	.st68{fill:#154A5B;}
	.st69{fill:#104557;}
	.st70{fill:#255A6C;}
	.st71{fill:#255C6D;}
	.st72{fill:#003541;}
	.st73{fill:#C5E9F6;}
	.st74{fill:#80B3C1;}
	.st75{fill:#78A9B8;}
	.st76{fill:#6597A8;}
	.st77{fill:url(#SVGID_4_);}
	.st78{fill:#15213B;}
	.st79{fill:#15213B;stroke:#15213B;stroke-width:0.4252;stroke-miterlimit:10;}
	.st80{fill-rule:evenodd;clip-rule:evenodd;fill:url(#Path_1_);}
	.st81{fill-rule:evenodd;clip-rule:evenodd;fill:url(#Path-Copy_1_);}
	.st82{fill-rule:evenodd;clip-rule:evenodd;fill:url(#Path-Copy-2_1_);}
	.st83{fill:#F43052;}
	.st84{fill:#12A3E4;}
</style>
<symbol  id="gt_logo" viewBox="-1442.5 -509.62 2884.99 1019.24">
	<path class="st0" d="M598.83,155.6c-16.98,0-31.6,6.05-43.8,18.22c-12.1,12.2-18.22,26.63-18.22,43.32
		c0,25.48,12.8,45.23,38.54,59.43c28.03,7.58,50.64,2.61,67.65-14.81c11.93-11.57,18.55-27.56,18.28-44.18
		c0-17.2-6.05-31.85-18.16-43.64c-11.52-11.86-27.43-18.43-43.95-18.16L598.83,155.6z M-399.06-316.43h-46.28
		c-19.97,0-36.18,16.15-36.18,36.15v25.8c-49.05-51.18-105.11-76.76-167.22-76.76c-71.98,0-131.86,26.69-179.96,80.07
		c-47.78,53.41-71.66,120.14-71.66,200.22c0,81.54,23.89,149.6,71.98,204.04c48.41,53.45,109.57,80.14,183.46,80.14
		c58.54,0,113.23-23.76,164.03-71.35v51.09c0,24.75,20.19,44.91,44.91,44.91h79.12V-275c0-22.87-18.57-41.47-41.47-41.47
		L-399.06-316.43z M-516.05,75.71c-28.16,31.47-65.07,47.14-110.84,47.14c-42.78,0-78.26-16.24-106.38-48.73
		c-27.46-32.17-41.15-73.89-41.15-125.11c0-48.09,14.01-88.23,42.23-120.72c28.67-32.17,64.02-48.41,106.7-48.41
		c44.91,0,81.54,15.93,109.89,47.78c28.28,32.49,42.36,73.89,42.36,123.9s-14.01,91.41-42.2,123.9L-516.05,75.71z M-900.59-226.23
		v-52.87c0.04-20.58-16.62-37.29-37.2-37.33c-0.02,0-0.04,0-0.06,0h-48.86c-20.58,0-37.27,16.68-37.27,37.27v0v23.09
		c-44.59-50.13-100.59-75.17-167.85-75.17c-76.76,0-138.62,28.89-185.37,86.63c-43.57,54.47-65.29,120.72-65.29,198.62
		c0,80.07,23.41,146.83,70.23,200.22c46.44,52.71,106.06,78.99,178.81,78.99c63.7,0,120.4-25.03,169.45-75.1v74.59
		c0,110.84-45.23,166.26-135.69,166.26c-49.05,0-86.32-16.69-112.12-50.01c-7.18-9.5-12.67-20.17-16.24-31.53
		c-6.12-17.61-22.76-29.38-41.41-29.3h-46.15c-23.67,0-41.18,22.3-35.2,45.13c12.74,48.73,37.42,88.29,74.21,118.8
		c46.02,38.38,104.69,57.55,175.98,57.55c84.47,0,150.85-27.81,199.07-83.35c25.64-28.92,42.81-63.45,51.6-103.71
		c2.93-14.65,5.22-31.53,6.85-50.77c1.66-19.17,2.45-41.41,2.45-66.63v-77.4c-34.59-49.69-51.92-109.25-51.92-178.37
		c0-67.84,17.33-126.45,51.92-175.18L-900.59-226.23z M-1056.88,71.38c-27.39,34.4-64.72,51.6-111.92,51.6
		c-47.14,0-84.09-16.88-110.84-50.96c-24.46-30.9-36.72-70.71-36.72-119.44c0-49.37,12.26-89.5,36.76-120.72
		c27.07-34.72,64.02-51.92,110.84-51.92c43.86,0,79.85,15.93,108.04,47.78c27.77,31.21,41.72,72.62,41.72,124.54
		c0,48.73-12.68,88.55-37.9,119.76L-1056.88,71.38z M125.37-315.96v-0.51h-255.92v-156.64c0-20.16-16.31-36.5-36.47-36.5h-50.01
		c-20.38,0-36.95,16.56-36.95,36.95v156.2h-52.65v115.17h52.65v459.1h70.45c29.24,0,52.97-23.7,52.97-53v-406.1H-3.95
		c9.89-19,22.14-36.67,36.44-52.62c26.12-28.67,57.01-49.37,92.69-62.11L125.37-315.96z M755.22-509.61
		c-21.98,0-40.77,7.87-56.47,23.57c-15.73,15.73-23.63,34.4-23.63,55.96c0,22.68,7.9,41.85,23.63,57.59
		c15.67,15.73,34.72,23.57,57.01,23.57s41.15-7.87,56.5-23.57c15.93-15.73,23.57-34.72,23.57-57.01c0-22.3-7.68-41.25-23.6-56.54
		C797.3-501.43,776.66-509.96,755.22-509.61z M780.16-255.98h-44.69c-23.06,0-41.72,18.63-41.72,41.66v392.09
		c9.4,11.15,14.01,24.21,14.01,39.18s-4.65,28.35-14.01,39.5v21.98h79.37c24.33,0,44.05-19.43,44.05-43.95v-453.27
		c0-20.48-16.56-37.04-37.01-37.04V-255.98z M1360.16-180.27c-55.58-54.47-123.26-81.7-202.89-81.7
		c-79.37,0-146.67,27.07-201.94,81.22c-55.17,54.08-82.81,119.76-82.81,196.84c0,81.98,27.07,150.02,81.22,204.16
		c54.15,54.78,121.22,82.24,201.3,82.24c80.77,0,148.97-26.88,204.58-80.58c55.23-54.15,82.88-121.29,82.88-201.3
		c0-79.44-27.39-146.36-82.3-200.85L1360.16-180.27z M1272.99,145.66c-28.92,31.05-67.43,46.5-115.71,46.5
		c-47.97,0-86.54-15.61-115.78-47.14c-28.54-31.02-42.81-73.26-42.81-126.64c0-49.75,14.65-90.33,43.95-121.77
		s67.4-47.14,114.66-47.14c47.78,0,86.44,15.7,115.68,47.14c28.86,31.09,43.32,72.62,43.32,124.47c0,51.92-14.46,93.39-43.32,124.54
		V145.66z"/>
	<path class="st0" d="M171.26,124.13C146,98.2,131.77,63.29,128.46,19.34h353.8c16.14,0,29.31-12.91,29.62-29.05
		c0-88.13-22.61-157.03-68-206.81c-45.74-50.1-107.88-75.17-186.49-75.17c-77.88,0-140.4,25.8-187.6,77.4
		C22.96-162.05-0.41-93.64-0.41-9.17c0,85.17,24.14,153.62,72.4,205.12c33.44,35.77,74.85,58.99,123.9,69.75
		c20.74,5.08,42.04,7.48,63.38,7.13c87.91,1.82,164.35,3.6,251.94,5.41v-12.87c-10.83-11.69-16.24-25.8-16.24-42.23
		c0-15.93,5.51-29.75,16.56-41.57v-15.61c-69.34-1.59-237.29-3.19-243.88-3.19c-39.5,0-71.86-12.74-97.05-38.22L171.26,124.13z
		 M154.22-122.72c7.96-12.04,17.2-22.36,27.71-30.96c22.27-17.63,49.95-27.03,78.35-26.6c65.93,0,107.34,32.9,124.54,98.74H136.7
		c4.14-15.38,9.87-29.08,17.52-41.15V-122.72z"/>
</symbol>
<g>
	
		<use xlink:href="#gt_logo"  width="2884.99" height="1019.24" x="-1442.5" y="-509.62" transform="matrix(0.0621 0 0 0.0621 207.5703 46.9461)" style="overflow:visible;"/>
	<path class="st83" d="M46.95,0c-0.22,0-0.54,0.11-0.65,0.32L0.32,46.3c-0.43,0.43-0.43,0.97,0,1.4L46.3,93.57
		c0.32,0.43,0.97,0.43,1.4,0L93.68,47.7c0.43-0.43,0.43-0.97,0-1.4L66.7,19.32c-0.43-0.43-0.97-0.43-1.4,0L38.31,46.3
		c-0.22,0.22-0.43,0.32-0.65,0.32c-0.22,0-0.54-0.11-0.65-0.32l-0.86-0.86c-0.22-0.22-0.43-0.32-0.65-0.32
		c-0.54,0-0.97,0.43-0.97,0.97v11.66c0,0.54,0.43,0.97,0.97,0.97h11.44c0.54,0,0.97-0.43,0.97-0.97c0-0.22-0.11-0.54-0.32-0.76
		c-0.43-0.43-0.43-0.97,0-1.4L60,43.17c0.43-0.43,0.43-0.97,0-1.4l-1.08-1.08c-0.43-0.32-0.43-0.97,0-1.4
		c0.22-0.22,0.43-0.32,0.76-0.32h11.66c0.54,0,0.97,0.43,0.97,0.97v11.66c0,0.54-0.43,0.97-0.97,0.97c-0.22,0-0.54-0.11-0.65-0.32
		l-0.76-0.76c-0.22-0.22-0.43-0.32-0.65-0.32s-0.54,0.11-0.65,0.32L47.7,72.42c-0.43,0.43-0.97,0.43-1.4,0L20.51,46.84
		c-0.43-0.43-0.43-0.97,0-1.4L56.01,9.93c0.43-0.43,0.43-0.97,0-1.4L47.7,0.22C47.49,0.11,47.16,0,46.95,0z"/>
</g>
</svg>
