<?xml version="1.0" encoding="utf-8"?>
<!-- Generator: Adobe Illustrator 23.1.1, SVG Export Plug-In . SVG Version: 6.00 Build 0)  -->
<svg version="1.1" id="Layer_1" xmlns="http://www.w3.org/2000/svg" xmlns:xlink="http://www.w3.org/1999/xlink" x="0px" y="0px"
	 viewBox="0 0 285.15 46.17" style="enable-background:new 0 0 285.15 46.17;" xml:space="preserve">
<style type="text/css">
	.st0{fill:#FFFFFF;}
	.st1{fill:#66ADE3;}
	.st2{fill:url(#Path_553_1_);}
	.st3{fill:url(#Path_554_1_);}
	.st4{fill:none;}
	.st5{fill:#008277;}
	.st6{opacity:0.95;fill:url(#SVGID_1_);enable-background:new    ;}
	.st7{fill:#9DA1A4;}
	.st8{fill:#04181E;}
	.st9{fill:#003341;}
	.st10{fill:#D2EEF7;}
	.st11{fill:#9BCBDB;}
	.st12{fill:#CAEDF6;}
	.st13{fill:#C7ECF9;}
	.st14{fill:#C1E6F4;}
	.st15{fill:#003343;}
	.st16{fill:#97CADB;}
	.st17{fill:#D1EEF7;}
	.st18{fill:#CCEEF9;}
	.st19{fill:#C7EDF8;}
	.st20{fill:#C2E9F7;}
	.st21{fill:#BCE5F2;}
	.st22{fill:#9DCFDF;}
	.st23{fill:#90C3D2;}
	.st24{fill:#326171;}
	.st25{fill:#92C3D2;}
	.st26{fill:#6393A3;}
	.st27{fill:#114757;}
	.st28{fill:#497D8B;}
	.st29{fill:#356774;}
	.st30{fill:#C7EBF6;}
	.st31{fill:#9CCDDD;}
	.st32{fill:#9CCEDC;}
	.st33{fill:#C2EAF5;}
	.st34{fill:#9DD0DD;}
	.st35{fill:#9ACDDC;}
	.st36{fill:#90C3D4;}
	.st37{fill:#90C4D5;}
	.st38{fill:#BFE8F6;}
	.st39{fill:#8EC2D2;}
	.st40{fill:#7EB1C0;}
	.st41{fill:#346978;}
	.st42{fill:#80B3C5;}
	.st43{fill:#8AC1D0;}
	.st44{fill:#81B5C4;}
	.st45{fill:#7AAEBC;}
	.st46{fill:#84B8C7;}
	.st47{fill:#80B4C2;}
	.st48{fill:#89BDCC;}
	.st49{fill:#407482;}
	.st50{fill:#7EB1BF;}
	.st51{fill:#87BECC;}
	.st52{fill:#7EAFBF;}
	.st53{fill:#6798A8;}
	.st54{fill:#7BACBC;}
	.st55{fill:#568A9B;}
	.st56{fill:#6698A7;}
	.st57{fill:#78AAB9;}
	.st58{fill:#6091A1;}
	.st59{fill:#699BAA;}
	.st60{fill:#75A7B7;}
	.st61{fill:#003546;}
	.st62{fill:#023440;}
	.st63{fill:#C2E7F4;}
	.st64{fill:#013849;}
	.st65{fill:#214F5D;}
	.st66{fill:#BBE6F5;}
	.st67{fill:#0E4455;}
	.st68{fill:#154A5B;}
	.st69{fill:#104557;}
	.st70{fill:#255A6C;}
	.st71{fill:#255C6D;}
	.st72{fill:#003541;}
	.st73{fill:#C5E9F6;}
	.st74{fill:#80B3C1;}
	.st75{fill:#78A9B8;}
	.st76{fill:#6597A8;}
	.st77{fill:url(#SVGID_4_);}
	.st78{fill:#15213B;}
	.st79{fill:#15213B;stroke:#15213B;stroke-width:0.4252;stroke-miterlimit:10;}
	.st80{fill-rule:evenodd;clip-rule:evenodd;fill:url(#Path_1_);}
	.st81{fill-rule:evenodd;clip-rule:evenodd;fill:url(#Path-Copy_1_);}
	.st82{fill-rule:evenodd;clip-rule:evenodd;fill:url(#Path-Copy-2_1_);}
	.st83{fill:#F43052;}
	.st84{fill:#12A3E4;}
</style>
<g id="_x37_VnQgO_00000049195239906621987540000010298542299834806199_">
	<g>
		<path class="st0" d="M285.15,1.17c-5.86,8.17-10.94,16.86-16.52,25.22c-0.88,1.32-0.82,2.7-0.82,4.13c0,4.74,0,9.48,0,14.41
			c-3.18,0.94-6.27,0.33-9.83,0.45c0-3.86-0.24-7.43,0.06-10.95c0.39-4.55-0.98-8.33-3.53-12.04c-3.99-5.81-7.67-11.84-11.43-17.81
			c-0.74-1.17-1.88-2.18-1.91-3.9c3.65,0,7.2,0,11.03,0c3.47,5.74,6.95,11.5,10.72,17.74c3.75-6.09,7.31-11.87,11.15-18.11
			c3.62,0,7.34,0,11.07,0C285.15,0.59,285.15,0.88,285.15,1.17z"/>
		<path class="st0" d="M204.85,0.71c11.24,0,22.23,0,33.41,0c1,2.74,0.49,5.53,0.34,8.72c-7.96,0-15.72,0-23.63,0
			c-0.64,3.05-0.29,5.76-0.3,8.95c6.92,0,13.79,0,20.8,0c0,3.16,0,5.81,0,8.85c-6.95,0-13.69,0-20.65,0c0,3.21,0,6.03,0,9.25
			c7.86,0,15.76,0,23.87,0c0.63,3.01,0.18,5.69,0.36,8.65c-11.46,0-22.69,0-34.2,0C204.85,30.5,204.85,15.86,204.85,0.71z"/>
		<path class="st0" d="M9.82,0.69c0,6.03,0,11.6,0,17.42c6.08,0,11.8,0,17.86,0c0.72-5.7-0.06-11.42,0.48-17.32c3.22,0,6.19,0,9.5,0
			c0,14.67,0,29.4,0,44.51c-3.06,0.12-6.16,0.26-9.68-0.18c0-5.79,0-11.5,0-17.47c-6.13,0-11.84,0-18,0c0,5.78,0,11.47,0,17.49
			C6.47,45.6,3.37,45.43,0,45.26C0,30.5,0,15.87,0,0.98C2.96,0.06,6.07,0.61,9.82,0.69z"/>
		<path class="st0" d="M132.32,45.29c0-15.05,0-29.67,0-44.53c3.2,0,6.2,0,9.67,0c0.67,5.59-0.06,11.32,0.43,17.29
			c5.87,0,11.7,0,17.75,0c0.65-5.66-0.01-11.27,0.42-17c3.15-1.09,6.24-0.28,9.53-0.52c0,15.04,0,29.67,0,44.59
			c-3.09,0.56-6.17,0.18-9.68,0.21c0-6.04,0-11.73,0-17.68c-6.14,0-11.85,0-17.87,0c-0.75,5.68,0.03,11.41-0.48,17.38
			C138.96,45.78,135.83,45.32,132.32,45.29z"/>
		<path class="st0" d="M42.36,45.26C48.8,30.21,55.12,15.43,61.51,0.5c3.07,0,6.06,0,9.41,0c6.26,14.63,12.59,29.4,19.1,44.61
			c-3.64,0-6.74,0-10.14,0c-1.87-2.6-2.49-6.09-4.31-9.33c-6.09,0-12.27,0-18.79,0c-2.02,2.63-2.42,6.39-4.5,9.47
			C49.17,45.26,46.01,45.26,42.36,45.26z M66.07,12.18c-1.87,5.2-4.2,9.35-5.49,14.42c3.89-0.27,7.28,0.37,11.12-0.5
			C69.88,21.6,68.15,17.32,66.07,12.18z"/>
		<path class="st0" d="M90.76,38.83c2.02-2.4,3.77-4.48,5.74-6.82c3.47,2.27,6.8,4.52,10.9,5.11c1.89,0.27,3.72,0.36,5.58-0.22
			c1.78-0.55,3.18-1.39,3.42-3.42c0.24-2.05-0.89-3.3-2.63-4c-1.73-0.7-3.54-1.23-5.32-1.8c-2.2-0.71-4.44-1.3-6.61-2.08
			c-7.03-2.54-9.47-5.98-9.19-12.82c0.24-6.01,4.08-10.82,10.46-12.13c7.86-1.62,15.22-0.24,21.97,5.09
			c-1.67,2.42-3.26,4.73-4.93,7.15c-2.35-1.09-4.54-2.14-6.75-3.12c-2.32-1.03-4.79-1.13-7.25-0.76c-1.85,0.28-3.28,1.29-3.63,3.23
			c-0.36,2.03,0.86,3.35,2.56,4.05c2.13,0.87,4.36,1.52,6.58,2.15c2.64,0.75,5.29,1.49,7.77,2.69c4.42,2.13,6.99,5.6,7.07,10.53
			c0.08,5.07-1.73,9.34-6.37,11.96c-5.34,3.02-11.05,3.06-16.86,1.71C98.7,44.25,94.58,42.31,90.76,38.83z"/>
		<path class="st0" d="M200.24,0.53c-7.03,6.99-13.66,13.58-20.56,20.44c-2.38-1.26-4.12-3.94-6.82-6.45
			c4.54-4.48,8.99-8.87,13.45-13.26c0.8-0.79,1.83-0.73,2.85-0.73C192.73,0.53,196.32,0.53,200.24,0.53z"/>
		<path class="st1" d="M172.81,32.08c2.78-2.43,4.94-4.31,6.65-5.8c6.14,6.14,12.67,12.69,19.06,19.09c-2.94,0-6.75-0.02-10.56,0.01
			c-1.1,0.01-1.92-0.47-2.67-1.2C181.27,40.26,177.23,36.36,172.81,32.08z"/>
	</g>
</g>
</svg>
