<?xml version="1.0" encoding="utf-8"?>
<!-- Generator: Adobe Illustrator 23.1.1, SVG Export Plug-In . SVG Version: 6.00 Build 0)  -->
<svg version="1.1" id="Layer_1" xmlns="http://www.w3.org/2000/svg" xmlns:xlink="http://www.w3.org/1999/xlink" x="0px" y="0px"
	 viewBox="0 0 450.04 58.17" style="enable-background:new 0 0 450.04 58.17;" xml:space="preserve">
<style type="text/css">
	.st0{fill:#FFFFFF;}
	.st1{fill:#66ADE3;}
	.st2{fill:url(#Path_553_1_);}
	.st3{fill:url(#Path_554_1_);}
	.st4{fill:none;}
	.st5{fill:#008277;}
	.st6{opacity:0.95;fill:url(#SVGID_1_);enable-background:new    ;}
	.st7{fill:#9DA1A4;}
	.st8{fill:#04181E;}
	.st9{fill:#003341;}
	.st10{fill:#D2EEF7;}
	.st11{fill:#9BCBDB;}
	.st12{fill:#CAEDF6;}
	.st13{fill:#C7ECF9;}
	.st14{fill:#C1E6F4;}
	.st15{fill:#003343;}
	.st16{fill:#97CADB;}
	.st17{fill:#D1EEF7;}
	.st18{fill:#CCEEF9;}
	.st19{fill:#C7EDF8;}
	.st20{fill:#C2E9F7;}
	.st21{fill:#BCE5F2;}
	.st22{fill:#9DCFDF;}
	.st23{fill:#90C3D2;}
	.st24{fill:#326171;}
	.st25{fill:#92C3D2;}
	.st26{fill:#6393A3;}
	.st27{fill:#114757;}
	.st28{fill:#497D8B;}
	.st29{fill:#356774;}
	.st30{fill:#C7EBF6;}
	.st31{fill:#9CCDDD;}
	.st32{fill:#9CCEDC;}
	.st33{fill:#C2EAF5;}
	.st34{fill:#9DD0DD;}
	.st35{fill:#9ACDDC;}
	.st36{fill:#90C3D4;}
	.st37{fill:#90C4D5;}
	.st38{fill:#BFE8F6;}
	.st39{fill:#8EC2D2;}
	.st40{fill:#7EB1C0;}
	.st41{fill:#346978;}
	.st42{fill:#80B3C5;}
	.st43{fill:#8AC1D0;}
	.st44{fill:#81B5C4;}
	.st45{fill:#7AAEBC;}
	.st46{fill:#84B8C7;}
	.st47{fill:#80B4C2;}
	.st48{fill:#89BDCC;}
	.st49{fill:#407482;}
	.st50{fill:#7EB1BF;}
	.st51{fill:#87BECC;}
	.st52{fill:#7EAFBF;}
	.st53{fill:#6798A8;}
	.st54{fill:#7BACBC;}
	.st55{fill:#568A9B;}
	.st56{fill:#6698A7;}
	.st57{fill:#78AAB9;}
	.st58{fill:#6091A1;}
	.st59{fill:#699BAA;}
	.st60{fill:#75A7B7;}
	.st61{fill:#003546;}
	.st62{fill:#023440;}
	.st63{fill:#C2E7F4;}
	.st64{fill:#013849;}
	.st65{fill:#214F5D;}
	.st66{fill:#BBE6F5;}
	.st67{fill:#0E4455;}
	.st68{fill:#154A5B;}
	.st69{fill:#104557;}
	.st70{fill:#255A6C;}
	.st71{fill:#255C6D;}
	.st72{fill:#003541;}
	.st73{fill:#C5E9F6;}
	.st74{fill:#80B3C1;}
	.st75{fill:#78A9B8;}
	.st76{fill:#6597A8;}
	.st77{fill:url(#SVGID_4_);}
	.st78{fill:#15213B;}
	.st79{fill:#15213B;stroke:#15213B;stroke-width:0.4252;stroke-miterlimit:10;}
	.st80{fill-rule:evenodd;clip-rule:evenodd;fill:url(#Path_1_);}
	.st81{fill-rule:evenodd;clip-rule:evenodd;fill:url(#Path-Copy_1_);}
	.st82{fill-rule:evenodd;clip-rule:evenodd;fill:url(#Path-Copy-2_1_);}
	.st83{fill:#F43052;}
	.st84{fill:#12A3E4;}
</style>
<g>
	<path class="st0" d="M72.34,14.99v16.7H55.87V17.14c0-1.19-0.96-2.15-2.15-2.15h-5.56v39.79c0,1.19,0.96,2.15,2.15,2.15h5.56V38.42
		h16.47v16.36c0,1.19,0.96,2.15,2.15,2.15h5.56V17.14c0-1.19-0.96-2.15-2.15-2.15H72.34z"/>
	<path class="st0" d="M104.67,24.88v19.87c0,1.81-0.92,3.52-2.48,4.42c-4.36,2.52-8.88-0.63-8.88-4.78V27.03
		c0-1.19-0.96-2.15-2.15-2.15h-5.58h0V45.1c0,6.51,5.32,11.83,11.83,11.83h3.16c6.51,0,11.83-5.32,11.83-11.83V27.03
		c0-1.19-0.96-2.15-2.15-2.15H104.67z"/>
	<path class="st84" d="M189.95,56.93h5.56V28.79c0-1.19-0.96-2.15-2.15-2.15h-5.56v28.14C187.8,55.97,188.76,56.93,189.95,56.93"/>
	<path class="st84" d="M191.65,23.59c2.38,0,4.3-1.93,4.3-4.3c0-2.37-1.93-4.3-4.3-4.3c-2.38,0-4.3,1.93-4.3,4.3
		C187.35,21.66,189.28,23.59,191.65,23.59"/>
	<path class="st0" d="M132.56,24.86L132.56,24.86c-8.08,0-14.7,5.78-14.7,13.87v4.37c0,8.08,6.62,13.83,14.7,13.83
		c8.08,0,14.7-5.75,14.7-13.83v-4.37C147.26,30.64,140.65,24.86,132.56,24.86 M139.52,43.62c0,3.82-3.13,6.37-6.95,6.37
		c-3.82,0-6.95-2.55-6.95-6.37v-5.46c0-3.82,3.13-6.37,6.95-6.37c3.82,0,6.95,2.55,6.95,6.37V43.62z"/>
	<path class="st84" d="M167.55,24.86L167.55,24.86c-2.53,0-4.91,0.56-6.99,1.59V17.1c0-1.19-0.96-2.15-2.15-2.15h-5.56V43.1
		c0,8.08,6.61,13.83,14.7,13.83h0c8.08,0,14.7-5.75,14.7-13.83v-4.37C182.24,30.64,175.63,24.86,167.55,24.86 M174.5,43.62
		c0,3.82-3.13,6.37-6.95,6.37c-3.82,0-6.95-2.55-6.95-6.37v-5.46c0-3.82,3.13-6.37,6.95-6.37c3.82,0,6.95,2.55,6.95,6.37V43.62z"/>
	<path class="st0" d="M24.91,17.9c0-8.35-4.07-15.53-7.16-17.87c-0.01-0.01-0.24-0.13-0.22,0.2c0,0,0,0.01,0,0.01
		C17.27,16.37,9.03,20.74,4.5,26.62C-5.95,40.21,3.77,55.1,13.67,57.86c5.54,1.54-1.28-2.73-2.16-11.74
		C10.45,35.23,24.91,26.92,24.91,17.9"/>
	<path class="st84" d="M29.66,23.39c-0.06-0.04-0.15-0.07-0.22,0.03c-0.17,2.03-2.24,6.37-4.87,10.36
		c-8.91,13.52-3.83,20.04-0.98,23.54c1.66,2.03,0,0,4.14-2.08c0.32-0.16,8.09-4.52,8.93-14.44C37.48,31.21,31.71,25.15,29.66,23.39"
		/>
	<path class="st0" d="M277.08,33.73c-0.55-1.74-1.42-3.25-2.53-4.51c-1.11-1.27-2.51-2.28-4.15-3c-1.64-0.72-3.56-1.09-5.71-1.09
		c-2.5,0-4.71,0.43-6.57,1.29c-1.85,0.86-3.42,2.03-4.64,3.49c-1.22,1.45-2.14,3.18-2.73,5.14c-0.58,1.93-0.87,4.03-0.87,6.25
		c0,2.26,0.3,4.36,0.91,6.26c0.61,1.93,1.6,3.63,2.92,5.05c1.33,1.42,3.04,2.53,5.07,3.31c2.01,0.77,5.2,1.23,7.96,0.86
		c5.02-0.66,7.22-2.57,8.71-4.58c2.64-3.56,1.88-4.17,1.88-4.17h-5.78c-0.66,0-2.01,2.7-6.28,2.7c-2.92,0-4.06-0.46-5.51-1.79
		c-1.32-1.21-2.08-3.13-2.25-5.71h19.69c0.55,0,0.68-0.35,0.7-0.89C278.02,40.12,278.14,37.05,277.08,33.73 M270.71,37.56h-13.05
		c0.32-1.95,0.99-3.5,2-4.62c1.12-1.25,2.71-1.85,4.86-1.85c1.07,0,2,0.19,2.76,0.57c0.77,0.38,1.4,0.9,1.89,1.52
		c0.5,0.65,0.89,1.42,1.16,2.29C270.53,36.13,270.66,36.83,270.71,37.56"/>
	<path class="st0" d="M421.87,33.73c-0.55-1.74-1.42-3.25-2.53-4.51c-1.11-1.27-2.51-2.28-4.15-3c-1.64-0.72-3.56-1.09-5.71-1.09
		c-2.5,0-4.71,0.43-6.57,1.29c-1.85,0.86-3.42,2.03-4.64,3.49c-1.22,1.45-2.14,3.18-2.73,5.14c-0.58,1.93-0.87,4.03-0.87,6.25
		c0,2.26,0.3,4.36,0.91,6.26c0.61,1.93,1.6,3.63,2.92,5.05c1.33,1.42,3.04,2.53,5.07,3.31c2.01,0.77,5.2,1.23,7.96,0.86
		c5.02-0.66,7.22-2.57,8.71-4.58c2.64-3.56,1.88-4.17,1.88-4.17h-5.78c-0.66,0-2.01,2.7-6.28,2.7c-2.92,0-4.06-0.46-5.51-1.79
		c-1.32-1.21-2.08-3.13-2.26-5.71h19.69c0.55,0,0.68-0.35,0.7-0.89C422.81,40.12,422.93,37.05,421.87,33.73 M415.5,37.56h-13.05
		c0.32-1.95,0.99-3.5,2-4.62c1.12-1.25,2.71-1.85,4.86-1.85c1.07,0,2,0.19,2.76,0.57c0.77,0.38,1.4,0.9,1.89,1.52
		c0.51,0.65,0.89,1.42,1.16,2.29C415.32,36.13,415.45,36.83,415.5,37.56"/>
	<path class="st0" d="M359.45,24.84v19.89c0,1.81-0.92,3.52-2.49,4.42c-4.37,2.52-8.89-0.63-8.89-4.78V26.99
		c0-1.19-0.96-2.15-2.15-2.15h-5.59v20.24c0,6.51,5.33,11.84,11.84,11.84h3.17c6.51,0,11.84-5.33,11.84-11.84V26.99
		c0-1.19-0.96-2.15-2.15-2.15H359.45z"/>
	<path class="st0" d="M448.06,41.92c-1.27-1.43-3.55-2.73-6.97-3.99c-3.16-1.24-4.25-1.95-4.61-2.26c-0.49-0.42-0.73-1.03-0.73-1.84
		c0-0.8,0.33-1.39,1.07-1.89c0.83-0.57,1.96-0.86,3.36-0.86c2.51,0,4.78,0.64,6.75,1.89l1.06,0.67l0.1-0.01
		c0.15-0.01,0.49-0.1,0.56-0.71v-5.43c0-0.26-0.24-0.88-0.84-1.13c-2.93-1.23-5.68-1.55-7.49-1.53h0c-3.26,0.06-6.06,0.89-8.31,2.47
		c-2.47,1.74-3.72,4.08-3.72,6.98c0,2.01,0.56,3.76,1.66,5.19c1.09,1.42,3.3,2.78,6.75,4.15c2.54,0.93,4.22,1.73,4.99,2.36
		c0.62,0.51,0.91,1.11,0.91,1.89c0,0.77-0.2,1.33-0.65,1.76c-0.74,0.73-2.17,1.06-4.22,1.02c-5.01-0.12-8.7-2.61-8.76-2.65
		l-0.22-0.09L428.59,48c-0.23,0.13-0.26,0.45-0.26,0.71v5.71l0.01,0.09c0.08,0.27,0.27,0.48,0.52,0.6c2.38,1.19,5.19,1.8,8.36,1.8
		c3.67,0,6.73-0.83,9.08-2.46c2.47-1.72,3.73-4.1,3.73-7.08C450.04,45.23,449.38,43.4,448.06,41.92"/>
	<path class="st0" d="M334.69,56.91v-4.86c0-1.15-0.93-2.08-2.08-2.08c-1.16,0-2.63,0.01-3.86,0.01c-3.15,0-4.95-1.57-4.95-5.65
		V32.04h10.89v-4.86c0-1.15-0.93-2.08-2.08-2.08h-8.82v-8.07c0-1.15-0.93-2.08-2.08-2.08h-5.67v30.31c0,7.34,3.84,11.65,11.77,11.65
		c0.09,0,0.27,0,0.27,0H334.69z"/>
	<path class="st0" d="M383.9,25.13c-7.99,0-11.2,5.8-11.2,11.87v17.72c0,1.22,0.99,2.2,2.2,2.2h5.39V38.34
		c0-2.96,0.77-4.77,2.22-5.7c1.14-0.9,3.37-1.52,7.69,0.13v-5.12C390.2,26.69,388.57,25.13,383.9,25.13"/>
	<path class="st0" d="M297.89,25.44c-2.91,0-6.14,0.7-6.67,2.19v-0.71c0-1.07-0.87-1.94-1.94-1.94h-5.87v29.99
		c0,1.07,0.87,1.94,1.94,1.94h5.81V39.47c0-5.42,3.14-7.24,5.53-7.24c3.36,0,6.1,2,6.1,7.01v15.74c0,1.07,0.87,1.94,1.94,1.94h5.76
		V38.9C310.49,30.17,305.82,25.44,297.89,25.44"/>
	<path class="st0" d="M240.16,14.95l-6.25,19.65c-1.58,4.96-3.08,9.7-4,13.11c-0.94-3.83-2.46-8.79-3.82-13.25l-5.3-17.39
		c-0.38-1.26-1.55-2.12-2.86-2.12h-6.68l13.79,41.97h9.44l14.24-41.97H240.16z"/>
</g>
</svg>
