<?xml version="1.0" encoding="utf-8"?>
<!-- Generator: Adobe Illustrator 23.1.1, SVG Export Plug-In . SVG Version: 6.00 Build 0)  -->
<svg version="1.1" id="Layer_1" xmlns="http://www.w3.org/2000/svg" xmlns:xlink="http://www.w3.org/1999/xlink" x="0px" y="0px"
	 viewBox="0 0 335.92 96.64" style="enable-background:new 0 0 335.92 96.64;" xml:space="preserve">
<style type="text/css">
	.st0{fill:#FFFFFF;}
	.st1{fill:#66ADE3;}
	.st2{fill:url(#Path_553_1_);}
	.st3{fill:url(#Path_554_1_);}
	.st4{fill:none;}
	.st5{fill:#008277;}
	.st6{opacity:0.95;fill:url(#SVGID_1_);enable-background:new    ;}
	.st7{fill:#9DA1A4;}
	.st8{fill:#04181E;}
	.st9{fill:#003341;}
	.st10{fill:#D2EEF7;}
	.st11{fill:#9BCBDB;}
	.st12{fill:#CAEDF6;}
	.st13{fill:#C7ECF9;}
	.st14{fill:#C1E6F4;}
	.st15{fill:#003343;}
	.st16{fill:#97CADB;}
	.st17{fill:#D1EEF7;}
	.st18{fill:#CCEEF9;}
	.st19{fill:#C7EDF8;}
	.st20{fill:#C2E9F7;}
	.st21{fill:#BCE5F2;}
	.st22{fill:#9DCFDF;}
	.st23{fill:#90C3D2;}
	.st24{fill:#326171;}
	.st25{fill:#92C3D2;}
	.st26{fill:#6393A3;}
	.st27{fill:#114757;}
	.st28{fill:#497D8B;}
	.st29{fill:#356774;}
	.st30{fill:#C7EBF6;}
	.st31{fill:#9CCDDD;}
	.st32{fill:#9CCEDC;}
	.st33{fill:#C2EAF5;}
	.st34{fill:#9DD0DD;}
	.st35{fill:#9ACDDC;}
	.st36{fill:#90C3D4;}
	.st37{fill:#90C4D5;}
	.st38{fill:#BFE8F6;}
	.st39{fill:#8EC2D2;}
	.st40{fill:#7EB1C0;}
	.st41{fill:#346978;}
	.st42{fill:#80B3C5;}
	.st43{fill:#8AC1D0;}
	.st44{fill:#81B5C4;}
	.st45{fill:#7AAEBC;}
	.st46{fill:#84B8C7;}
	.st47{fill:#80B4C2;}
	.st48{fill:#89BDCC;}
	.st49{fill:#407482;}
	.st50{fill:#7EB1BF;}
	.st51{fill:#87BECC;}
	.st52{fill:#7EAFBF;}
	.st53{fill:#6798A8;}
	.st54{fill:#7BACBC;}
	.st55{fill:#568A9B;}
	.st56{fill:#6698A7;}
	.st57{fill:#78AAB9;}
	.st58{fill:#6091A1;}
	.st59{fill:#699BAA;}
	.st60{fill:#75A7B7;}
	.st61{fill:#003546;}
	.st62{fill:#023440;}
	.st63{fill:#C2E7F4;}
	.st64{fill:#013849;}
	.st65{fill:#214F5D;}
	.st66{fill:#BBE6F5;}
	.st67{fill:#0E4455;}
	.st68{fill:#154A5B;}
	.st69{fill:#104557;}
	.st70{fill:#255A6C;}
	.st71{fill:#255C6D;}
	.st72{fill:#003541;}
	.st73{fill:#C5E9F6;}
	.st74{fill:#80B3C1;}
	.st75{fill:#78A9B8;}
	.st76{fill:#6597A8;}
	.st77{fill:url(#SVGID_4_);}
	.st78{fill:#15213B;}
	.st79{fill:#15213B;stroke:#15213B;stroke-width:0.4252;stroke-miterlimit:10;}
	.st80{fill-rule:evenodd;clip-rule:evenodd;fill:url(#Path_1_);}
	.st81{fill-rule:evenodd;clip-rule:evenodd;fill:url(#Path-Copy_1_);}
	.st82{fill-rule:evenodd;clip-rule:evenodd;fill:url(#Path-Copy-2_1_);}
	.st83{fill:#F43052;}
	.st84{fill:#12A3E4;}
</style>
<g>
	<g>
		<linearGradient id="SVGID_1_" gradientUnits="userSpaceOnUse" x1="-0.5688" y1="48.3189" x2="76.492" y2="48.3189">
			<stop  offset="0" style="stop-color:#7F581A"/>
			<stop  offset="0.5484" style="stop-color:#FCCF5F"/>
			<stop  offset="0.5996" style="stop-color:#F6CA5D"/>
			<stop  offset="0.6676" style="stop-color:#E5BC56"/>
			<stop  offset="0.7449" style="stop-color:#CAA44B"/>
			<stop  offset="0.8293" style="stop-color:#A3833B"/>
			<stop  offset="0.9181" style="stop-color:#735927"/>
			<stop  offset="1" style="stop-color:#3F2D12"/>
		</linearGradient>
		<path style="fill:url(#SVGID_1_);" d="M0,7.62v49.49c0,4.68,1.3,9.26,3.78,13.22c4.47,7.13,14.02,17.53,34.09,26.18
			c0.08,0.1,0.16,0.14,0.24,0.11c0,0,0,0,0,0c0,0,0,0,0,0c0.08,0.04,0.16,0,0.24-0.1c20.17-8.64,29.78-19.03,34.28-26.16
			c2.51-3.97,3.82-8.58,3.82-13.28V7.62L38.11,0L0,7.62z"/>
		<g>
			<path class="st78" d="M3.62,48.49v8.63c0,4.02,1.12,7.93,3.23,11.3c4.12,6.58,12.85,16.04,31.06,24.17V48.49H3.62z"/>
			<polygon class="st78" points="38.11,3.69 38.11,48.49 72.83,48.49 72.83,10.59 			"/>
		</g>
		<g>
			<g>
				<path class="st79" d="M24.82,16.34v0.46H21.8v22.42h3.02v0.46H14.03v-0.46h3.02V16.8h-3.02v-0.46H24.82z"/>
			</g>
		</g>
		<g>
			<path class="st79" d="M62.2,60.91c-0.57-2.14-1.42-3.81-2.56-5s-2.66-1.78-4.56-1.75c-1.51,0-2.72,0.29-3.64,0.87
				c-0.92,0.58-1.62,1.33-2.11,2.26c-0.49,0.93-0.81,1.99-0.97,3.18c-0.15,1.19-0.23,2.4-0.23,3.62v2.85c0,1.99,0.13,3.66,0.39,5.02
				c0.26,1.36,0.67,2.45,1.23,3.28c0.56,0.83,1.28,1.42,2.16,1.79c0.88,0.36,1.94,0.54,3.16,0.54c1,0,1.8-0.18,2.39-0.54
				c0.59-0.36,1.04-0.85,1.36-1.48c0.32-0.62,0.52-1.36,0.61-2.21s0.13-1.78,0.13-2.79V69.3H56.2v-0.46h10.13v0.46H64.2v7.51h-0.59
				c-0.04-0.26-0.17-0.45-0.38-0.57c-0.21-0.12-0.44-0.18-0.7-0.18c-0.52,0-1.02,0.1-1.49,0.31c-0.47,0.21-0.98,0.43-1.52,0.67
				c-0.55,0.24-1.17,0.46-1.88,0.67c-0.71,0.21-1.57,0.31-2.57,0.31c-1.6,0-3.14-0.31-4.62-0.93c-1.49-0.62-2.79-1.47-3.92-2.56
				c-1.13-1.08-2.03-2.35-2.71-3.82c-0.68-1.46-1.02-3.05-1.02-4.75c0-1.86,0.38-3.54,1.13-5.05s1.72-2.8,2.9-3.87
				c1.18-1.07,2.5-1.9,3.95-2.48c1.45-0.58,2.88-0.87,4.28-0.87c0.65,0,1.29,0.07,1.9,0.2c0.61,0.13,1.18,0.27,1.7,0.41
				c0.52,0.14,0.99,0.28,1.41,0.41c0.42,0.13,0.77,0.2,1.05,0.2c0.31,0,0.52-0.05,0.65-0.15c0.13-0.1,0.25-0.28,0.36-0.54h0.56v6.69
				H62.2z"/>
		</g>
	</g>
	<g>
		<path class="st0" d="M93.89,43.45c-0.07,0-0.07-0.84,0-0.84h2.99c0.07,0,0.14-0.04,0.14-0.14V19.45c0-0.11-0.07-0.14-0.14-0.14
			h-2.99c-0.07,0-0.07-0.85,0-0.85h11.35c0.07,0,0.07,0.85,0,0.85h-3c-0.14,0-0.21,0.03-0.21,0.14v23.01c0,0.11,0.07,0.14,0.21,0.14
			h3c0.07,0,0.07,0.84,0,0.84H93.89z"/>
		<path class="st0" d="M129.43,43.45h-18.92c-0.07,0-0.07-0.84,0-0.84h3c0.07,0,0.14-0.04,0.14-0.14V19.45
			c0-0.11-0.07-0.14-0.14-0.14h-3c-0.07,0-0.07-0.85,0-0.85h11.35c0.07,0,0.07,0.85,0,0.85h-2.99c-0.07,0-0.14,0.03-0.14,0.14v23.01
			c0,0.11,0.07,0.14,0.14,0.14h2.22c5.07,0,7.68-4.48,7.68-8.07c0-0.03,0.78-0.03,0.78,0v8.81
			C129.54,43.41,129.5,43.45,129.43,43.45z"/>
		<path class="st0" d="M153.09,43.45h-18.92c-0.07,0-0.07-0.84,0-0.84h2.99c0.07,0,0.14-0.04,0.14-0.14V19.45
			c0-0.11-0.07-0.14-0.14-0.14h-2.99c-0.07,0-0.07-0.85,0-0.85h11.35c0.07,0,0.07,0.85,0,0.85h-3c-0.07,0-0.14,0.03-0.14,0.14v23.01
			c0,0.11,0.07,0.14,0.14,0.14h2.22c5.07,0,7.68-4.48,7.68-8.07c0-0.03,0.77-0.03,0.77,0v8.81
			C153.2,43.41,153.16,43.45,153.09,43.45z"/>
		<path class="st0" d="M177.18,19.31c-0.07,0-0.14,0.03-0.14,0.14v16.6c0,4.86-2.47,8-8.1,8c-5,0-8.6-2.25-8.6-7.5V19.45
			c0-0.11-0.07-0.14-0.18-0.14h-2.96c-0.07,0-0.07-0.85,0-0.85h11.31c0.07,0,0.07,0.85,0,0.85h-2.96c-0.18,0-0.25,0.03-0.25,0.14
			v17.09c0,4.05,0.95,6.34,4.51,6.34c4.44,0,6.38-2.75,6.38-6.84v-16.6c0-0.11-0.07-0.14-0.21-0.14h-3.17c-0.07,0-0.07-0.85,0-0.85
			h7.36c0.07,0,0.07,0.85,0,0.85H177.18z"/>
		<path class="st0" d="M194.43,44.04c-2.22,0-4.37-1.44-5.53-1.44c-0.99,0-1.76,0.7-1.83,1.34c-0.07,0.11-0.81,0.11-0.81,0v-8.81
			c0-0.11,0.81-0.11,0.81,0c0,2.82,2.99,8.1,7.33,8.1c3.88,0,5.32-2.11,5.32-4.4c0-3.45-1.94-3.77-7.12-5.74
			c-3.13-1.2-5.6-2.96-5.6-7.15c0-4.76,3.13-8.07,6.52-8.07c2.18,0,2.18,0.95,4.09,0.95c0.95,0,1.3-0.46,1.37-0.85
			c0-0.11,0.78-0.11,0.78,0v6.91c0,0.07-0.78,0.07-0.78,0c0-3.35-2.29-6.17-5.43-6.17c-2.68,0-4.19,1.66-4.19,4.05
			c0,2.54,1.76,3.42,5.95,5.04c4.33,1.69,7.01,3.28,7.01,7.58C202.32,39.46,199.68,44.04,194.43,44.04z"/>
		<path class="st0" d="M205.62,43.45c-0.07,0-0.07-0.84,0-0.84h3c0.07,0,0.14-0.04,0.14-0.14V19.45c0-0.11-0.07-0.14-0.14-0.14h-3
			c-0.07,0-0.07-0.85,0-0.85h11.35c0.07,0,0.07,0.85,0,0.85h-2.99c-0.14,0-0.21,0.03-0.21,0.14v23.01c0,0.11,0.07,0.14,0.21,0.14
			h2.99c0.07,0,0.07,0.84,0,0.84H205.62z"/>
		<path class="st0" d="M233.48,44.04c-5.99,0-10.89-5.85-10.89-13.07c0-7.01,4.58-13.11,10.89-13.11c6.06,0,10.92,5.85,10.92,13.11
			C244.41,38.2,239.54,44.04,233.48,44.04z M236.9,19.98c-0.88-0.95-2.04-1.27-3.42-1.27c-1.34,0-2.47,0.32-3.35,1.27
			c-1.51,1.62-2.01,5.11-2.01,10.99c0,6.76,0.53,9.3,2.01,10.96c0.92,0.99,2.01,1.3,3.35,1.3c1.37,0,2.5-0.28,3.42-1.3
			c1.44-1.62,1.97-4.19,1.97-10.96C238.87,25.09,238.38,21.6,236.9,19.98z"/>
		<path class="st0" d="M269.97,19.31c-0.14,0-0.21,0.03-0.21,0.14V43.9c0,0.11-0.74,0.14-0.84,0l-14.97-23.99v22.55
			c0,0.11,0,0.14,0.14,0.14h2.99c0.07,0,0.07,0.84,0,0.84h-7.15c-0.11,0-0.11-0.84,0-0.84h2.92c0.21,0,0.21-0.04,0.21-0.14V19.45
			c0-0.11,0-0.14-0.21-0.14h-2.92c-0.11,0-0.11-0.85,0-0.85h8.56c0.25,0,0.42,0.18,0.7,0.63l9.76,15.89V19.45
			c0-0.11-0.07-0.14-0.21-0.14h-2.92c-0.14,0-0.14-0.85,0-0.85h7.12c0.03,0,0.03,0.85,0,0.85H269.97z"/>
		<path class="st0" d="M277.14,43.45c-0.07,0-0.07-0.84,0-0.84h3c0.07,0,0.14-0.04,0.14-0.14V19.45c0-0.11-0.07-0.14-0.14-0.14h-3
			c-0.07,0-0.07-0.85,0-0.85h11.35c0.07,0,0.07,0.85,0,0.85h-2.99c-0.14,0-0.21,0.03-0.21,0.14v23.01c0,0.11,0.07,0.14,0.21,0.14
			h2.99c0.07,0,0.07,0.84,0,0.84H277.14z"/>
		<path class="st0" d="M302.5,44.04c-2.22,0-4.37-1.44-5.53-1.44c-0.99,0-1.76,0.7-1.83,1.34c-0.07,0.11-0.81,0.11-0.81,0v-8.81
			c0-0.11,0.81-0.11,0.81,0c0,2.82,2.99,8.1,7.33,8.1c3.88,0,5.32-2.11,5.32-4.4c0-3.45-1.94-3.77-7.12-5.74
			c-3.14-1.2-5.6-2.96-5.6-7.15c0-4.76,3.14-8.07,6.52-8.07c2.18,0,2.18,0.95,4.09,0.95c0.95,0,1.3-0.46,1.37-0.85
			c0-0.11,0.77-0.11,0.77,0v6.91c0,0.07-0.77,0.07-0.77,0c0-3.35-2.29-6.17-5.43-6.17c-2.68,0-4.19,1.66-4.19,4.05
			c0,2.54,1.76,3.42,5.95,5.04c4.33,1.69,7.01,3.28,7.01,7.58C310.39,39.46,307.75,44.04,302.5,44.04z"/>
		<path class="st0" d="M335.18,27.42c0-4.09-2.08-8.1-6.98-8.1h-0.32c-0.14,0-0.21,0.03-0.21,0.14v23.01c0,0.11,0.07,0.14,0.21,0.14
			h2.93c0.07,0,0.07,0.84,0,0.84h-11.27c-0.04,0-0.04-0.84,0-0.84h2.96c0.14,0,0.21-0.04,0.21-0.14V19.45
			c0-0.11-0.07-0.14-0.21-0.14h-0.35c-4.86,0-6.76,4.02-6.76,8.1c0,0.07-0.78,0.07-0.78,0v-8.85c0-0.03,0.04-0.11,0.11-0.11h21.14
			c0.07,0,0.07,0.07,0.07,0.11v8.85C335.92,27.48,335.18,27.48,335.18,27.42z"/>
		<path class="st0" d="M182.31,70.8h1.11v5.93c-0.69,0.66-1.54,1.17-2.52,1.52c-0.99,0.35-2.03,0.52-3.14,0.52
			c-1.57,0-2.98-0.35-4.24-1.04c-1.26-0.69-2.25-1.65-2.96-2.87c-0.72-1.22-1.08-2.6-1.08-4.12c0-1.52,0.36-2.9,1.08-4.12
			c0.72-1.22,1.7-2.18,2.96-2.87c1.26-0.7,2.68-1.04,4.27-1.04c1.16,0,2.23,0.18,3.2,0.56c0.98,0.37,1.81,0.91,2.5,1.62l-0.72,0.77
			c-0.67-0.66-1.41-1.14-2.23-1.44c-0.82-0.29-1.73-0.44-2.73-0.44c-1.36,0-2.59,0.3-3.68,0.91c-1.1,0.6-1.95,1.44-2.57,2.5
			c-0.62,1.06-0.93,2.25-0.93,3.56c0,1.3,0.31,2.48,0.94,3.54c0.62,1.06,1.48,1.9,2.57,2.51c1.09,0.61,2.31,0.92,3.67,0.92
			c1.81,0,3.31-0.48,4.5-1.45V70.8z"/>
		<path class="st0" d="M201.19,78.66l-3.78-5.3c-0.56,0.08-1.07,0.12-1.54,0.12h-4.53v5.18h-1.15V62.81h5.68
			c1.99,0,3.55,0.47,4.69,1.41c1.13,0.94,1.7,2.25,1.7,3.93c0,1.25-0.32,2.3-0.96,3.16c-0.64,0.85-1.56,1.45-2.75,1.8l3.96,5.55
			H201.19z M195.87,72.46c1.69,0,2.98-0.37,3.87-1.12c0.89-0.75,1.33-1.81,1.33-3.18c0-1.37-0.44-2.43-1.33-3.18
			c-0.89-0.75-2.18-1.12-3.87-1.12h-4.53v8.6H195.87z"/>
		<path class="st0" d="M210.69,77.72c-1.25-0.7-2.24-1.67-2.95-2.89c-0.71-1.22-1.07-2.59-1.07-4.1c0-1.51,0.36-2.87,1.07-4.1
			c0.72-1.22,1.7-2.18,2.95-2.89c1.25-0.7,2.66-1.05,4.21-1.05s2.96,0.35,4.21,1.04c1.25,0.69,2.24,1.65,2.95,2.87
			c0.72,1.22,1.08,2.6,1.08,4.12c0,1.53-0.36,2.9-1.08,4.12c-0.72,1.22-1.7,2.18-2.95,2.87c-1.25,0.7-2.66,1.04-4.21,1.04
			S211.94,78.42,210.69,77.72z M218.5,76.8c1.07-0.6,1.92-1.44,2.53-2.5c0.62-1.06,0.93-2.25,0.93-3.57c0-1.31-0.31-2.5-0.93-3.56
			c-0.62-1.06-1.46-1.9-2.53-2.5c-1.07-0.6-2.27-0.91-3.6-0.91c-1.33,0-2.53,0.3-3.61,0.91c-1.08,0.6-1.93,1.44-2.54,2.5
			c-0.62,1.06-0.93,2.25-0.93,3.56c0,1.31,0.31,2.5,0.93,3.57c0.62,1.06,1.47,1.9,2.54,2.5c1.08,0.6,2.28,0.91,3.61,0.91
			C216.23,77.71,217.43,77.41,218.5,76.8z"/>
		<path class="st0" d="M230.38,77.03c-1.11-1.16-1.67-2.86-1.67-5.09v-9.12h1.15v9.08c0,1.95,0.44,3.4,1.34,4.37
			c0.89,0.97,2.18,1.45,3.87,1.45c1.68,0,2.96-0.48,3.85-1.45c0.89-0.97,1.33-2.42,1.33-4.37v-9.08h1.15v9.12
			c0,2.23-0.56,3.93-1.68,5.09c-1.12,1.16-2.68,1.74-4.68,1.74C233.04,78.77,231.49,78.19,230.38,77.03z"/>
		<path class="st0" d="M258.87,64.23c1.13,0.94,1.7,2.25,1.7,3.93c0,1.66-0.56,2.96-1.7,3.91s-2.69,1.41-4.69,1.41h-4.53v5.18h-1.15
			V62.81h5.68C256.17,62.81,257.73,63.29,258.87,64.23z M258.05,71.33c0.89-0.74,1.34-1.8,1.34-3.17c0-1.37-0.44-2.43-1.34-3.18
			c-0.89-0.75-2.18-1.12-3.87-1.12h-4.53v8.58h4.53C255.87,72.44,257.16,72.06,258.05,71.33z"/>
	</g>
</g>
</svg>
