<?xml version="1.0" encoding="utf-8"?>
<!-- Generator: Adobe Illustrator 23.1.1, SVG Export Plug-In . SVG Version: 6.00 Build 0)  -->
<svg version="1.1" id="Layer_1" xmlns="http://www.w3.org/2000/svg" xmlns:xlink="http://www.w3.org/1999/xlink" x="0px" y="0px"
	 viewBox="0 0 304.6 118.49" style="enable-background:new 0 0 304.6 118.49;" xml:space="preserve">
<style type="text/css">
	.st0{fill:#FFFFFF;}
	.st1{fill:#66ADE3;}
	.st2{fill:url(#Path_553_1_);}
	.st3{fill:url(#Path_554_1_);}
	.st4{fill:none;}
	.st5{fill:#008277;}
	.st6{opacity:0.95;fill:url(#SVGID_1_);enable-background:new    ;}
	.st7{fill:#9DA1A4;}
	.st8{fill:#04181E;}
	.st9{fill:#003341;}
	.st10{fill:#D2EEF7;}
	.st11{fill:#9BCBDB;}
	.st12{fill:#CAEDF6;}
	.st13{fill:#C7ECF9;}
	.st14{fill:#C1E6F4;}
	.st15{fill:#003343;}
	.st16{fill:#97CADB;}
	.st17{fill:#D1EEF7;}
	.st18{fill:#CCEEF9;}
	.st19{fill:#C7EDF8;}
	.st20{fill:#C2E9F7;}
	.st21{fill:#BCE5F2;}
	.st22{fill:#9DCFDF;}
	.st23{fill:#90C3D2;}
	.st24{fill:#326171;}
	.st25{fill:#92C3D2;}
	.st26{fill:#6393A3;}
	.st27{fill:#114757;}
	.st28{fill:#497D8B;}
	.st29{fill:#356774;}
	.st30{fill:#C7EBF6;}
	.st31{fill:#9CCDDD;}
	.st32{fill:#9CCEDC;}
	.st33{fill:#C2EAF5;}
	.st34{fill:#9DD0DD;}
	.st35{fill:#9ACDDC;}
	.st36{fill:#90C3D4;}
	.st37{fill:#90C4D5;}
	.st38{fill:#BFE8F6;}
	.st39{fill:#8EC2D2;}
	.st40{fill:#7EB1C0;}
	.st41{fill:#346978;}
	.st42{fill:#80B3C5;}
	.st43{fill:#8AC1D0;}
	.st44{fill:#81B5C4;}
	.st45{fill:#7AAEBC;}
	.st46{fill:#84B8C7;}
	.st47{fill:#80B4C2;}
	.st48{fill:#89BDCC;}
	.st49{fill:#407482;}
	.st50{fill:#7EB1BF;}
	.st51{fill:#87BECC;}
	.st52{fill:#7EAFBF;}
	.st53{fill:#6798A8;}
	.st54{fill:#7BACBC;}
	.st55{fill:#568A9B;}
	.st56{fill:#6698A7;}
	.st57{fill:#78AAB9;}
	.st58{fill:#6091A1;}
	.st59{fill:#699BAA;}
	.st60{fill:#75A7B7;}
	.st61{fill:#003546;}
	.st62{fill:#023440;}
	.st63{fill:#C2E7F4;}
	.st64{fill:#013849;}
	.st65{fill:#214F5D;}
	.st66{fill:#BBE6F5;}
	.st67{fill:#0E4455;}
	.st68{fill:#154A5B;}
	.st69{fill:#104557;}
	.st70{fill:#255A6C;}
	.st71{fill:#255C6D;}
	.st72{fill:#003541;}
	.st73{fill:#C5E9F6;}
	.st74{fill:#80B3C1;}
	.st75{fill:#78A9B8;}
	.st76{fill:#6597A8;}
	.st77{fill:url(#SVGID_4_);}
	.st78{fill:#15213B;}
	.st79{fill:#15213B;stroke:#15213B;stroke-width:0.4252;stroke-miterlimit:10;}
	.st80{fill-rule:evenodd;clip-rule:evenodd;fill:url(#Path_1_);}
	.st81{fill-rule:evenodd;clip-rule:evenodd;fill:url(#Path-Copy_1_);}
	.st82{fill-rule:evenodd;clip-rule:evenodd;fill:url(#Path-Copy-2_1_);}
	.st83{fill:#F43052;}
	.st84{fill:#12A3E4;}
</style>
<g>
	<g>
		<path class="st4" d="M0,0h118.49v118.49H0V0z"/>
		<path class="st5" d="M102.52,92.01H50.33C43.95,92,38.78,86.82,38.79,80.43c0-1.99,0.52-3.95,1.5-5.68l25.68-44.98
			c3.25-5.78,10.58-7.83,16.35-4.57c1.91,1.08,3.49,2.66,4.57,4.57l25.68,44.98c3.13,5.59,1.13,12.65-4.45,15.78
			C106.41,91.49,104.48,92,102.52,92.01z"/>
		
			<linearGradient id="SVGID_1_" gradientUnits="userSpaceOnUse" x1="-133.9709" y1="-38.8459" x2="-132.1383" y2="-38.8459" gradientTransform="matrix(31.13 0 0 31.13 4220.2231 1267.1051)">
			<stop  offset="0" style="stop-color:#60F9A0"/>
			<stop  offset="1" style="stop-color:#009076"/>
		</linearGradient>
		<path class="st6" d="M68.72,92.01H16.5c-6.39-0.01-11.56-5.19-11.56-11.57c0-1.99,0.52-3.95,1.5-5.69l25.68-44.98
			c3.25-5.78,10.58-7.83,16.35-4.57c1.91,1.08,3.49,2.66,4.57,4.57l25.69,44.98c6.11,9.79,11.55,17.26,22.83,17.26"/>
	</g>
	<g id="bx434V.tif_1_">
		<g>
			<g>
				<path class="st0" d="M141.08,33.92c3.24,0,6.47,0,9.73,0c6.28,10.43,12.53,20.81,18.88,31.34
					c6.21-10.47,12.37-20.85,18.55-31.26c3.17,0,6.33,0,9.63,0c0,16.79,0,33.57,0,50.41c-3.53,0-7.14,0-10.85,0
					c0-9.92,0-19.82,0-29.72c-0.08-0.03-0.17-0.06-0.25-0.09c-4.87,8.17-9.74,16.34-14.59,24.5c-1.77,0-3.49,0-5.32,0
					c-4.83-7.94-9.69-15.93-14.66-24.1c0,9.9,0,19.62,0,29.45c-3.76,0-7.44,0-11.11,0C141.08,67.61,141.08,50.77,141.08,33.92z"/>
				<path class="st0" d="M281.61,85.41c0.02-0.06,0.01-0.11-0.03-0.15c0.16-0.23,0.41-0.33,0.66-0.31c1.2,0.07,2.45-0.39,3.6,0.31
					c-0.04,0.04-0.05,0.09-0.03,0.15C284.41,85.41,283.01,85.41,281.61,85.41z"/>
				<path class="st0" d="M222.79,58.78c-5.9-8.25-11.77-16.46-17.72-24.78c4.53,0,8.89,0,13.33,0c3.81,5.38,7.66,10.79,11.56,16.29
					c3.83-5.5,7.59-10.9,11.35-16.3c4.19,0,8.35,0,12.68,0c-5.88,8.15-11.71,16.23-17.57,24.36c6.25,8.66,12.48,17.31,18.78,26.05
					c-4.6,0-9.06,0-13.55,0c-4.02-5.77-8.04-11.56-12.12-17.42c-4.02,5.88-7.96,11.65-11.92,17.44c-4.45,0-8.88,0-13.48,0
					C210.39,75.83,216.58,67.32,222.79,58.78z"/>
				<path class="st0" d="M285.84,85.26c-1.42,0-2.84,0-4.26,0c-5.95-0.26-11.27-2.21-15.93-5.95c-4.36-3.5-7.22-7.98-8.58-13.37
					c-0.87-3.45-0.9-6.97-0.49-10.5c0.79-6.64,3.89-12.02,9-16.24c4.1-3.39,8.89-5.28,14.17-5.87c5-0.55,9.92-0.21,14.67,1.56
					c3.99,1.49,7.4,3.83,10.17,7.19c-2.51,2.32-4.99,4.61-7.57,7c-2.9-3.28-6.41-5.41-10.83-5.82c-1.21-0.15-2.43-0.13-3.64-0.02
					c-5.04,0.45-9.06,2.71-11.84,6.93c-1.78,2.7-2.45,5.77-2.46,9.02c-0.01,3.69,0.93,7.08,3.11,10.04
					c2.27,3.07,5.38,4.91,9.14,5.67c3.17,0.64,6.28,0.53,9.34-0.56c2.21-0.79,4.14-2.02,5.8-3.67c0.43-0.43,0.83-0.88,1.32-1.41
					c2.57,2.39,5.09,4.71,7.59,7.04C299.61,82.12,293.24,84.78,285.84,85.26z"/>
				<path class="st0" d="M282.55,43.24c1.21-0.22,2.43-0.24,3.64,0.02C284.98,43.25,283.77,43.25,282.55,43.24z"/>
			</g>
		</g>
	</g>
</g>
</svg>
