<?xml version="1.0" encoding="utf-8"?>
<!-- Generator: Adobe Illustrator 23.1.1, SVG Export Plug-In . SVG Version: 6.00 Build 0)  -->
<svg version="1.1" id="Layer_1" xmlns="http://www.w3.org/2000/svg" xmlns:xlink="http://www.w3.org/1999/xlink" x="0px" y="0px"
	 viewBox="0 0 366.82 91.18" style="enable-background:new 0 0 366.82 91.18;" xml:space="preserve">
<style type="text/css">
	.st0{fill:#FFFFFF;}
	.st1{fill:#66ADE3;}
	.st2{fill:url(#Path_553_1_);}
	.st3{fill:url(#Path_554_1_);}
	.st4{fill:none;}
	.st5{fill:#008277;}
	.st6{opacity:0.95;fill:url(#SVGID_1_);enable-background:new    ;}
	.st7{fill:#9DA1A4;}
	.st8{fill:#04181E;}
	.st9{fill:#003341;}
	.st10{fill:#D2EEF7;}
	.st11{fill:#9BCBDB;}
	.st12{fill:#CAEDF6;}
	.st13{fill:#C7ECF9;}
	.st14{fill:#C1E6F4;}
	.st15{fill:#003343;}
	.st16{fill:#97CADB;}
	.st17{fill:#D1EEF7;}
	.st18{fill:#CCEEF9;}
	.st19{fill:#C7EDF8;}
	.st20{fill:#C2E9F7;}
	.st21{fill:#BCE5F2;}
	.st22{fill:#9DCFDF;}
	.st23{fill:#90C3D2;}
	.st24{fill:#326171;}
	.st25{fill:#92C3D2;}
	.st26{fill:#6393A3;}
	.st27{fill:#114757;}
	.st28{fill:#497D8B;}
	.st29{fill:#356774;}
	.st30{fill:#C7EBF6;}
	.st31{fill:#9CCDDD;}
	.st32{fill:#9CCEDC;}
	.st33{fill:#C2EAF5;}
	.st34{fill:#9DD0DD;}
	.st35{fill:#9ACDDC;}
	.st36{fill:#90C3D4;}
	.st37{fill:#90C4D5;}
	.st38{fill:#BFE8F6;}
	.st39{fill:#8EC2D2;}
	.st40{fill:#7EB1C0;}
	.st41{fill:#346978;}
	.st42{fill:#80B3C5;}
	.st43{fill:#8AC1D0;}
	.st44{fill:#81B5C4;}
	.st45{fill:#7AAEBC;}
	.st46{fill:#84B8C7;}
	.st47{fill:#80B4C2;}
	.st48{fill:#89BDCC;}
	.st49{fill:#407482;}
	.st50{fill:#7EB1BF;}
	.st51{fill:#87BECC;}
	.st52{fill:#7EAFBF;}
	.st53{fill:#6798A8;}
	.st54{fill:#7BACBC;}
	.st55{fill:#568A9B;}
	.st56{fill:#6698A7;}
	.st57{fill:#78AAB9;}
	.st58{fill:#6091A1;}
	.st59{fill:#699BAA;}
	.st60{fill:#75A7B7;}
	.st61{fill:#003546;}
	.st62{fill:#023440;}
	.st63{fill:#C2E7F4;}
	.st64{fill:#013849;}
	.st65{fill:#214F5D;}
	.st66{fill:#BBE6F5;}
	.st67{fill:#0E4455;}
	.st68{fill:#154A5B;}
	.st69{fill:#104557;}
	.st70{fill:#255A6C;}
	.st71{fill:#255C6D;}
	.st72{fill:#003541;}
	.st73{fill:#C5E9F6;}
	.st74{fill:#80B3C1;}
	.st75{fill:#78A9B8;}
	.st76{fill:#6597A8;}
	.st77{fill:url(#SVGID_4_);}
	.st78{fill:#15213B;}
	.st79{fill:#15213B;stroke:#15213B;stroke-width:0.4252;stroke-miterlimit:10;}
	.st80{fill-rule:evenodd;clip-rule:evenodd;fill:url(#Path_1_);}
	.st81{fill-rule:evenodd;clip-rule:evenodd;fill:url(#Path-Copy_1_);}
	.st82{fill-rule:evenodd;clip-rule:evenodd;fill:url(#Path-Copy-2_1_);}
	.st83{fill:#F43052;}
	.st84{fill:#12A3E4;}
</style>
<g id="tEVCrd.tif_1_">
	<g>
		<path class="st7" d="M42.91,91.18c-0.01-0.07-0.02-0.13-0.02-0.2c0.21-0.28,0.52-0.39,0.83-0.38c1.58,0.08,3.21-0.45,4.73,0.37
			c-0.02,0.07-0.02,0.14-0.02,0.21C46.59,91.18,44.75,91.18,42.91,91.18z"/>
		<path class="st0" d="M366.82,43.91c-0.08,0-0.17-0.01-0.25-0.01c-0.52-0.93-0.49-1.86-0.04-2.81c0.1-0.02,0.2-0.04,0.29-0.06
			C366.82,41.99,366.82,42.95,366.82,43.91z"/>
		<path class="st8" d="M48.44,90.97c-1.85,0-3.7,0.01-5.56,0.01C21.82,89.61,4.59,74.36,0.75,53.67
			C-3.93,28.44,13.71,3.97,39.11,0.45C64.59-3.09,87.83,14.8,90.83,40.25c2.84,24.05-13.94,46.31-37.87,50.2
			C51.47,90.69,49.95,90.8,48.44,90.97z"/>
		<path class="st0" d="M366.53,41.09c0.01,0.94,0.03,1.87,0.04,2.81c-6.59,0-13.17,0-19.82,0c0-0.93,0-1.79,0-2.71
			c0.83-0.12,1.66-0.17,2.46-0.38c1.4-0.37,1.74-1.06,0.96-2.28c-1.7-2.66-3.49-5.26-5.26-7.87c-0.8-1.19-1.62-2.36-2.51-3.65
			c-1.21,1.12-2.34,2.17-3.46,3.21c0,2.49-0.06,4.92,0.02,7.36c0.08,2.56,0.87,3.3,3.43,3.48c0.23,0.02,0.47,0.05,0.74,0.07
			c0.2,0.9,0.07,1.76,0.09,2.72c-6.02,0-12,0-18.05,0c-0.2-0.83-0.09-1.73-0.05-2.71c0.66-0.05,1.29-0.07,1.91-0.15
			c1.62-0.21,2.34-0.89,2.6-2.49c0.09-0.55,0.11-1.11,0.11-1.67c0.01-6.76,0-13.52,0-20.27c0-0.36,0.01-0.72-0.01-1.08
			c-0.14-2.34-0.88-3.1-3.22-3.33c-0.44-0.04-0.87-0.08-1.35-0.12c-0.16-0.88-0.08-1.75-0.04-2.71c6.12,0,12.21,0,18.41,0
			c0.14,0.87,0.1,1.76,0.03,2.7c-0.64,0.07-1.23,0.11-1.82,0.19c-1.8,0.24-2.66,0.96-2.71,2.77c-0.11,3.55-0.03,7.1-0.03,10.65
			c0.17,0.11,0.29-0.01,0.4-0.12c3.17-2.93,6.34-5.86,9.51-8.79c0.56-0.52,1.05-1.1,1.42-1.77c0.8-1.45,0.37-2.39-1.24-2.7
			c-0.43-0.08-0.87-0.12-1.39-0.19c-0.11-0.92-0.1-1.81,0-2.76c5.1,0,10.16,0,15.27,0c0,0.93,0,1.8,0,2.74
			c-6.22,0.53-9.63,5.39-14.02,9c0.92,1.38,1.8,2.7,2.68,4.01c2.62,3.87,5.23,7.75,7.86,11.61c0.65,0.96,1.42,1.83,2.23,2.66
			C363.05,40.66,364.72,41.04,366.53,41.09z"/>
		<path class="st0" d="M242.58,41.11c-1.8-0.09-3.05-1.06-4.11-2.41c-3-3.81-5.06-8.29-8.64-11.7c0.84-0.39,1.58-0.7,2.29-1.06
			c5.93-3.03,5.73-10.75,1.2-14.24c-1.92-1.48-4.14-2.22-6.56-2.36c-5.95-0.36-11.91-0.12-17.86-0.15c-1.55-0.01-3.1,0-4.71,0v2.82
			c0.47,0.04,0.86,0.06,1.26,0.1c2.65,0.25,3.42,1.07,3.5,3.71c0,0.16,0,0.32,0,0.48c0,6.84,0,13.67-0.01,20.51
			c0,0.6-0.04,1.2-0.15,1.79c-0.31,1.59-0.95,2.18-2.56,2.39c-0.66,0.09-1.34,0.09-2.04,0.14v2.74h18.66c0-0.51,0.03-0.95-0.01-1.38
			c-0.03-0.46,0.17-0.95-0.18-1.37c-0.61-0.04-1.21-0.04-1.8-0.12c-1.67-0.21-2.43-0.79-2.63-2.45c-0.4-3.25-0.11-6.52-0.17-9.72
			c3-0.53,5.14,0.39,6.43,3.1c0.41,0.86,0.95,1.66,1.43,2.5c1.85,3.22,3.58,6.5,5.77,9.49h10.88
			C242.71,42.95,242.71,42.05,242.58,41.11z M226.32,22.76c-1.88,3.34-5.16,2.53-8.23,2.75V12.64c2.44-0.74,6.59,0.18,7.84,1.73
			C227.33,16.1,227.57,20.54,226.32,22.76z"/>
		<path class="st0" d="M275.34,12.39c-4.47-3.39-9.63-4.17-15-3.66c-5.54,0.54-10.33,2.7-13.62,7.46
			c-5.13,7.42-4.19,18.04,2.18,23.67c4,3.53,8.82,4.83,14.72,4.82c0.67,0.02,1.98-0.08,3.29-0.26c7.15-0.96,12.97-6.03,14.81-12.93
			C283.58,24.41,281.04,16.72,275.34,12.39z M271.43,30.37c-0.13,2.08-0.45,4.13-1.26,6.08c-1.36,3.24-3.86,4.77-7.31,4.83
			c-3.43,0.07-5.8-1.55-7.14-4.65c-1.41-3.27-1.51-6.76-1.59-9.95c0.02-3.09,0.16-5.89,0.97-8.59c1.43-4.76,5.15-6.97,9.86-5.84
			c2.7,0.64,4.32,2.47,5.24,4.98C271.75,21.49,271.71,25.93,271.43,30.37z"/>
		<path class="st0" d="M131.64,43.88c0-0.96,0-1.8,0-2.66c0.63-0.27,1.27-0.11,1.89-0.2c1.75-0.23,2.49-0.91,2.73-2.64
			c0.09-0.59,0.12-1.19,0.12-1.79c0.01-6.68,0.01-13.35,0.01-20.03c0-0.12,0-0.24,0-0.36c-0.05-3.25-0.87-4.07-4.16-4.17
			c-0.16,0-0.31-0.02-0.54-0.03c-0.15-0.9-0.14-1.79,0-2.73c9.83,0,19.61,0,29.51,0c0.18,2.96,0.35,5.89,0.53,8.9c-1,0-1.9,0-2.87,0
			c-0.52-1.11-0.91-2.33-1.58-3.42c-0.89-1.47-2.09-2.39-3.88-2.39c-2.59,0-5.17,0-7.81,0c0,3.94,0,7.84,0,11.82
			c1.46,0,2.9,0.09,4.31-0.02c1.58-0.13,2.15-0.74,2.49-2.29c0.13-0.58,0.19-1.17,0.29-1.82c0.9-0.2,1.81-0.08,2.8-0.07
			c0,3.88,0,7.74,0,11.69c-0.88,0-1.77,0-2.75,0c-0.07-0.55-0.11-1.14-0.23-1.72c-0.36-1.71-1.12-2.42-2.85-2.52
			c-1.31-0.08-2.63-0.02-4-0.02c-0.04,0.15-0.11,0.3-0.11,0.44c0.01,3.28-0.01,6.56,0.04,9.83c0.03,1.8,0.64,2.52,2.41,2.89
			c2.34,0.5,4.69,0.44,7.01-0.14c1.65-0.41,2.73-1.6,3.63-2.96c0.97-1.48,1.6-3.12,2.1-4.87c0.92,0,1.83,0,2.72,0
			c0,3.75,0,7.48,0,11.28C152.78,43.88,142.25,43.88,131.64,43.88z"/>
		<path class="st0" d="M124.75,10.4c-1.61-0.75-3.32-1.12-5.09-1.26c-5.31-0.42-10.63-0.12-15.94-0.04c-1.9,0.03-3.81,0-5.76,0V12
			c0.59,0.05,1.13,0.08,1.68,0.14c2.37,0.24,3.14,1.07,3.23,3.45c0.02,0.44,0.01,0.88,0.01,1.32v15.23c0,1.76,0.02,3.52-0.01,5.28
			c-0.05,2.62-0.95,3.52-3.54,3.64c-0.38,0.02-0.8-0.13-1.16,0.18v2.61h18.78v-2.74c-0.66-0.03-1.25-0.04-1.84-0.09
			c-1.92-0.16-2.74-0.79-2.94-2.67c-0.35-3.21-0.08-6.44-0.16-9.76c0.83,0,1.49,0,2.17,0c2.92,0.03,5.84-0.08,8.7-0.75
			c3.93-0.91,6.98-4.13,7.37-7.77C130.71,15.67,128.8,12.28,124.75,10.4z M120.45,19.44c-0.1,4-1.88,5.84-5.86,6.02
			c-0.79,0.04-1.59,0-2.52,0V12.23c5.16-0.61,7.95,1.02,8.36,5.9C120.47,18.56,120.46,19,120.45,19.44z"/>
		<path class="st0" d="M319.88,22.5c-0.8,0-1.63,0-2.52,0c-0.41-1.15-0.74-2.33-1.24-3.45c-1.8-4.1-4.66-6.87-9.39-7.06
			c-3.89-0.15-6.63,1.73-8.03,5.4c-1.09,2.85-1.3,5.84-1.32,8.84c-0.02,2.44,0.1,4.87,0.51,7.28c0.6,3.58,2.44,6.16,5.96,7.27
			c3.53,1.12,6.71,0.3,9.49-2.09c2.04-1.76,3.16-4.09,3.95-6.6c0.14-0.46,0.27-0.92,0.42-1.43c0.91-0.17,1.81-0.1,2.78-0.05
			c0,4.35,0,8.64,0,12.99c-0.94,0-1.84,0-2.75,0c-0.38-1.08-0.65-2.18-1.47-3.18c-4.76,4.39-10.43,4.96-16.43,3.65
			c-3.95-0.86-7.01-3.18-9.36-6.45c-5.28-7.35-4.27-17.65,2.12-24.32c4.85-5.07,16.36-7.07,23.25-0.7c0.55-0.9,0.7-1.94,1.11-2.92
			c0.9,0,1.8,0,2.91,0C319.88,13.97,319.88,18.18,319.88,22.5z"/>
		<path class="st0" d="M201.52,9.29c0,3.28,0,6.51,0,9.8c-0.95,0-1.85,0-2.81,0c-0.72-2.14-0.92-4.62-3.18-5.91
			c-2.14-1.21-4.49-0.72-6.73-0.81c-0.27,0.54-0.17,0.99-0.17,1.42c-0.01,7.4-0.01,14.79,0,22.19c0,0.4,0,0.8,0.02,1.2
			c0.2,3.12,0.93,3.81,4.05,3.89c0.31,0.01,0.62,0.03,1,0.06c0,0.92,0,1.78,0,2.64c-0.92,0.22-16.71,0.31-19.07,0.1
			c0-0.88,0-1.77,0-2.73c0.74-0.05,1.45-0.05,2.16-0.14c1.66-0.21,2.39-0.95,2.63-2.61c0.06-0.39,0.08-0.8,0.08-1.2
			c0.01-8.04,0-16.07,0-24.11c0-0.19-0.02-0.38-0.03-0.57c-6.58-0.45-8.64-0.29-9.87,6.59c-0.86,0-1.73,0-2.7,0
			c0-3.25,0-6.49,0-9.82C178.42,9.29,189.94,9.29,201.52,9.29z"/>
		<path class="st0" d="M136.67,53.34h-5.17c-3.52,8.94-7.03,17.87-10.6,26.95c1.32,0,2.43-0.04,3.54,0.01
			c1.18,0.05,1.85-0.48,2.23-1.58c0.58-1.69,1.23-3.36,1.85-5.04h11.12c0.64,1.73,1.26,3.41,1.87,5.1c0.26,0.72,0.63,1.39,1.43,1.44
			c1.37,0.09,2.74,0.02,4.3,0.02C143.67,71.16,140.17,62.25,136.67,53.34z M129.87,70.02c1.4-3.88,2.77-7.66,4.21-11.62
			c1.43,3.95,2.81,7.74,4.22,11.62H129.87z"/>
		<path class="st0" d="M216.39,53.36h-5.19c-3.52,8.94-7.02,17.85-10.6,26.93c1.31,0,2.42-0.04,3.52,0.01
			c1.17,0.05,1.86-0.45,2.24-1.56c0.58-1.7,1.23-3.37,1.85-5.05h11.13c0.62,1.71,1.24,3.39,1.85,5.07c0.27,0.75,0.67,1.44,1.54,1.49
			c1.34,0.07,2.68,0.02,4.21,0.02C223.39,71.17,219.87,62.23,216.39,53.36z M209.58,70.04c1.41-3.91,2.79-7.73,4.21-11.65
			c1.42,3.91,2.8,7.71,4.23,11.65H209.58z"/>
		<path class="st0" d="M162.17,53.64c-3.99-0.74-8.03-0.18-12.1-0.35v26.94h4.97v-9.41c2.32-0.12,4.52,0.11,6.7-0.25
			c4.61-0.77,7.39-3.85,7.51-8.41C169.39,57.61,166.9,54.52,162.17,53.64z M160.53,66.67c-1.77,0.36-3.56,0.15-5.41,0.19v-9.64
			c1.79-0.02,3.46-0.11,5.13,0.11c2.47,0.34,3.89,1.96,3.96,4.46C164.28,64.37,162.92,66.2,160.53,66.67z"/>
		<path class="st0" d="M118.54,74.02c0.65,0.7,1.39,1.48,2.16,2.31c-1.14,1.58-2.61,2.64-4.34,3.29c-3.62,1.36-7.3,1.42-10.87-0.1
			c-4.75-2.02-6.89-5.93-7.5-10.87c-0.74-5.97,1.85-11.45,6.64-14.07c4.97-2.72,11.82-1.9,15.62,1.88c0.07,0.27-0.14,0.43-0.28,0.61
			c-1.87,2.62-1.65,2.95-4.71,1.22c-5.37-3.03-11.38,0.41-12.09,6.73c-0.26,2.29-0.11,4.55,0.9,6.68c2.2,4.66,8.45,6.16,12.55,3.01
			C117.12,74.33,117.53,73.76,118.54,74.02z"/>
		<path class="st0" d="M194.88,80.24c-1.79,0-3.37,0-5.07,0c0-7.59,0-15.12,0-22.76c-2.74,0-5.36,0-8.08,0c0-1.4,0-2.69,0-4.08
			c7.02,0,14.06,0,21.17,0c0,1.32,0,2.62,0,4.02c-2.66,0-5.28,0-8.02,0C194.88,65.06,194.88,72.59,194.88,80.24z"/>
		<path class="st0" d="M234.73,76.12c3.69,0,7.16,0,10.7,0c0,1.38,0,2.68,0,4.08c-5.17,0-10.34,0-15.6,0c0-8.9,0-17.83,0-26.82
			c1.59,0,3.17,0,4.9,0C234.73,60.89,234.73,68.42,234.73,76.12z"/>
		<path class="st0" d="M178.03,80.24c-1.66,0-3.24,0-4.9,0c0-8.98,0-17.89,0-26.87c1.64,0,3.22,0,4.9,0
			C178.03,62.28,178.03,71.19,178.03,80.24z"/>
		<path class="st9" d="M13.91,73.24c0.01-0.84-0.28-1.59-0.85-2.17c-1.76-1.78-2.76-4.05-4.05-6.14c-2.1-3.4-2.88-7.27-4.14-10.98
			c-0.31-0.92,0.09-1.91-0.27-2.81c-0.23-0.56-1.25,0.12-1.25-0.8c1.48-0.1,2.91,0.03,4.34,0.57c1.13,0.43,2.25-0.2,3.33-0.42
			c0.39-0.94-0.14-1.83,0.16-2.73c0.82-0.52,1.74-0.41,2.62-0.2c0.77,0.18,0.79,0.92,0.85,1.56c0.29,3.05,1.14,5.94,2.33,8.75
			c1.59,3.78,3.93,7.02,6.87,9.85c0.25,0.24,0.51,0.49,0.77,0.74c-6.18-5.65-9.42-12.74-10.17-20.91c-0.67-0.27-1.2-0.18-1.71-0.21
			c-0.51-0.02-1.05,0.05-1.53-0.29c-0.38-0.53-0.35-1.09-0.08-1.65c1.02-0.5,5.61-0.54,6.99,0c0.21,8.48,3.45,15.66,10.06,21.19
			c-6.62-5.62-9.86-12.86-10.02-21.53c-2.38-0.3-4.66,0.12-6.73-0.23c-0.61-0.5-0.41-1.13-0.79-1.63c-0.9-0.29-1.87-0.2-2.76-0.06
			c-0.47,0.36-0.41,0.88-0.81,1.36c-1.16,0.27-2.42,0.84-3.77,0.12c0.3-0.15,0.59-0.3,0.89-0.45c0.15-0.83,0.08-1.62-0.17-2.41
			c1.22-0.59,2.55-0.54,3.84-0.57c2.99-0.07,5.99-0.02,8.98-0.03c0.48,0,0.96,0.05,1.44-0.08c0.62-0.52,0.49-1.31,0.69-1.98
			c0.41-1.37,0.69-2.72,1.84-3.8c0.72-0.68,1.16-1.72,0.98-2.85c-0.05-0.32-0.04-0.63,0.14-1.15c-1.32,1.14-2.08,2.39-2.1,3.92
			c-0.02,1.85-0.94,3.44-1.27,5.2c-0.11,0.57-0.74,0.69-1.27,0.7c-3.31,0.04-6.63,0.09-9.94-0.03c-0.97-0.04-1.96-0.3-2.85-0.77
			c0.05-0.26,0.1-0.52,0.16-0.84C4.33,39.4,4,39.33,3.71,39.26c-0.19-0.35-0.22-0.63,0.09-0.86c0.53,0.32,1.12,0.52,1.72,0.36
			c2.68-0.71,5.41-0.23,8.11-0.37c0.51-0.03,1.04,0.1,1.54-0.2c0.38-0.42,0.39-1.01,0.58-1.53c0.37-1,0.74-1.9,1.6-2.71
			c0.86-0.82,1.59-2.02,1.44-3.42c-0.07-0.65,0.18-1.18,0.52-1.68c1.11-1.61,2.27-3.19,3.56-4.66c-0.85,0.91-1.72,1.81-2.36,2.87
			c-1.11,1.85-2.85,3.24-3.73,5.24c-0.29,0.67-0.46,1.33-0.52,2.06c-0.11,1.4-0.56,2.71-1.4,3.99c-2.71,0.02-5.42,0.09-8.13-0.05
			c-0.45-0.02-0.93-0.24-1.25-0.64c-0.04-4.08,1.7-7.58,3.5-11.1c1.36-2.65,3.17-4.99,5.05-7.2c2.03-2.38,4.33-4.61,6.97-6.45
			c1.5-1.04,3.09-1.95,4.56-3.04c1.56-1.15,3.51-1.65,5.3-2.42c3.85-1.65,7.92-2.29,12.04-2.62c2.4-0.19,4.88-0.34,7.24,0.04
			c2.23,0.36,4.49,0.67,6.67,1.59c2.4,1.02,4.95,1.74,7.3,2.92c2.7,1.36,5.15,3.09,7.51,4.99c4.27,3.45,7.5,7.76,10.11,12.49
			c2.11,3.81,3.53,7.9,3.97,12.35c0.3,2.97,0.74,5.92,0.64,8.91c-0.1,3.15-0.66,6.19-1.58,9.23c-0.68,2.25-1.68,4.35-2.56,6.49
			c-0.73,1.78-1.85,3.45-2.96,5.09c-1.11,1.65-2.22,3.28-3.71,4.62c-0.32,0.29-0.05,0.82-0.47,1.05c-0.48-0.27-0.95-0.56-1.46-0.77
			c-1.12-0.12-2.04-0.53-2.54-1.65c-0.29-0.65-0.97-0.55-1.55-0.65c-0.55-0.1-1.31-0.12-0.84-1.06c0.67,0,1.08-0.45,1.5-0.88
			c5.06-5.24,8.21-11.44,9.37-18.64c0.1-0.63,0.24-1.25,0.37-1.88c0.17-0.57,0.11-1.15,0.08-1.73c0.01-1.32,0-2.65,0-3.97
			c0.02-0.57,0.11-1.15-0.09-1.71c-0.46-1.53-0.59-3.12-0.98-4.67c-1.3-5.26-3.82-9.85-7.28-13.98c-1.5-1.79-3.27-3.26-5-4.78
			c-0.33-0.31-0.66-0.6-1.03-0.87c-0.46-0.37-0.67-0.96-1.08-1.29c-0.47-0.25-0.91-0.01-1.33-0.09c-0.52-0.17-0.86-0.53-1.07-1.02
			c-0.06-0.76-0.44-1.64,0.7-1.98c1.35,0.23,2.24,1.34,3.48,1.82c0.61,0.02,1.28-0.35,1.74,0.21c0.81,2.37,2.51,3.61,4.9,4.25
			c0.06,1.58,1.09,2.74,2.17,3.76c1.02,0.98,2.1,1.69,2.23,3.37c0.08,0.96,0.88,1.94,1.53,2.8c0.26,0.35,0.74,0.29,1.2,0.73
			c0.39,1.03-0.12,2.35,0.41,3.63c0.51,1.22,1.35,2.17,1.91,3.05c-0.03,0.66-0.4,0.87-0.51,1.21c-0.09,0.4-0.01,0.78,0.11,1.15
			c0.36,1.18,0.08,2.55,1.11,3.52c0.17,0.37,0.18,0.75,0.01,1.13c-0.09,0.17-0.21,0.32-0.33,0.47c-0.44,1.09-0.12,2.23-0.21,3.34
			c-0.24,0.93,0.89,1.54,0.58,2.47c-1.37,1.56-1.68,3.36-1.26,5.33c0.1,0.46,0.14,1-0.2,1.24c-1.24,0.86-1.34,2.3-1.94,3.48
			c-0.11,0.21-0.21,0.43-0.31,0.64c-0.09,0.2-0.2,0.39-0.27,0.65c-0.03,0.21,0.3,0.14,0.33,0.32c0.27,1.05-0.62,1.23-1.31,1.65
			c-0.48,1.43-2.03,2.43-1.83,4.37c-1.72,0.92-2.98,2.41-4.08,3.91c0.01,0.28,0.05,0.39,0.13,0.48c0.17,0.18,0.38,0.29,0.81,0.24
			c1.13-0.97,2.35-2.03,2.87-3.66c0.1-0.31,0.23-0.62,0.49-0.8c1.74-1.25,2.56-3.06,3.12-5.05c0.1-0.36,0.35-0.62,0.54-0.92
			c0.99-1.52,1.7-3.14,1.82-4.98c0.02-0.37,0.07-0.72,0.24-1.04c0.94-1.69,1.11-3.55,1.29-5.42c0.01-0.36-0.01-0.73,0.08-1.09
			c0.05-0.18,0.13-0.35,0.21-0.52c0.32-0.65,0.14-1.34,0.16-2.02c0.03-1.02-0.02-2.04-0.34-3.02c-0.27-0.82,0.06-1.63,0.1-2.45
			c-0.07-0.91,0.43-1.89-0.32-2.72c-1.08-1.74-0.93-3.85-1.71-5.69c-1.26-2.96-2.42-5.96-4.42-8.56c-0.94-1.22-1.59-2.68-2.71-3.78
			c-2.07-2.02-3.9-4.29-6.45-5.84c-1.27-0.78-2.34-1.96-3.73-2.58c-2.64-1.18-5.08-2.79-8.06-3.25c-1.38-0.21-2.7-1-4.14-1.1
			c-2.38-0.17-4.71-0.93-7.12-0.67c-2.14,0.24-4.34,0.03-6.41,0.6C36.63,8.24,34.4,8.5,32.3,9.26c-0.57,0.2-1.14,0.38-1.6,0.8
			c-0.46,0.42-1.02,0.57-1.61,0.74c-1.69,0.52-3.26,1.3-4.51,2.58c-0.23,0.23-0.45,0.47-0.75,0.58c-1.96,0.75-3.4,2.1-4.7,3.72
			c-0.8,0.99-2.09,1.54-2.93,2.58c-0.55,0.69-1.18,1.3-1.37,2.21c-0.08,0.36-0.29,0.65-0.58,0.89c-1.68,1.35-2.7,3.07-3.05,5.2
			c-0.04,0.24-0.12,0.49-0.31,0.64c-1.28,1.03-1.47,2.62-2.06,3.99C8.47,34.05,8.95,35,8.61,35.98c1.21,0.28,2.35,0.21,3.51,0.44
			c0.75-1.68,1.2-3.35,1.91-4.9c2.9-6.3,7.18-11.39,13.09-15.07c0.43-0.27,0.85-0.63,1.43-0.51c0.55,0.27,0.31,0.73,0.27,1.14
			c-0.17,0.75-0.72,1.24-1.26,1.7c-2.02,1.69-2.71,4.08-3.44,6.44c-0.19,0.62-0.08,1.26,0.03,1.9c0.21,1.17,0.61,2.31,0.66,3.52
			c0.04,0.93,0.78,1.44,1.42,1.86c-0.61-2.4-1.06-4.93-1.84-7.41c0.1-0.42,0.35-0.7,0.83-0.64c0.43,0.06,0.73,0.33,0.85,0.75
			c0.17,0.62,0.3,1.26,0.3,1.89c0,1.23,0.38,2.23,1.22,3.13c0.42,0.45,0.83,0.97,1.06,1.56c-0.77,1.11-0.24,2.26-0.25,3.25
			c0.3,0.54,0.87,0.5,1.17,1.02c0.11,0.53-0.05,1.24,0.42,1.77c-0.43,0.87-0.44,1.77-0.8,2.68c-1.19-0.41-1.17-1.82-2.14-2.4
			c-0.61,0.89-0.91,1.73-0.33,2.77c0.57,1.01,0.92,2.12,0.94,3.27c0.19,0.48,0.64-0.04,0.87,0.3c0.61,0.96,0.09,1.87-0.09,2.74
			c-0.49,0.33-0.78,0.06-1.08-0.1c-0.27-0.21-0.34-0.53-0.42-0.84c-0.35-1.54-0.9-2.99-2.06-3.93c-0.14-0.73,0.44-1.1,0.36-1.65
			c-0.12-0.61-0.53-0.94-1.14-1.17c0.11,1.66,0.64,3.22,0.74,4.85c0.06,1.01,1.01,1.69,1.33,2.43c0.46,0.47,0.93,0.05,1.26,0.37
			c0.42,1.26,1.01,2.52,0.83,3.86c-0.19,1.37-0.09,2.68,0.26,3.99c0.15,1.03,0.33,2.06,0.52,3.09c0.55,2.72,0.38,5.55,1.46,8.19
			c0.46,1.12-0.54,2.77-1.89,3.19c-3.34,1.05-6.64,2.24-10.1,2.89c-1.1,0.21-2.16,0.53-3.22,0.9
			C14.82,73.37,14.37,73.57,13.91,73.24z"/>
		<path class="st10" d="M74.09,75.33c-1.76,2.1-3.97,3.67-6.24,5.15c-7.53,4.91-15.81,7.23-24.78,6.78
			c-10.95-0.54-20.34-4.71-28.05-12.58c-0.1-0.24-0.13-0.54,0.12-0.63c0.95-0.33,1.66-1.14,2.66-1.33c3.23-0.61,6.3-1.77,9.46-2.63
			c0.7-0.19,1.34-0.52,1.99-0.83c1-0.47,1.71-0.23,2.12,0.8c0.99,2.48,2.86,4.26,4.73,6.05c0.29,0.28,0.6,0.53,0.82,0.86
			c0.62,0.91,1.38,1.65,2.43,2.05c0.46,0.18,0.85,0.5,0.83,1.06c-0.01,0.54-0.36,0.82-0.83,1.06c-1.06,0.54-1.49,1.36-1.51,2.78
			c0.86,0.39,1.79,0.24,2.68,0.15c0.9-0.09,1.77-0.46,2.7-0.49c0.33-0.01,0.61-0.22,0.79-0.5c0.66-1.04,1.56-0.93,2.53-0.59
			c0.34,0.12,0.67,0.26,0.99,0.44c0.99,0.56,1.94,0.53,2.97,0.03c1.36-0.66,2.77-0.66,4.3-0.52c2.6,0.24,5.42,0.52,7.64-1.11
			c1.48-1.08,3.15-1.81,4.59-2.96c1.79-1.43,3.98-2.33,6.04-3.38C73.43,74.83,73.93,74.69,74.09,75.33z"/>
		<path class="st11" d="M74.09,75.33c-0.42-0.42-0.76-0.16-1.16,0.07c-1.49,0.82-2.98,1.63-4.5,2.4c-0.68,0.35-1.34,0.72-1.83,1.32
			c-0.8,0.99-2.2,0.87-3.1,1.68c-0.19,0.3-0.37,0.61-0.56,0.91c-2.19,1.44-4.72,0.88-7.08,1.26c-0.36,0.06-0.71,0.03-1.05-0.11
			c-1.44-0.59-2.84-0.28-4.13,0.38c-1.19,0.62-2.25,0.62-3.39-0.06c-0.75-0.45-1.57-0.78-2.47-0.61c-0.46,0.39-0.51,1.06-1.18,1.35
			c-2.03-0.05-4.15,1.18-6.38,0.24c0.21-1.24,0.71-2.21,1.32-3.18c0.34-0.07,0.68-0.14,1.04-0.22c0.26-0.26,0.45-0.55,0.34-0.98
			c-0.45-0.68-1.41-0.52-1.93-1.07c-2.04-2.19-4.08-4.39-6.07-6.63c-0.38-0.43-0.63-1.04-0.75-1.61c-0.14-0.68-0.48-1.06-0.95-1.2
			c-4,1.59-7.98,2.78-12.05,3.68c-1.21,0.27-2.2,1.01-3.17,1.74c-0.48-0.4-0.98-0.79-1.12-1.45c4.9-1.41,9.9-2.47,14.72-4.15
			c1.11-0.39,1.45-1.4,1.72-2.33c-1.31-2.82-1.1-5.83-1.62-8.7c0.97,0.52,1.39,1.52,2,2.35c0.28,0.38,0.4,0.87,0.86,1.3
			c0.17-0.56-0.15-1.3,0.71-1.55c1.24,0.53,1.58,1.71,1.77,2.94c0.24,1.5,1.48,2.97,3.07,3.41c0.95-0.62,1.96-1.4,3.31-0.98
			c0.39,0.12,0.57,0.41,0.6,0.74c-0.05,0.6-0.6,0.9-0.71,1.46c0.72,1.06,1.68,0.06,2.48,0.27c0.6,0.21,0.57,0.96,1.09,1.27
			c0.59,0.21,1.21-0.43,1.86,0.03c0.27,0.26,0.3,0.59,0.11,0.94c-0.19,0.21-0.43-0.02-0.61,0.03c-0.24,0.33-0.14,0.7-0.29,1.01
			c-0.86,1.12-1.34,1.19-2.08,0.28c0.09,0.65,0.68,0.7,1.07,0.97c0.72,0.5,1.04,1.09,0.58,1.93c-0.26,0.46-0.34,0.96-0.4,1.48
			c-0.15,1.26-1.21,1.75-2.34,1.11c-0.39-0.22-0.68-0.55-0.97-0.88c-0.77-0.84-1.17-1.99-2.2-2.62c-0.17-0.1-0.17-0.35-0.06-0.58
			c0.41-0.28,0.82,0.18,1.27,0.03c1.11-0.97,1.19-1.63,0.36-3.46c-0.39-0.12-0.48,0.28-0.71,0.42c-0.15,0.16-0.28,0.33-0.48,0.42
			c-0.91-0.03-0.26-0.69-0.44-1.05c-0.4,0.66,0.04,1.16,0.3,1.68c0.34,1.41,0.13,1.62-1.73,1.61c-0.55,0.58-0.87,1.36-1.41,2.12
			c0.99,0.49,1.7,1.21,2.22,2.12c0.3,0.51,0.83,0.73,1.37,0.9c1.45,0.48,2.75,1.28,4.1,1.96c0.32,0.16,0.64,0.34,0.68,0.83
			c-0.41,0.64-1.06,0.84-1.81,0.88c0.37,0.01,0.74,0.06,1.09-0.13c0.93-0.48,1.89-0.36,2.78,0.04c1.6,0.73,3.12,0.95,4.82,0.16
			c1.53-0.71,3.21-0.44,4.83-0.16c3.43,0.6,6.14-0.68,7.94-2.56c3-2.28,6-3.18,8.34-5.25c0.59,0.01,1.18-0.11,1.76,0.08
			c0.32,0.43,1.15,0.22,1.2,0.97C74.68,74.78,74.58,75.32,74.09,75.33z"/>
		<path class="st12" d="M3.32,44.62c1.28,0.12,2.52-0.09,3.8-0.42c0.07-0.4,0.14-0.82,0.22-1.32c1.28,0,2.53,0,3.86,0
			c0.03,0.54,0.06,1.08,0.1,1.73c2.42,0,4.8,0,7.23,0c-0.08,5.34,1.16,10.22,3.84,14.72c1.63,2.74,3.74,5.07,6.17,7.11
			c0.47,0.4,0.47,0.4,0.35,1.1c-3.51-2.65-6.21-5.88-8.13-9.76c-1.93-3.88-2.9-8-2.88-12.41c-2.22,0-4.36,0-6.56,0
			c-0.23,0.52-0.03,1.06-0.12,1.72c1.25,0,2.39,0,3.57,0c0.67,8.81,4.25,16.07,10.84,21.81c-0.62,0.33-0.63,0.34-1.13-0.11
			c-5.69-5.22-9.11-11.63-10.11-19.3c-0.07-0.55-0.15-1.1-0.23-1.74c-0.48,0-0.91,0-1.34,0c-0.44,0-0.87,0-1.47,0
			c0.1,1.03,0.19,2,0.28,3.03c-1.29,0.24-2.54,0.48-3.63,0.68c-0.52-0.03-0.48-0.43-0.62-0.54c-1.36-0.34-2.72-0.14-3.99-0.6
			c0.1-0.24,0.28-0.43,0.54-0.39c1.14,0.15,2.14-0.42,3.22-0.54c0.16-0.39,0.1-0.74,0.03-1.09c-1.24-0.49-2.55-0.59-3.89-0.77
			c1.15-0.72,2.54-0.27,3.69-0.91c0.3-0.24,0.26-0.57,0.1-0.9c-1.21-0.31-2.4-0.54-3.56-0.43C3.17,45.07,3.23,44.85,3.32,44.62z"/>
		<path class="st13" d="M5.48,37.68c3.11,0.79,6.27,0.15,9.52,0.44c0.11-1.57,1.03-2.77,0.97-4.39c-0.04-1.15,0.91-2.34,1.44-3.55
			c0.64-0.1,1.01-0.49,1.32-1.03c1.28-2.17,2.86-4.11,4.77-6c0.1,0.82-0.27,1.24-0.66,1.66c-1.51,1.61-2.77,3.4-3.86,5.2
			c-0.17,0.47,0.3,0.61,0.3,1.07c-0.48,1.05-1.02,2.21-1.47,3.18c-0.31,0.57-0.79,0.24-1.1,0.58c-0.52,1.18-0.81,2.51-1.21,3.85
			c-3.88,0.1-7.73-0.25-11.31,0.54c-0.5-0.33-0.32-0.61-0.4-0.82c0.09-0.21,0.19-0.41,0.28-0.62C4.56,37.75,5.02,37.71,5.48,37.68z"
			/>
		<path class="st14" d="M4.52,40.31c4.54,0.76,9.11,0.3,13.82,0.44c0.04-2.05,1.36-3.75,1.09-6.12c0.42-0.9,0.97-2.09,1.47-3.17
			c0.44-0.37,1.06,0.09,1.24-0.61c-0.06,1.99,0.35,4.05-1.88,5.3c-0.68,1.59-1.02,3.39-1.44,5.25c-4.93,0.16-9.87-0.2-14.79,0.35
			c-0.86-0.09-0.53-0.68-0.51-1.12C3.79,40.24,4.2,40.44,4.52,40.31z"/>
		<path class="st15" d="M40.27,69.11c1.26,2.31,1.16,3.24-0.46,4.44c-0.44,0.01-0.69-0.54-1.18-0.42c-0.01,0.09-0.04,0.23-0.02,0.23
			c1.47,0.43,1.74,1.99,2.7,2.9c0.73,0.69,1.4,1.01,2.37,0.5c0.49-0.83-0.18-2.06,0.92-2.66c-0.1-1.6-2.23-1.57-2.22-3.23
			c0.1-0.22,0.37-0.13,0.69-0.04c0.05,0.33,0.1,0.67,0.16,1.04c0.76,0.26,1.24,0.03,1.55-0.65c0.22-0.14,0.38-0.44,0.84-0.16
			c0.4,0.34,0.16,1,0.38,1.54c0.06,0.24,0.09,0.48,0.11,0.72c0.03,0.15,0.01,0.31,0.12,0.46c0.39,0.14,0.68-0.36,1.19-0.16
			c0.69,0.42,0.09,1.34,0.53,1.92c0.96-1.24,1.72-2.51,1.24-4.19c-0.2-0.69-0.02-1.34,0.7-1.77c-0.26-0.44-0.74-0.88-0.15-1.4
			c0.28-0.23,0.65-0.3,0.89-0.45c0.53-0.57,0.28-1.56,1.35-1.64c-1.27-1.99,0.6-3.01,0.94-4.57c0.99,0.56,0.82,1.31,0.78,2.04
			c0.09-1.15,0.43-2.13,1.51-2.8c0.61-0.38,0.7-1.1,0.43-1.76c-0.16-0.07-0.25-0.05-0.28,0.03c-0.67,2.09-0.68,2.13-2.92,2.03
			c-0.79-0.04-1.22,0.78-1.97,0.67c-0.45-0.4-0.14-0.72,0.06-1.05c0.23-0.29,0.44-0.59,0.47-0.98c0.11-0.51-0.26-1.04,0.05-1.55
			c0.06-0.09,0.13-0.16,0.21-0.23c0.24-0.17,0.48-0.35,0.57-0.65c0.03-0.1,0.05-0.2,0.08-0.3c0.03-0.48-0.21-0.94-0.16-1.42
			c0.05-0.47,0.14-0.93,0.17-1.51c0.97-0.26,1.92-0.09,2.93-0.03c0.41-0.59,0.26-1.55,1.2-1.87c0.86-0.3,1.53,0.23,2.36,0.39
			c0.03-0.49-0.13-0.8-0.47-1.11c-1.75,0.14-3.56,0.59-5.17-0.11c-0.26-0.63-0.12-1.01-0.03-1.4c0.08-0.23,0.2-0.44,0.36-0.62
			c0.37-0.34,0.79-0.57,1.31-0.6c0.3,0,0.56,0.11,0.79,0.3c0.12,0.08,0.24,0.16,0.39,0.17c0.15-0.06,0.19-0.2,0.23-0.34
			c-0.02-0.56,0.54-0.71,0.75-1.1c-0.1-0.32-0.16-0.64,0.14-0.87c0.47-0.37,0.37-0.82,0.21-1.29c-0.08-0.43,0.2-0.74,0.35-1.1
			c0.24-0.85-0.2-1.52-0.49-2.23c-1.17-0.45-2.31,1.68-3.48,0.05c0.4-0.85,1.34-0.86,1.77-1.49c-0.26,0.01-0.55,0.26-0.85-0.04
			c-0.2-0.46,0.41-0.73,0.33-1.18c-1.37-1.09-3.98,0.14-5.16,2.45c-0.04,0.15-0.16,0.35-0.07,0.45c0.96,0.99,0.53,2.43,1.16,3.53
			c0.28,0.49-0.2,0.99-0.09,1.5c0.06,0.22,0.14,0.44,0.2,0.67c0.14,0.88-0.22,1.73-0.17,2.62c0.04,0.75,0.16,1.41,0.7,1.97
			c0.63,0.64,0.85,1.42,0.65,2.27c-0.33,0.49-0.88,0.39-1.3,0.58c-0.38,0.18-0.51,0.55-0.66,0.9c-0.12,0.24-0.2,0.51-0.54,0.64
			c-0.6-0.17-0.84-1.13-1.69-0.92c-0.57,0-1.12-0.12-1.65-0.33c-1.75-0.14-3.5-0.41-5.27-0.32c-0.44,0.16-0.72,0.48-0.93,0.88
			c-0.24,0.44-0.54,0.83-0.72,1.3c-0.24,0.49-0.31,1.1-1.01,1.3c-0.54-0.37-0.35-0.98-0.47-1.49c-0.26-1.15,0.32-2.18,0.6-3.23
			c0.24-0.9,1.36-1.2,2.53-0.95c0.33,0.21,0.17,0.58,0.31,1.01c1.45-0.63,2.95,0.19,4.77-0.21c-1.23-0.96-1.94-2.08-3.2-2.64
			c-1.14-0.51-2.03-1.25-1.99-2.66c0.48-0.45,1.07-0.6,1.57-1.04c0.87,0.78,1.12,2.36,2.67,2.05c0.75-0.15,1.48-0.41,1.74-1.26
			c0.23-0.69,0.19-1.37,0.02-2.06c-0.05-0.17-0.07-0.35-0.09-0.52c0.01-0.96-0.03-1.91-0.47-2.8c-0.12-0.25-0.19-0.53-0.15-0.82
			c0.19-1.36,0.31-2.71-0.54-3.84c0.44-1.28,1.47-1.6,2.45-1.88c1.53-0.44,3.11-0.7,4.64-1.16c0.7-0.21,1.42-0.13,2.12,0.12
			c0.77,0.28,1.56,0.29,2.32,0.16c0.84-0.68,0.97-1.46,0.57-2.38c-0.43-0.99-0.72-2.03-1.24-2.98c-0.21-0.39-0.4-0.84-0.31-1.26
			c0.29-1.43-0.45-2.43-1.28-3.43c-2.2-0.81-2.34-0.96-2.67-2.93c1.2-1.47,2.72-2.62,4.63-3.47c-0.98-1.14-0.52-2.26,0.13-3.4
			c1.16-0.02,1.31,1.06,1.92,1.7c0.42-0.43,0.66-0.92,0.89-1.43c-0.52-1.37-1.73-2.05-2.77-2.9c-0.43-0.35-0.97-0.65-0.61-1.35
			c1.14-0.11,4.47,2.16,4.52,3.09c0.79,0.6,1.64,0.94,2.66,0.75c0.46-0.23,0.93-0.38,1.51-0.1c0.29,0.46,0.61,0.97,0.93,1.49
			c0.31,0.35,0.64,0.67,0.97,1c5.72,4.99,10.06,10.88,12.01,18.34c2.11,8.06,1.4,15.86-2.06,23.45c-1.71,3.76-4.14,6.98-6.95,9.96
			c-0.25,0.26-0.5,0.52-0.89,0.56c-0.31,0.63,0.17,0.66,0.56,0.71c0.27,0.04,0.56,0,0.84,0.01c0.24,0.01,0.47,0.04,0.83,0.07
			c0.38,1.42,1.4,2.15,2.85,2.31c-1.02-0.14-1.86,0.14-2.58,0.92c-0.89,0.96-2.15,1.36-3.27,1.96c-0.94,0.5-2.02,0.75-2.38,1.68
			c-0.53,0.32-0.88,0.04-1.31,0.12c-0.13,0.78-0.73,1.24-1.29,1.76c-0.32,0.19-0.74-0.09-1.02,0.21c-1.75,1.88-4.03,1.55-6.18,1.34
			c-2.28-0.22-4.46-0.34-6.42,0.91c-1.27-0.32-2.48-0.49-3.62-1c-0.78-0.35-1.66-0.39-2.53,0.1c-0.61,0.35-1.34,0.28-2.06-0.34
			c0.99-0.41,2.18,0.25,2.73-1c-1.53-0.61-2.99-1.74-4.74-2.27c-0.55-0.17-1.14-0.34-1.4-0.84c-0.57-1.13-1.39-1.93-2.67-2.27
			c0.8-0.8,1.32-1.61,1.54-2.57c0.61-0.32,1.17,0.1,1.77,0.13c0.57-0.44,0.44-0.95,0.17-1.48c-0.22-0.45,0.31-0.48,0.42-0.75
			c0.04-0.19,0.03-0.4,0.26-0.48C39.88,69.96,39.75,69.06,40.27,69.11z"/>
		<path class="st16" d="M63.26,15.85c0.05,0.1,0.11,0.21,0.17,0.32c-1.38,0.3-2.42-0.33-3.43-1.17c0.18-0.12,0.32-0.22,0.59-0.4
			c-1.7-0.53-2.76-2.03-4.48-2.39c1.22,1.31,2.79,2.25,3.88,3.9c-0.15,0.82-1.05,1.37-1.47,2.47c-0.47-1.03-0.75-1.98-1.79-2.45
			c-0.17,0.66,0.18,1.48-0.68,1.66c0.1,0.91,0.98,1.09,1.21,1.78c-0.43,0.56-1.05,0.17-1.67,0.39c-0.45,0.44-0.72,1.38-1.79,1.1
			c-0.34,0.82-0.98,1.3-1.69,1.74c0.04,0.89,0.49,1.58,0.96,2.29c0.63,0.13,1.26,0.25,1.96,0.39c-0.06,0.95,0.93,1.31,1.21,2.29
			c-0.9,2.01,0.84,3.55,1.36,5.37c0.37,1.29,0.44,2.25-0.77,3.27c-3.98-1.12-7.74-0.08-11.34,1.73c0.1,0.75,0.54,0.92,0.76,1.35
			c0.05,0.83,0.17,1.75-0.12,2.64c-0.12,0.37-0.08,0.72,0.11,1.04c0.53,0.91,0.57,1.89,0.5,2.9c-0.11,0.07-0.21,0.07-0.31-0.01
			c-0.61-1.58-0.78-3.32-1.64-4.8c-0.7,0-0.91,0.77-1.69,0.76c-1.18-0.16-1.17-2.74-3.02-2.02c-0.38,0.55-0.06,1-0.19,1.43
			c-1.18,1.64-2.53,1.86-4.17,0.79c-0.9-0.59-1.58-1.44-2.61-2.04c-0.18,0.71,0.28,1.23,0.25,1.81c-0.03,0.63,0.47,1.1,0.54,1.62
			c-0.04,0.77-0.83,0.91-1.07,1.52c-0.04,1.49,1.76,1.16,2.27,2.26c-0.02,0.81-0.04,1.73,0.3,2.5c-0.31,0.79-0.78,1.25-1.41,1.52
			c-1.68-0.55-3.76-2.91-4.72-5.38c-0.2,0.76,0.01,1.42,0.23,2.08c0.32,1,0.3,1.96-0.26,2.88c-0.51,0.84-0.63,1.8-0.68,2.76
			c-0.02,0.43,0.08,0.89-0.32,1.22c-0.5-1.21-0.54-2.47-0.35-3.73c0.15-1.02,0.06-1.96-0.55-2.81c-0.04-0.48,0.22-0.95-0.01-1.42
			l-0.02,0.02c0.3,0.03,0.61,0.06,0.96,0.09c-0.01-0.89,0.36-1.72,0.16-2.56c-0.54-0.13-0.49,0.6-1.11,0.41
			c0.43-1.97-0.84-3.54-1.49-5.35c0.67-0.6,0.45-1.65,1.23-2.31c0.91,0.82,1.14,2.02,1.95,3.02c0.12-1,0.09-1.96,0.72-2.59
			c-0.07-0.52-0.59-0.35-0.72-0.68c0.05-0.34,0.54-0.52,0.34-1.04c-0.24-0.39-0.79-0.05-1.22-0.36c-0.28-0.9-0.21-1.88-0.12-2.91
			c-0.2-0.23-0.41-0.46-0.62-0.7c0.3-0.35,0.67,0.18,1.09-0.21c-0.9-0.58-0.97-1.82-2.1-2.37c-0.18-1.27-0.36-2.61-0.56-3.95
			c-0.14-0.95-0.49-1.09-1.33-0.47c1.37,1.64,0.53,4.14,2.22,5.78c-0.13,0.09-0.33,0.21-0.5,0.33c-0.05,0.8,0.53,1.38,0.54,2.12
			c-1.89-1.44-1.88-1.44-2.33-3.74c-0.12-0.62-0.29-1.24-0.5-1.84c-0.76-2.24,0.49-4.09,1.13-6.06c0.41-1.24,1.23-2.19,2.2-3.05
			c0.5-0.44,1.04-0.88,1.32-1.53c0.53-0.88,0.99-1.83,2.16-2.02c1.09,0.92,2.38,0.75,3.74,0.8c-0.13-1.52-1.42-1.72-2.17-2.43
			c0.25-1.23,1.44-1.36,2.25-1.93c1.44-0.59,2.86-1.22,4.37-1.63c1.12-0.3,2.2-0.67,3.4-0.43c0.63,0.13,1.25-0.2,1.87-0.34
			c3.09-0.72,6.13-0.3,9.07,0.68c1.22,0.4,2.25,1.36,3.61,1.46c1.56,0.64,2.9,1.67,4.39,2.43c0.58,0.3,0.64,0.99,1.08,1.4
			C62.65,15.34,62.95,15.6,63.26,15.85z"/>
		<path class="st17" d="M28.25,54.98c0-1.67,0.06-3.33,1.06-4.79c0.3-0.44,0.2-1,0.04-1.51c-0.33-1.04-0.59-2.08-0.47-3.19
			c0.45-0.23,0.72-0.01,0.8,0.39c0.52,2.49,2.41,3.89,4.2,5.39c0.54-0.37,0.96-0.79,1.32-1.33c-0.41-0.79-0.64-1.61-0.23-2.51
			c-0.76-0.86-2.39-0.63-2.52-1.81c-0.21-1.32,1.13-1.15,1.29-2.01c-0.19-0.25-0.4-0.54-0.66-0.9c0.35-0.96-0.68-1.84-0.32-3.11
			c1.6,0.85,2.61,2.32,4.35,3.11c0.93,0.04,1.78-0.58,2.66-1.26c-0.13-0.39-0.23-0.72-0.33-1.02c0.13-0.62,0.54-0.89,0.91-0.97
			c1.7,0.1,1.9,1.73,2.86,2.46c0.61-0.35,0.94-0.85,1.48-1.48c1.13,1.81,1.62,3.67,1.82,5.63c0.21,0.48,0.11,1.01,0.19,1.51
			c0.15,0.99-0.59,1.93-1.54,2.08c-1,0.16-1.94-0.43-2.22-1.4c-0.13-0.46-0.1-0.96-0.33-1.39c-0.04-0.07-0.1-0.12-0.27-0.19
			c-0.73,0.56-1.17,1.4-1.82,2.2c0.31,1.28-0.48,1.87-1.58,2.36c-2.24,1-3.7,3.64-3.44,6.09c0.1,0.92,0.04,1.84,0.07,2.75
			c0.02,0.57,0.07,1.13,0.77,1.39c0.97-0.23,1.5-0.96,1.88-1.81c0.38-0.88,0.8-1.73,1.2-2.61c0.55-1.18,1.71-1.37,2.75-1.34
			c1.54,0.05,3.11-0.07,4.62,0.43c1.37,0.45,2.36,1.29,2.87,2.67c0.41,1.09,0.18,1.81-0.83,2.42c-0.49,0.29-0.49,0.29-0.91,1.14
			c1.12,0.84,2.76,1.19,3.11,3.07c-1.27,1.51-1.57,3.51-1.95,5.49c-0.13,0.69-0.84,1.03-1.42,1.38c-0.11,0.06-0.23,0.09-0.36,0.11
			c-1.09-0.07-1.41-0.85-1.58-1.75c-0.02-0.13,0.02-0.24,0.09-0.35c0.03-0.32,0.08-0.64-0.17-0.9c-0.65-0.3-1.1,0.41-1.66,0.37
			c-0.83-0.23-0.57-1.22-1.27-1.64c-0.87,0.41-1.84,0.83-2.7-0.12c-0.16-0.82,0.61-1.09,0.87-1.64c-0.59-0.98-0.59-0.98-3.79,0.52
			c-1.62-0.26-2.16-1.78-3.21-2.72c-0.04-1.5-0.19-2.95-1.6-3.85c-0.88,0.57,0.29,1.4-0.51,2.14c-1.01-1.49-2.01-2.95-3-4.41
			C28.47,57.05,28.29,56.03,28.25,54.98z"/>
		<path class="st18" d="M82.98,42.53c-0.65-0.18-0.94-0.67-0.92-1.28c0.03-0.82-0.29-1.58-0.33-2.39c-0.17-0.4,0.04-0.86-0.17-1.26
			c0.04-0.4,0.53-0.28,0.68-0.52c-0.09-0.34-0.16-0.64-0.26-1.02c-0.17-0.22-0.53-0.09-0.92-0.22c0.01-1.78-2.02-3.19-0.94-5.29
			c-0.09-0.22-0.21-0.51-0.32-0.78c-0.33-0.12-0.61,0.04-0.86,0.14c-0.83-1.47-1.61-2.86-2.4-4.26c0.45-0.66,0.45-0.66,0.13-1.45
			c-0.33,0-0.67,0-0.99,0c-1.01-1.26-1.99-2.47-2.95-3.66c-0.12-0.37,0.37-0.56,0.21-0.92c-0.37-0.78-0.97-0.41-1.53-0.28
			c-1.16-1.02-2.31-2.04-3.34-2.95c-0.38-0.47,0.25-0.64,0.06-0.98c-0.15-0.34-0.5-0.42-0.72-0.58c-0.45-0.08-0.58,0.31-0.88,0.47
			c-1.12-0.7-2.27-1.42-3.41-2.13c-0.74-0.03-0.66-0.78-0.97-1.15c-2.42,0.1-4.46-0.69-6.38-2.48c-0.15-0.07-0.45,0.21-0.79,0.28
			c-1.94,0.11-3.67-0.55-5.46-1.49c-1.53,0.66-3.26,0.52-4.96,0.6c-0.64,0.02-1.02-0.61-1.56-0.65c-2.06,1.05-4.13,1.51-6.46,0.92
			c-1.72,1.42-3.77,2.22-6.17,2.15c-1.53,1.64-3.39,2.76-5.69,3.14c-1.34,1.83-2.99,3.31-5.09,4.15c-1.08,2-2.36,3.78-4.35,4.96
			c-0.57,2.2-1.69,4.08-3.38,5.62c0.02,1.72-1.07,4.44-2.2,6.02c0.6,0.31,1.22,0.26,1.79,0.3c0.52-0.3,0.57-0.81,0.72-1.26
			c2.76-7.96,7.73-14.16,14.82-18.67c1.01-0.64,2.09-1.18,3.21-1.61c0.2-0.01,0.39,0,0.53,0.32c-0.43,0.94-1.22,1.48-2.27,1.69
			c-4.91,2.74-8.79,6.57-11.81,11.28c-1.71,2.67-3.01,5.53-3.9,8.57c-0.08,0.26-0.19,0.51-0.32,0.85c-1.41-0.13-2.78-0.26-4.28-0.41
			c0.15-0.63,0.28-1.16,0.43-1.78c-0.44-0.41-0.29-0.91-0.07-1.44c0.37-0.88,0.67-1.8,1.04-2.67c0.21-0.48,0.25-1.08,0.97-1.24
			c0.33-0.07,0.46-0.56,0.49-0.9c0.14-1.65,1.54-3.99,3.01-5c0.22-0.15,0.42-0.41,0.49-0.66c0.61-2.11,1.97-3.55,3.9-4.52
			c0.2-0.1,0.44-0.29,0.51-0.49c0.63-1.71,2.19-2.56,3.56-3.36c1.93-1.12,3.5-2.86,5.68-3.51c2.17-0.64,4-2.21,6.27-2.46
			c2.27-0.25,4.37-1.44,6.66-1.31c2.29,0.13,4.54-0.71,6.81-0.2c2.27,0.52,4.68,0.27,6.86,1.12c1.81,0.7,3.81,0.76,5.51,1.74
			c2.68,1.54,5.69,2.47,7.99,4.72c0.74,0.73,1.8,1.22,2.62,1.97c2.04,1.85,4.06,3.74,5.63,6.01c1.4,2.01,2.93,3.99,3.84,6.27
			c0.84,2.09,2.16,4.07,2.35,6.34c0.11,1.27,0.63,2.3,0.99,3.43c0.55,0.84,0.19,1.83,0.44,2.72c-0.53,1.88,0.3,3.71,0.24,5.57
			c-0.34,0.71,0.21,1.55-0.32,2.24c-0.12,0-0.19,0.06-0.17,0.19c-0.14,0.44-0.17,0.88,0.01,1.31c-0.31,1.83-0.55,3.64-1.28,5.43
			c-0.57,1.4-0.64,3.06-1.29,4.51c-0.27,0.6-0.39,1.26-1.04,1.64c-0.21,0.12-0.42,0.46-0.41,0.7c0.07,1.9-1.53,2.99-2.14,4.55
			c-0.21,0.52-0.7,0.26-1.1,0.62c-0.39,2.07-2.02,3.4-3.55,4.92c-0.51-0.34-0.95-0.64-1.4-0.94c0.54-1.04,1.54-1.67,2.06-2.58
			c0.61-1.07,1.76-1.23,2.47-1.83c0.16-0.54-0.36-0.58-0.37-0.85c0.79-1.27,1.67-2.43,2.23-3.9c0.21-0.18,0.6-0.01,0.97-0.12
			c0.25-0.33,0.49-0.68,0.32-1.16c-0.27-0.17-0.45-0.38-0.26-0.72c0.63-1.26,1.13-2.57,1.55-3.99c0.23-0.05,0.49-0.1,0.78-0.16
			c0.12-0.34,0.25-0.7,0.38-1.04c0.03-0.38-0.49-0.27-0.5-0.8c0.09-1.35,0.4-2.86,0.83-4.42c0.23-0.07,0.52-0.15,0.76-0.22
			c0.23-0.71,0.15-1.24-0.52-1.45c-0.04-0.39-0.08-0.7-0.11-1.01c0.22-0.94,0.03-1.9,0.11-2.85c0.03-0.36-0.22-0.8,0.22-1.08
			c0.12-0.02,0.25-0.05,0.37-0.07C83.18,43.25,83.18,42.89,82.98,42.53z"/>
		<path class="st19" d="M7.84,56.32c0.19-0.21,0.37-0.4,0.55-0.6c-0.18-0.76-0.35-1.5-0.55-2.37c1.4-0.3,2.74-0.59,4.21-0.9
			c1.52,6.94,4.81,12.84,9.88,17.73c-0.77,0.67-1.08-0.02-1.42-0.37c-4.14-4.26-7.05-9.24-8.61-14.98
			c-0.12-0.46-0.27-0.91-0.45-1.48c-0.88,0.18-1.72,0.36-2.79,0.58c0.81,2.16,2.06,4.04,2.48,6.28c0.4,2.18,2.38,3.62,3.1,5.73
			c0.74,2.15,2.97,3.32,3.89,5.36c-0.33,0.62-0.95,0.43-1.37,0.7c-1.23-1.09-2.08-2.39-2.99-3.53c-0.13-0.39,0.22-0.48,0.24-0.72
			c-0.23-0.62-0.52-1.16-1.34-0.93c-0.93-1.39-1.73-2.81-2.43-4.33c0.14-0.22,0.27-0.44,0.38-0.62c-0.17-0.67-0.41-1.19-1.19-1.04
			C8.9,59.27,8.38,57.81,7.84,56.32z"/>
		<path class="st20" d="M68.77,70.54c1.07-1.23,2.18-2.43,3.21-3.69C80.67,56.24,81.99,40.94,75.27,29
			c-1.93-3.44-4.35-6.49-7.33-9.08c-0.58-0.5-1.1-1.04-1.53-1.67c-0.05-0.23,0.04-0.34,0.28-0.28c6.53,5.11,10.79,11.67,12.68,19.75
			c0.29,1.26,0.51,2.54,0.77,3.81c0.21,0.58-0.05,1.2,0.18,1.78c0,1.37,0,2.74,0,4.11c-0.23,0.57,0.02,1.19-0.17,1.77
			c-0.59,3.63-1.38,7.2-2.93,10.56c-1.82,3.96-4.22,7.51-7.35,10.55C69.55,70.6,69.25,70.98,68.77,70.54z"/>
		<path class="st21" d="M28.69,62.65c-6.41-5.53-8.97-16.17-6.3-23.6c0.2,0.8,0.17,1.4,0.07,2.01c-1.33,7.65,0.53,14.4,5.7,20.22
			C28.6,61.78,28.6,61.78,28.69,62.65z"/>
		<path class="st15" d="M55.15,9.62c0.29-1,0.89-0.21,1.37-0.33c0.06,0.39,0.11,0.69,0.15,0.99c1.44,0.57,2.84,1.12,4.2,1.66
			c0.38-0.01,0.42-0.39,0.72-0.5c0.37,0.03,0.72,0.19,1.1,0.48c-0.13,0.48-0.16,0.97,0.4,1.26c-0.22,0.04-0.44,0.08-0.76,0.14
			c0,0.62,0,1.19,0,1.76c-0.69,0.05-0.61-0.61-0.84-0.95c-1.51-0.86-2.99-1.71-4.47-2.56c-0.42-0.41-0.98-0.43-1.5-0.54
			c-0.77-0.16-1.14-0.42-1.61-1.16C54.28,9.54,54.78,9.88,55.15,9.62z"/>
		<path class="st22" d="M27.33,47.02c-0.25,0.18-0.5,0.36-0.8,0.58c-2.54-2.31-2.17-5.56-2.89-8.58c0.93,0.06,1.45,0.58,1.91,1.05
			c0.46,0.85-0.23,1.31-0.53,1.9c1.61,1.32,2.04,3.16,2.3,5.07C27.31,47.05,27.33,47.02,27.33,47.02z"/>
		<path class="st23" d="M22.51,32.22c0.81,0.21,1.23,0.32,1.59,0.41c0.48,0.77-0.19,1.54,0.14,2.24c0.44,0.24,0.86-0.34,1.4,0.18
			c-0.1,0.99-1.63,1.49-1.1,2.99C22.52,36.36,23.78,34.06,22.51,32.22z"/>
		<path class="st24" d="M28.45,16.03c0.61-0.53,1.39-0.85,1.9-1.52c0.21-0.27,0.07-0.31-0.16-0.34c1.22-0.91,2.23-2.14,3.77-2.59
			c0.19-0.06,0.39,0.02,0.53,0.17c-0.68,0.62-1.67,0.83-2.18,1.67c-0.33,0.78-0.86,1.36-1.68,1.65c-0.83,0.54-1.35,1.39-2.08,2.02
			C28.41,16.75,28.97,16.33,28.45,16.03z"/>
		<path class="st25" d="M26.94,53.12c-0.7-1.23-1.06-2.56-1.31-4.13C26.97,50.21,26.79,51.72,26.94,53.12z"/>
		<path class="st15" d="M82.61,43.69c-0.5,1.28,0.07,2.64-0.33,3.93c-0.01-0.97-0.03-1.95-0.02-2.92
			C82.27,44.34,82.11,43.9,82.61,43.69z"/>
		<path class="st15" d="M84.15,41.11c-0.15-0.91-0.29-1.81-0.44-2.72C84.85,39.14,83.89,40.23,84.15,41.11z"/>
		<path class="st15" d="M84.08,48.93c0.11-0.75,0.21-1.49,0.32-2.24C84.27,47.43,84.76,48.26,84.08,48.93z"/>
		<path class="st26" d="M66.68,17.96c-0.09,0.09-0.18,0.19-0.28,0.28c-0.39-0.23-0.69-0.51-0.71-1
			C66.13,17.33,66.48,17.55,66.68,17.96z"/>
		<path class="st15" d="M80.14,49.18c-0.04-0.6-0.04-1.2,0.17-1.77C80.27,48,80.52,48.62,80.14,49.18z"/>
		<path class="st15" d="M80.31,43.29c-0.28-0.57-0.18-1.18-0.18-1.78C80.53,42.07,80.27,42.7,80.31,43.29z"/>
		<path class="st15" d="M81.56,37.6c0.18,0.4,0.22,0.82,0.17,1.26C81.39,38.48,81.58,38.03,81.56,37.6z"/>
		<path class="st15" d="M79.11,60.71c0.09,0.24,0.17,0.48,0.26,0.72c-0.14,0.03-0.27,0.05-0.4,0.08
			C78.86,61.17,78.86,60.91,79.11,60.71z"/>
		<path class="st15" d="M81.19,45.13c0.38,0.24,0.22,0.38,0.1,0.53C80.88,45.47,81.18,45.35,81.19,45.13z"/>
		<path class="st15" d="M83.92,50.43c-0.36-0.43-0.2-0.87-0.01-1.31C83.92,49.55,83.92,49.99,83.92,50.43z"/>
		<path class="st15" d="M82.98,42.53c0.29,0.36,0.3,0.72,0,1.09C82.98,43.25,82.98,42.89,82.98,42.53z"/>
		<path class="st27" d="M33.08,69.84c0.63-0.73-0.21-1.51,0.04-2.23c0.54-0.2,0.7,0.38,1.1,0.43c0.42-0.2,0.86-0.39,1.15-0.94
			c0.39,0.28,0.8,0.55,1.23,0.65c0.43,1.26-0.64,1.64-1.16,2.33c-0.82,0.02-1.61,0.05-2.37-0.25L33.08,69.84z"/>
		<path class="st27" d="M33.06,69.82c0.02,1.03,0.53,1.88,1.11,2.72c-1.67-0.25-2.44-1.85-2.41-4.88c-0.02-0.03-0.05-0.09-0.06-0.09
			c-0.24,0.09-0.49,0.19-0.73,0.29c-0.32-0.39-0.43-0.77-0.12-1.19c0.34-0.17,0.62,0.05,0.91,0.09c0.57,0.56,0.72,1.22,0.4,1.98
			c0.32,0.39,0.62,0.75,0.92,1.11C33.08,69.84,33.06,69.82,33.06,69.82z"/>
		<path class="st28" d="M39.02,70.26c-0.14,0.25-0.28,0.5-0.42,0.75c-0.46-0.73-0.69-1.48-0.2-2.32c0.62,0.08,0.78,0.34,0.57,0.89
			C38.9,69.77,38.35,70.09,39.02,70.26z"/>
		<path class="st29" d="M45.77,70.33c-0.01,0.07,0,0.15,0.03,0.21c0,0.72,0.6,1.44-0.01,2.16c-0.46-0.43-0.07-1.05-0.36-1.52
			c-0.23-0.16-0.44,0.03-0.66,0.04c0.21-0.49-0.28-1.19,0.43-1.54C45.62,69.7,45.49,70.2,45.77,70.33z"/>
		<path class="st28" d="M40.27,69.11c-0.1,0.2-0.21,0.41-0.35,0.68c-0.19,0-0.42,0-0.64,0c0.17-0.23,0.51-0.27,0.55-0.66
			C39.87,68.79,40.11,68.82,40.27,69.11z"/>
		<path class="st30" d="M69.28,56.07c0.42-1.13,0.79-2.14,1.16-3.14c0.36-0.19,0.67-0.35,1.01-0.53c1.81-7.19,0.88-14.02-2.78-20.52
			c1.18-0.9,2.46-1.51,3.78-2.23c1.54,2.43,2.57,5.01,3.28,7.72c1.36,5.16,1.43,10.34,0.17,15.53c-0.13,0.53-0.33,1.06,0.07,1.6
			c0.25,0.35,0.1,0.77-0.03,1.16c-0.28,0.79-0.57,1.57-0.81,2.23c-0.33,0.47-0.77,0.48-1.11,0.67c-3.25,6.02-6.92,10.51-8.61,10.26
			c3.36-3.03,6.07-6.41,7.92-10.54c-0.88-0.54-1.85-0.71-2.82-1.11c-2.02,3.95-4.53,7.4-8.1,9.98c-0.06,0.04-0.26-0.11-0.55-0.23
			c0.77-0.7,1.46-1.31,2.14-1.95c2.14-2.01,3.88-4.33,5.27-6.92C69.63,57.37,69.8,56.76,69.28,56.07z"/>
		<path class="st31" d="M39.55,57.11c-0.65,1.77-1.1,3.67-2.88,4.78c-1.02,0.03-1.42-0.51-1.45-1.47c-0.04-1.23-0.3-2.57-0.08-3.66
			c0.27-1.38-0.35-3.39,1.72-4.08c0.58-1.52,2.24-1.66,3.34-2.51c-0.03-1.92,1.12-3.05,2.35-4.25C43.31,47,42.9,48.14,43.58,49
			c0.55,0.26,1.12,0.54,1.84,0.37c0.42-0.3,0.81-0.69,1.11-1.17c-0.2-0.73-0.34-1.43-0.03-2.12c0.08,0,0.16,0,0.25,0
			c0.01,0.13,0.02,0.26,0.03,0.39c0.14,0.79,0.14,1.58,0,2.37c-0.16,1.38-1.43,1.28-2.27,1.47c-0.9,0.21-1.59-0.54-2.05-1.34
			c-0.13-0.23-0.15-0.52-0.26-0.91c-0.44,0.38-0.57,1.2-1.36,0.72c-0.11,1.46,0.76,2.12,1.81,2.46c1.53,0.49,1.95,2.24,3.42,2.5
			c-0.08,1.03-0.62,1.1-1.15,1.04c-1.52-0.17-3.03-0.58-4.42,0.14c-0.46-0.63,0.25-0.83,0.14-1.24c-1.02-0.44-1.73,0.08-2.42,0.76
			c0,0.79,0.15,1.62-0.64,2.24c0.54,0.66,0.23,1.44,0.36,2.21c0.59-0.31,0.46-0.98,0.87-1.29c0.2-0.18,0.3-0.46,0.6-0.53
			C39.45,57.07,39.5,57.09,39.55,57.11z"/>
		<path class="st32" d="M50.27,48.01c-0.2-0.1-0.2-0.28-0.19-0.46c-0.18-0.51,0.56-0.55,0.51-1.01c-0.11-0.51-0.21-1.04-0.27-1.58
			c-0.09-0.8-0.17-1.68-0.99-2.19c-0.3-0.19-0.36-0.51-0.21-0.84c0.65-1.84,2.34-2.47,3.9-3.14c0.65-0.28,1.58-0.1,2.02,0.7
			c-0.04,0.56-0.62,0.69-0.71,1.2c0.55,0.12,0.9-0.41,1.54-0.44c-0.7,0.85-1.28,1.65-2.45,1.86c0.67,0.98,1.26,0.58,1.82,0.23
			c0.55-0.34,1.01-0.99,1.93-0.37c-0.36,0.88,1.07,1.57,0.34,2.64c-0.71,0.66-1.61,1.11-2.11,1.99c-0.11,0.05-0.21,0.03-0.3-0.05
			c-0.43-0.64-0.2-1.12,0.34-1.54c0.31-0.24,0.7-0.41,0.78-0.94c-0.37-0.5-0.96-0.45-1.48-0.38c-0.8,0.11-1.55,0.16-2-0.65
			c-0.49-0.86-0.34-1.69,0.29-2.44c0.13-0.15,0.28-0.29,0.29-0.51c-0.7-0.11-2.13,0.56-2.59,1.2c-0.52,0.74-0.2,1.4,0.23,1.98
			c1.07,1.42,1.29,2.96,0.58,4.78c1.39-0.35,2.32-1.34,3.56-1.51c0.45,0.58,0.01,0.85-0.39,1.12c-0.43,0.28-0.93,0.44-1.42,1
			c-0.14,0.15,0.08,0.54-0.04,0.87c-0.09,0.12-0.18,0.25-0.27,0.37c-0.64,1.18-1.46,1.64-2.71,1.46c-0.06-0.68-0.18-1.37,0.16-2.06
			C50.67,48.86,50.65,48.4,50.27,48.01z"/>
		<path class="st33" d="M67.23,35.83c1.5,2.55,2.11,5.29,2.28,8.13c0.14,2.28,0.03,4.55-0.54,6.77c-0.14,0.56,0.07,0.9,0.38,1.36
			c-0.42,1.17-0.85,2.37-1.31,3.64c-0.99,0.07-1.21,0.96-1.6,1.66c-1.13,2.02-2.57,3.78-4.24,5.49c-0.23-0.75,0.12-1.12,0.48-1.51
			c1.51-1.61,2.75-3.41,3.72-5.38c-0.38-1.51,0.65-4.33,1.8-4.96C69.52,45.86,68.83,40.83,67.23,35.83z"/>
		<path class="st34" d="M47.46,72.27c0.29-0.65,1.17-0.72,1.35-1.45c0.46-1.88,0.38-3.96,1.96-5.39c-0.44-1.77-2.14-2.07-3.22-2.82
			c-0.12-0.76,0.46-0.99,0.53-1.48c0.38-0.12,0.72-0.22,1.06-0.33c0.3-0.35,0.35-0.79,0.47-1.19c-1.04-2.65-2.22-3.49-5.05-3.46
			c-1.02,0.01-1.99-0.35-3.07-0.09c-0.79,0.19-1.39,0.49-1.93,1.03c0,0-0.01-0.01-0.01-0.01c-0.18-0.25-0.14-0.5-0.01-0.75
			c-0.1-0.52,0.35-0.68,0.63-0.95c2-0.09,3.98,0.23,5.97,0.24c0.52,0.09,1.05,0.18,1.57,0.27c0.25,0.2,0.62,0.15,0.88,0.39
			c0.19,0.46,0.44,0.9,0.8,1.27c0.71,0.82,1.24,1.7,1.01,2.85c-0.11,0.95-0.89,1.21-1.75,1.49c0.62,0.84,1.9,0.45,2.19,1.56
			c0.22,0.85,1.15,1.46,0.85,2.6c-0.87,0.45-1,1.62-1.8,2.28c-0.19,0.18-0.24,0.4-0.18,0.61c0.2,0.47,0.94,0.1,1,0.74
			c-0.28,0.34-0.68-0.1-1.08,0.25c-0.52,1.18,0.36,2.53-0.27,4.09c-0.44,0.39-0.93,1.13-0.91,2.05c-0.31,0.2-0.53,0.07-0.75-0.01
			C47.64,74.8,47.39,73.54,47.46,72.27z"/>
		<path class="st35" d="M50.27,48.01c0.42,0.19,0.5,0.57,0.56,1.05c-0.35,0.65-0.74,1.35-0.31,2.24C51.5,51.11,52.3,50.6,53,49.9
			c0.08,0.4-0.33,0.74-0.07,1.36c0.82,0.04,1.75,0.17,2.66,0.12c0.93-0.05,1.86-0.27,2.87-0.43c0.12,0.66,0.06,1.38,0.96,1.84
			c-1.2,0.41-1.83-0.14-2.5-0.54c-0.62-0.08-1.07,0.22-1.49,0.62c-0.12,0.59,0.06,1.23-0.44,1.74c-0.48,0.02-0.8-0.52-1.3-0.58
			c-0.41,0.18,0.16,0.64-0.25,0.8c-0.55-0.03-0.31-0.71-0.79-0.87c-0.68-0.06-0.55,0.5-0.67,0.95c-0.23,0.83,0.47,1.62,0.05,2.44
			c-0.48-0.81-1.05-1.54-1.95-1.94c0.37-0.45,0.88-0.2,1.38-0.2c0.63-1.59-0.79-2.24-1.34-3.18C49.82,50.64,50.45,49.34,50.27,48.01
			z"/>
		<path class="st35" d="M49.86,68.34c0.51-0.8,0.45-1.98,1.59-2.28c0.12-0.41,0.11-0.76,0-1.19c-0.23-0.19-0.5-0.42-0.77-0.64
			c-0.16-0.47-0.11-1.05-0.71-1.42c-0.56-0.09-1.38,0.19-1.78-0.74c0.09-1.12,1.99-0.26,1.91-1.61c0.37-0.24,0.61-0.08,0.78,0.27
			c-0.17,0.27-0.68,0.36-0.35,1.03c0.74-1.05,1.66-1.17,2.81-0.83c0.61,0.18,1.2-0.31,1.6-0.91c0-0.45,0-0.92,0-1.37
			c0.32-0.3,0.63-0.4,1.04-0.12c0.47,0.81,0.1,1.57-0.27,2.45c-1.96,0.33-1.5,2.15-1.97,3.83c-0.42-1.19-0.12-2.14-0.59-3.04
			c-0.43,0.82-0.47,1.81-1.35,2.22c-0.03,0.83-0.07,1.58,0.7,2.01c-0.25,0.53-0.85,0.32-1.16,0.72c-0.07,0.38-0.16,0.81-0.24,1.24
			C50.67,68.1,50.27,68.22,49.86,68.34z"/>
		<path class="st36" d="M61.11,21.19c-1.07-0.48-1.98-0.26-2.79,0.51c0.08,0.49,0.56,0.01,0.69,0.53c-1.21,0.45-1.94,1.88-3.72,1.91
			c0.59-1.33,1.62-1.76,2.39-2.18c0.46-0.41,0.33-0.82,0.53-1.22c0.59,0.05,0.86-0.49,1.25-0.88c0.9-0.09,1.79-0.49,2.68,0.03
			c0.09,0.33,0.14,0.66,0.02,0.94C61.88,21.27,61.5,21.26,61.11,21.19z"/>
		<path class="st31" d="M50.89,60.73c-0.26-0.09-0.52-0.18-0.78-0.27c0-0.51,0-1.02,0-1.35c-0.29-0.68-0.95-0.89-0.96-1.53
			c0.35-0.35,0.34-0.83,0.46-1.26c0.01-0.38,0.13-0.71,0.48-0.91c1.33-0.04,1.81,0.78,1.95,1.94c0,0,0-0.01,0-0.01
			c-0.2,0.29-0.45,0.53-0.72,0.74l0.01-0.01c-0.59,0.24-0.49,0.78-0.57,1.17c0.11,0.33,0.41,0.31,0.54,0.5
			C51.42,60.18,51.13,60.45,50.89,60.73z"/>
		<path class="st37" d="M56.75,21.42c-0.8,0.69-1.45,1.25-2.04,1.76c-0.09,0.55,0.54,0.71,0.3,1.29c-0.28,0.28-0.76,0.18-1.24,0.21
			c-0.25-0.36-0.48-0.7-0.76-1.09C53.88,22.34,54.8,21.24,56.75,21.42z"/>
		<path class="st38" d="M65.14,49.05c-0.12-2.85-0.35-5.7-0.48-8.56C65.7,43.32,65.68,46.18,65.14,49.05z"/>
		<path class="st39" d="M59.17,26.8c1.73-1.01,3.21-2.18,5.33-2.01C63.75,25.92,60.61,27.12,59.17,26.8z"/>
		<path class="st40" d="M52.73,56.45c0.72,0.45,0.3,1.08,0.62,1.6c0.28,0.17,0.65,0.39,1.03,0.62c-0.09,0.67-0.96,0.74-0.92,1.38
			c-0.57,0.26-0.99,0.22-1.37-0.38c0.28-0.09,0.53-0.18,0.79-0.26C52.47,58.47,52.45,57.53,52.73,56.45z"/>
		<path class="st35" d="M49.12,41.92c-0.02,0.71,0.7,0.78,1.01,1.21c0.7,0.98,0.28,2.26,0.89,3.32c-0.13,0.48-0.67,0.68-0.94,1.1
			c-0.49-0.51,0.28-0.71,0.31-1.02c-0.27-0.87-0.99-1.52-0.66-2.51c0.05-0.14,0.03-0.83-0.51-1.08
			C48.77,42.74,48.92,42.29,49.12,41.92z"/>
		<path class="st41" d="M55.3,46.55c0.25-1.2,1.34-1.46,2.22-1.95c-0.07,0.36-0.5,0.55-0.44,0.96c-0.53,0.49-0.75,1.14-0.97,1.75
			c0.28,0.38,0.54,0.57,0.94,0.44c0.35,0.37,0.06,0.5-0.23,0.48c-0.6-0.06-0.75,0.25-0.76,0.75c-0.37-0.14-0.68-0.05-0.95,0.23
			c-0.24-0.1-0.48-0.19-0.72-0.29C54.37,48,55.41,47.5,55.3,46.55z"/>
		<path class="st42" d="M62.32,22.77c0.65,0.14,0.93,0.62,1.47,0.68c-1.28,0.57-2.6,0.73-4.19,0.82
			C60.55,23.48,61.51,23.23,62.32,22.77z"/>
		<path class="st35" d="M55.3,46.55c0.06,0.93-0.2,1.74-0.91,2.38c-0.45,0.08-0.77,0.38-1.13,0.61c-0.13-0.24-0.27-0.47-0.39-0.68
			c0.25-0.74,0.86-1.02,1.47-1.3c0.43-0.2,0.9-0.37,0.78-1l0-0.01C55.19,46.54,55.24,46.54,55.3,46.55z"/>
		<path class="st43" d="M57.05,47.76c-0.51,0.56-0.9,0.05-1.42-0.13c0.31-0.69,0.61-1.32,0.88-1.96c0.16-0.37,0.37-0.13,0.57-0.09
			c0.22,0.28,0.42,0.56,0.35,1.03c0.02,0.42-0.58,0.35-0.76,0.73C56.79,47.47,56.92,47.61,57.05,47.76z"/>
		<path class="st44" d="M57.91,60.54c-0.64-0.4-0.37-0.94-0.76-1.49c-0.04-0.05-0.42,0.4-0.57-0.12c0.15-0.81,1.16-0.53,1.57-1.2
			C58.69,58.8,58.01,59.57,57.91,60.54z"/>
		<path class="st34" d="M45.78,72.7c0-0.72,0.01-1.44,0.01-2.16c0.35,0.7,0.5,1.57,1.48,1.72c0.28,1.02-0.45,1.45-1.07,1.93
			c-0.46-0.13-0.19-0.58-0.41-0.79C45.8,73.17,45.79,72.94,45.78,72.7z"/>
		<path class="st45" d="M66.96,20.41c0.62,0.87,1.41,1.63,1.62,2.81C67.52,22.98,66.93,21.97,66.96,20.41z"/>
		<path class="st46" d="M64.15,35.57c0.33-0.38,0.64-0.34,0.95-0.29c0.4,0.26,0.65,0.61,0.57,1.09c-0.1,0.58-0.47,0.78-1.05,0.59
			C64.22,36.58,64.16,36.09,64.15,35.57z"/>
		<path class="st47" d="M66.52,31.23c1.55-0.06,1.56-0.05,1.39,0.84c-0.41,0.25-0.75-0.25-1.29-0.07c-0.32,0.23-0.77,0.54-1.35,0.95
			C65.34,31.96,66.22,31.83,66.52,31.23z"/>
		<path class="st29" d="M45.8,73.4c0.11,0.23,0.22,0.46,0.34,0.7c0.78-0.41,0.86-1.18,1.14-1.85c0.06,0,0.12,0,0.18,0
			c0.57,1.24,0.1,2.54,0.22,3.81c-0.61-0.67,0.07-1.54-0.35-2.26c-0.56-0.18-0.68,0.62-1.26,0.54C45.63,74.19,45.74,73.79,45.8,73.4
			z"/>
		<path class="st48" d="M55.55,56.95c-0.27,0.35-0.52,0.5-0.96,0.37c-0.2-0.55-0.53-1.12-0.13-1.81
			C55.32,55.69,55.44,56.3,55.55,56.95z"/>
		<path class="st35" d="M46.13,55.64c-2,0.12-3.99,0-5.97-0.24C42.17,55.04,44.15,55.37,46.13,55.64z"/>
		<path class="st49" d="M61.11,21.19c0.91,0.02,1.03-0.59,1.03-1.29c0.26,0.36,0.37,0.85,0.87,0.92c0.06,0.46,0.16,0.86-0.24,1.13
			c-0.46,0.01-0.31-0.5-0.56-0.66C61.84,21.29,61.45,21.57,61.11,21.19z"/>
		<path class="st50" d="M58.55,43.43c-0.9,0.13-0.77-0.54-0.86-1.04c0.28-0.3,0.6-0.4,1-0.32C58.89,42.54,58.79,42.97,58.55,43.43z"
			/>
		<path class="st35" d="M51.29,59.75c-0.26,0.05-0.52,0.1-0.88,0.17c0.03-0.8-0.12-1.59,0.91-1.84
			C50.93,58.63,51.41,59.19,51.29,59.75z"/>
		<path class="st51" d="M55.11,49.21c0.03-0.37-0.07-0.82,0.49-0.93c0.42,0.05,0.14,0.59,0.46,0.7c0.04,0.22,0.15,0.44-0.05,0.68
			C55.56,49.85,55.24,49.73,55.11,49.21z"/>
		<path class="st52" d="M64.19,33.89c0.9-0.07,1.45,0.01,1.72,0.8C65.13,34.95,64.7,34.61,64.19,33.89z"/>
		<path class="st35" d="M49.61,56.33c-0.08,0.45,0.33,1.07-0.46,1.26c-0.45-0.58-0.7-1.34-1.44-1.68c0.31,0.05,0.62,0.11,0.59,0.1
			c0.74,0.28,0.47,0.93,1.01,1.05C49.4,56.82,49.5,56.58,49.61,56.33z"/>
		<path class="st53" d="M62.85,30.66c0.61-0.64,1.26-1.1,2.19-0.69C64.31,30.2,63.58,30.43,62.85,30.66z"/>
		<path class="st54" d="M53.02,70.51c-0.66-0.87-0.61-0.99,0.43-1.17C53.53,69.83,53.5,70.24,53.02,70.51z"/>
		<path class="st55" d="M36.87,72.95c0.57,0.6,0.89,0.94,1.39,1.07C37.45,74.52,37.37,74.48,36.87,72.95z"/>
		<path class="st56" d="M53.28,73.73c-0.07-1.32-0.07-1.32,0.92-1.97C53.89,72.44,53.65,72.94,53.28,73.73z"/>
		<path class="st57" d="M63.9,18.02c-0.51-0.18-0.7-0.48-0.88-0.85C63.94,17.03,63.94,17.03,63.9,18.02z"/>
		<path class="st58" d="M66.88,34.19c-0.13-0.85-0.13-0.85,0.53-1.54C67.48,33.28,67.24,33.67,66.88,34.19z"/>
		<path class="st59" d="M54.22,65.93c0.01-0.76,0.32-0.77,0.81-0.63C55.05,65.89,54.76,65.97,54.22,65.93z"/>
		<path class="st57" d="M58.09,29.96c-0.62-0.19-1.18-0.21-0.8-0.93C57.88,29.03,57.87,29.44,58.09,29.96z"/>
		<path class="st16" d="M46.77,48.83c0-0.79,0-1.58,0-2.37C47,47.25,47.07,48.04,46.77,48.83z"/>
		<path class="st60" d="M57.07,54.65c-0.34-0.75-0.18-1.01,0.34-1.13C57.65,53.99,57.32,54.18,57.07,54.65z"/>
		<path class="st35" d="M39.53,56.35c0,0.25,0.01,0.5,0.01,0.75c-0.25,0.16-0.49,0.32-0.74,0.48
			C39.05,57.17,39.29,56.76,39.53,56.35z"/>
		<path class="st35" d="M51.31,58.09c0.14-0.35,0.39-0.59,0.72-0.74C51.99,57.79,51.71,57.99,51.31,58.09z"/>
		<path class="st10" d="M53.31,26.17c0.78,0.55,0.01,1.07-0.1,1.68c0.29,0.78,0.92,1.35,1.38,2.03c0.37,1.23-0.3,2.15-0.93,3.09
			c-0.21,0.33,0.2,0.71-0.23,1.2c-0.91,0.05-1.73,0.61-2.11,1.49c-1.07,0.21-1.78-0.59-2.79-0.32c-1.08,1.21-2.75,1.43-4.32,1.79
			c-1.11,0.25-2.08-0.5-2.86-1.19c-1.07-0.94-2.08-1.83-3.6-1.91c-0.6-0.03-0.94-0.55-0.82-1.12c0.5-2.44,1.54-4.72,1.86-6.57
			C43.9,22.82,48.6,23.69,53.31,26.17z"/>
		<path class="st61" d="M34.7,18.89c-1.11,0.32-2.2,0.49-3.16,1.47c1.38-0.01,2.61-0.61,3.74,0.16c0.4,0.16-0.09,0.53,0.21,0.74
			c1.67,0.48,2.64,1.7,3.32,3.2c-0.53,0.54-0.91,0-1.32,0.05c-0.4,0.12-0.42,0.57-0.7,0.79c-0.46,0.03-0.61-0.48-0.96-0.57
			c-0.86,0.24-0.73,1.2-1.1,1.51c-0.6,0.4-0.66-0.24-1.19-0.14c-1.25,1.38-2.72,2.76-3.08,4.98c0.41,0.19,1,0.07,1.37,0.63
			c0.86-1.37-0.59-3.76,1.91-4.17c0.37,0.3,0.4,0.61,0.28,0.85c-0.68,1.37-0.39,2.96-1.14,4.36c-0.54,1-0.53,2.26,0.35,3.35
			c0.89-1.42,2.58,0.33,3.54-0.9c0.93,0.98,2.22,0.04,3.41,0.68c0.44,0.82,1.84,0.69,2.43,1.78c0.11,0.4,0.16,0.86-0.18,1.37
			c-0.44,0-0.96-0.51-1.37,0.2c-2.07-1.73-4.28-1.44-6.51-0.67c-1.09,0.38-2.28,0.3-3.31,0.58c-0.43,1.31,0.08,3.39,0.95,4.15
			c-0.06,0.45-0.62,0.48-0.85,1.19c-0.18,1.18,0.89,1.97,1.79,2.82c0.02,0.33,0.03,0.64,0.05,1c-0.25,0.05-0.53,0.11-0.82,0.17
			c-0.44-1.13-0.88-2.23-1.29-3.26c-0.46-0.14-0.35,0.33-0.69,0.38c0.09-2.41-0.96-4.79,0.03-7.21c0.13-0.32-0.03-0.78-0.11-1.17
			c-0.19-0.98-0.43-1.96-0.35-2.96c0.11-1.46-0.09-2.78-1.24-3.83c-0.31-0.29-0.35-0.7-0.4-1.1c-0.33-2.29-0.57-4.64-1.14-6.82
			c-0.57-2.18,0.28-3.34,1.51-4.63c0.27-0.28,0.55-0.59,1.08-0.56c0.23,1.29-1.52,1.75-1.23,2.94c-0.34,0.37-0.47-0.07-1.01-0.14
			c0.93,1.09,0.91,2.36,1.58,3.35c-0.18,0.43-0.69,0.17-0.99,0.55c0.06,0.88,1.25,1.39,1.03,2.47c0.27-1.86,1.08-3.6,1.03-5.62
			c1.21-1.17,1.87-3.42,4.38-2.34c0.63-0.95-0.33-1.23-0.61-1.82c0.3-0.26,0.65,0.03,1.05-0.06c0.13-1.93,1.04-3.17,3.26-3.13
			c0.05,0.57-0.18,0.98-0.72,1.26c0.44,0.2,0.97,0.13,1.16,0.79c-0.25,0.31-0.33,0.74,0.17,1.11c-0.91,0.54-1.96,0.77-2.41,1.93
			c0.75-0.14,1.26-0.75,2.03-0.76c0.1,0.47,0.38,0.97-0.54,1.02c0.53,0.53,1.46,0.22,1.56,1.1c-0.17,0.41-0.66,0.27-0.97,0.63
			c1.38,0.81,2.71,1.68,3.58,3.25c-0.78,0.14-1.42,0.18-1.96,0.87c-0.33-1.03-0.83-1.75-1.43-2.42c-0.62-0.68-1.18-1.38-2.19-1.53
			C35.54,20.61,35.28,19.6,34.7,18.89z"/>
		<path class="st62" d="M34.5,11.75c-1.4-0.01-2.09,1.09-3.06,1.97c-0.33,0.16-0.96-0.12-1.24,0.45c-5.4,2.74-9.92,6.52-13.37,11.52
			c-1.92,2.77-3.42,5.75-4.46,8.97c-0.13,0.41-0.17,0.87-0.57,1.27c-0.81-0.08-1.68-0.16-2.53-0.24C9,35.34,9.18,34.94,9.36,34.81
			c1.52-1.07,1.37-2.95,2.15-4.36c0.07-0.12,0.11-0.33,0.05-0.44c-0.59-1.08,0.21-1.34,0.96-1.64c0.74-1.23,1.47-2.46,2.26-3.77
			c-0.17-0.52-0.16-1.09,0.34-1.49c1.96-0.49,2.36-2.58,3.92-3.52c-0.36-0.74,0.01-1.16,0.54-1.51c1.12,0.08,4.25-2.45,4.45-3.61
			c0.47-0.34,0.91-0.88,1.44-0.24c3.8-1.91,4.01-2.05,4.21-3.01c0.3-0.13,0.63-0.27,0.98-0.42c0.19,0.15,0.37,0.29,0.63,0.48
			c1.54-0.66,3.32-0.89,4.72-1.93c-0.05-0.11-0.1-0.23-0.15-0.34c0.34-0.09,0.68-0.18,1.06-0.27c0.19,0.21,0.37,0.4,0.56,0.61
			c1.51-0.23,3.01-0.45,4.35-0.65c0.48-0.18,0.29-0.58,0.63-0.81c0.25-0.02,0.61-0.04,0.96-0.07c0.28,0.34,0.34,0.88,0.91,0.84
			c0.3,0.36-0.07,0.53-0.21,0.76C43.81,9.72,43.36,9.74,43,9.7c-2.79-0.31-5.22,0.85-7.71,1.82C35.04,11.62,34.76,11.68,34.5,11.75z
			"/>
		<path class="st63" d="M48.52,15.47c-0.35-0.11-0.69-0.22-0.8-0.72c0.7-1.82,2.34-2.33,4.09-2.76c1.1,0.4,2.29,0.69,2.83,1.98
			c0.03,0.54,0.05,1.12,0.08,1.7c-2.11,0.24-3.33-1.27-4.83-2.36C49.48,14.16,49.68,15.21,48.52,15.47z"/>
		<path class="st64" d="M49.94,23.9c-0.6-0.48-1.12-1.2-2.02-0.66c-0.37-0.15-0.26-0.64-0.62-0.88c-0.42-0.19-0.54,0.54-1.19,0.35
			c-0.51-0.3-0.58-0.94-0.53-1.7c0.67-0.64,1.74-0.75,2.31-1.63c1.26,0.27,2.45,1.99,3.77,0.07c-0.39,1.03-1.11,1.69-1.57,2.23
			C49.55,22.53,50.28,23.19,49.94,23.9z"/>
		<path class="st65" d="M44.13,9.41c0.07-0.25,0.14-0.51,0.21-0.76c1.07-0.04,2.14-0.07,3.21-0.12c0.58-0.03,1.24,0.09,1.48-0.9
			c1.97,1.3,3.96,1.94,6.12,1.99c-0.22,0.45-0.73,0.09-1.09,0.39c0.51,0.42,0.96,0.76,1.64,0.83c0.49,0.05,1.14,0.07,1.34,0.74
			c-1.19-0.16-2.23-0.61-3.3-1.21c-1.56-0.86-3.4-1.12-5.2-1.22C47.07,9.07,45.59,9.11,44.13,9.41z"/>
		<path class="st66" d="M30.64,15.07c0.5-0.61,1.03-1.19,1.68-1.65c1.28,0.22,2.07,1.02,2.63,2.11
			C34.1,16.67,31.28,16.33,30.64,15.07z"/>
		<path class="st67" d="M39.69,16.54c-0.18-0.24-0.19-0.43-0.1-0.71c0.55-0.16,1.12,0.03,1.62,0.04c0.4,0.18,0.16,0.69,0.62,0.8
			c0.27-0.14,0.59-0.3,0.99-0.51c0.38,0.59,1.06,0.62,1.65,0.65c0.22,0.45,0.1,0.72-0.1,0.96c-0.7,0.55-2.32-0.03-3.48-1.23
			C40.53,16.54,40.13,16.54,39.69,16.54z"/>
		<path class="st68" d="M54.82,17.64c-0.51,0.4-1.09,0.62-1.72,0.84c-0.37-0.34-0.71-0.73-1.3-0.86c0.25-0.59,0.23-1.11-0.67-1.47
			c1.33-0.26,2.05,0.04,2.45,0.9C53.94,17.4,54.51,17.15,54.82,17.64z"/>
		<path class="st69" d="M40.2,20.49c1.43,0.05,3.47,1.39,3.7,2.43C42.81,23.46,42.19,23.06,40.2,20.49z"/>
		<path class="st70" d="M44.11,21.46c0.45-0.19,0.81-0.12,1.1,0.28c0,0.34-0.19,0.57-0.48,0.55C44.27,22.26,44.08,21.93,44.11,21.46
			z"/>
		<path class="st71" d="M42.75,13.85c0.27-0.38,0.47-0.67,0.67-0.95c0.44,0.15,0.44,0.47,0.39,0.81
			C43.5,13.98,43.19,14.06,42.75,13.85z"/>
		<path class="st72" d="M69.68,32.02c0.56-0.33,1.14-0.68,1.72-1.01c0.24-0.13,0.49-0.24,0.84-0.41c4.03,7.39,4.84,15.05,2.8,23.08
			c-0.63,0.16-1.06-0.19-1.53-0.35c-0.45-0.15-0.89-0.32-1.32-0.47C73.53,42.94,73.67,42.45,69.68,32.02z"/>
		<path class="st73" d="M55.13,46.54c-1.07,0.9-2.49,1.19-3.56,2.21c-0.59-0.93,0.01-1.61,0.22-2.33c-0.08-0.63-0.37-1.22-0.25-1.78
			c-1.56-2.05-1.75-2.84-0.93-3.73c0.94-1.02,2.49-1.52,3.44-0.98c-0.9,0.94-1.95,1.91-0.78,3.4c0.96,0.49,2.11-0.39,3.29,0.35
			c0.51,1.09-0.68,1.28-1.35,1.86C55.18,45.83,55.16,46.18,55.13,46.54C55.13,46.53,55.13,46.54,55.13,46.54z"/>
		<path class="st74" d="M33.22,23.11c0.87-1.28,2.12-1.1,3.16,0.38C35.28,23.27,34.39,22.87,33.22,23.11z"/>
		<path class="st75" d="M29.93,28.37c0.24-0.57,0.39-1.02,0.98-1.23C30.99,27.86,30.78,28.26,29.93,28.37z"/>
		<path class="st76" d="M32.76,23.42c-0.33-0.08-0.65-0.16-0.99-0.25c0.04-0.39,0.29-0.6,0.63-0.53
			C32.75,22.71,32.92,22.99,32.76,23.42z"/>
	</g>
</g>
</svg>
