<?xml version="1.0" encoding="utf-8"?>
<!-- Generator: Adobe Illustrator 23.1.1, SVG Export Plug-In . SVG Version: 6.00 Build 0)  -->
<svg version="1.1" id="Layer_1" xmlns="http://www.w3.org/2000/svg" xmlns:xlink="http://www.w3.org/1999/xlink" x="0px" y="0px"
	 viewBox="0 0 295 90" style="enable-background:new 0 0 295 90;" xml:space="preserve">
<style type="text/css">
	.st0{fill:#FFFFFF;}
	.st1{fill:#66ADE3;}
	.st2{fill:url(#Path_553_1_);}
	.st3{fill:url(#Path_554_1_);}
	.st4{fill:none;}
	.st5{fill:#008277;}
	.st6{opacity:0.95;fill:url(#SVGID_1_);enable-background:new    ;}
	.st7{fill:#9DA1A4;}
	.st8{fill:#04181E;}
	.st9{fill:#003341;}
	.st10{fill:#D2EEF7;}
	.st11{fill:#9BCBDB;}
	.st12{fill:#CAEDF6;}
	.st13{fill:#C7ECF9;}
	.st14{fill:#C1E6F4;}
	.st15{fill:#003343;}
	.st16{fill:#97CADB;}
	.st17{fill:#D1EEF7;}
	.st18{fill:#CCEEF9;}
	.st19{fill:#C7EDF8;}
	.st20{fill:#C2E9F7;}
	.st21{fill:#BCE5F2;}
	.st22{fill:#9DCFDF;}
	.st23{fill:#90C3D2;}
	.st24{fill:#326171;}
	.st25{fill:#92C3D2;}
	.st26{fill:#6393A3;}
	.st27{fill:#114757;}
	.st28{fill:#497D8B;}
	.st29{fill:#356774;}
	.st30{fill:#C7EBF6;}
	.st31{fill:#9CCDDD;}
	.st32{fill:#9CCEDC;}
	.st33{fill:#C2EAF5;}
	.st34{fill:#9DD0DD;}
	.st35{fill:#9ACDDC;}
	.st36{fill:#90C3D4;}
	.st37{fill:#90C4D5;}
	.st38{fill:#BFE8F6;}
	.st39{fill:#8EC2D2;}
	.st40{fill:#7EB1C0;}
	.st41{fill:#346978;}
	.st42{fill:#80B3C5;}
	.st43{fill:#8AC1D0;}
	.st44{fill:#81B5C4;}
	.st45{fill:#7AAEBC;}
	.st46{fill:#84B8C7;}
	.st47{fill:#80B4C2;}
	.st48{fill:#89BDCC;}
	.st49{fill:#407482;}
	.st50{fill:#7EB1BF;}
	.st51{fill:#87BECC;}
	.st52{fill:#7EAFBF;}
	.st53{fill:#6798A8;}
	.st54{fill:#7BACBC;}
	.st55{fill:#568A9B;}
	.st56{fill:#6698A7;}
	.st57{fill:#78AAB9;}
	.st58{fill:#6091A1;}
	.st59{fill:#699BAA;}
	.st60{fill:#75A7B7;}
	.st61{fill:#003546;}
	.st62{fill:#023440;}
	.st63{fill:#C2E7F4;}
	.st64{fill:#013849;}
	.st65{fill:#214F5D;}
	.st66{fill:#BBE6F5;}
	.st67{fill:#0E4455;}
	.st68{fill:#154A5B;}
	.st69{fill:#104557;}
	.st70{fill:#255A6C;}
	.st71{fill:#255C6D;}
	.st72{fill:#003541;}
	.st73{fill:#C5E9F6;}
	.st74{fill:#80B3C1;}
	.st75{fill:#78A9B8;}
	.st76{fill:#6597A8;}
	.st77{fill:url(#SVGID_4_);}
	.st78{fill:#15213B;}
	.st79{fill:#15213B;stroke:#15213B;stroke-width:0.4252;stroke-miterlimit:10;}
	.st80{fill-rule:evenodd;clip-rule:evenodd;fill:url(#Path_1_);}
	.st81{fill-rule:evenodd;clip-rule:evenodd;fill:url(#Path-Copy_1_);}
	.st82{fill-rule:evenodd;clip-rule:evenodd;fill:url(#Path-Copy-2_1_);}
	.st83{fill:#F43052;}
	.st84{fill:#12A3E4;}
</style>
<g id="Page-1">
	<g id="Landing---VD" transform="translate(-139.000000, -50.000000)">
		<g id="Group-9" transform="translate(139.000000, 50.000000)">
			<g id="Group-3" transform="translate(0.000000, 7.000000)">
				<g id="Group-2" transform="translate(39.000000, 0.000000)">
					<path id="CAPITAL" class="st0" d="M55.13,72.52c0.73,0,1.32-0.04,1.77-0.13c0.45-0.09,0.95-0.22,1.48-0.39
						c0.51-0.16,0.94-0.33,1.29-0.5c0.36-0.17,0.73-0.35,1.13-0.54l0,0v-2.89h-0.18c-0.19,0.19-0.45,0.41-0.77,0.68
						c-0.33,0.27-0.72,0.53-1.16,0.78c-0.47,0.26-1,0.48-1.59,0.65s-1.25,0.26-1.95,0.26c-0.77,0-1.5-0.15-2.18-0.46
						c-0.69-0.31-1.28-0.76-1.79-1.37c-0.52-0.62-0.94-1.38-1.24-2.29c-0.3-0.9-0.45-1.98-0.45-3.23c0-1.18,0.14-2.24,0.43-3.18
						c0.29-0.94,0.69-1.72,1.2-2.34c0.52-0.62,1.13-1.09,1.83-1.41c0.69-0.32,1.43-0.48,2.21-0.48c0.72,0,1.35,0.08,1.9,0.25
						c0.55,0.16,1.05,0.37,1.52,0.63c0.48,0.27,0.89,0.54,1.23,0.82c0.34,0.28,0.61,0.52,0.82,0.71l0,0h0.2v-2.93
						c-0.4-0.22-0.81-0.42-1.22-0.61c-0.41-0.18-0.82-0.34-1.21-0.46c-0.46-0.14-0.95-0.25-1.49-0.34s-1.11-0.13-1.72-0.13
						c-1.23,0-2.35,0.21-3.35,0.64s-1.86,1.05-2.59,1.87c-0.74,0.84-1.31,1.83-1.7,2.97c-0.39,1.14-0.58,2.47-0.58,4
						c0,1.54,0.2,2.9,0.6,4.08s0.96,2.17,1.69,2.97s1.59,1.39,2.59,1.79C52.84,72.32,53.94,72.52,55.13,72.52z M80.6,72.19l1.66-5.1
						h6.98l1.66,5.1h2.56l-6.16-18.26H84.3l-6.16,18.26H80.6z M88.55,65.02h-5.63l2.81-8.61L88.55,65.02z M114.64,72.19v-6.81h2.06
						c1.3,0,2.37-0.16,3.22-0.48c0.85-0.32,1.59-0.79,2.22-1.41c0.5-0.5,0.89-1.1,1.17-1.81c0.28-0.71,0.42-1.46,0.42-2.25
						c0-1.01-0.19-1.88-0.58-2.59c-0.38-0.72-0.92-1.31-1.59-1.77c-0.58-0.4-1.25-0.69-2.01-0.87c-0.76-0.18-1.68-0.27-2.76-0.27
						l0,0h-4.59v18.26H114.64z M116.3,63.31h-1.66v-7.3h2.01c0.76,0,1.4,0.05,1.91,0.16s0.96,0.29,1.34,0.54
						c0.44,0.29,0.77,0.67,0.99,1.14c0.22,0.47,0.32,1.01,0.32,1.64c0,0.58-0.08,1.09-0.25,1.52c-0.16,0.43-0.43,0.83-0.78,1.2
						c-0.4,0.41-0.9,0.69-1.51,0.85C118.07,63.23,117.28,63.31,116.3,63.31L116.3,63.31z M149.48,72.19v-1.86h-2.33V55.8h2.33v-1.86
						h-7.09v1.86h2.33v14.53h-2.33v1.86H149.48z M176.2,72.19v-16.1h6.13v-2.16h-14.69v2.16h6.13v16.1H176.2z M200.28,72.19
						l1.66-5.1h6.98l1.66,5.1h2.56l-6.16-18.26h-2.99l-6.16,18.26H200.28z M208.24,65.02h-5.63l2.81-8.61L208.24,65.02z
						 M242.49,72.19v-2.16h-8.15v-16.1h-2.43v18.26H242.49z"/>
					<path id="Solana" class="st0" d="M63.49,48.21c5.6,0,9.93-1.33,13-3.98c3.07-2.65,4.6-5.98,4.6-9.99c0-3.91-1.31-6.9-3.93-8.96
						c-1.69-1.33-4.19-2.39-7.5-3.19l0,0l-7.56-1.82c-2.92-0.69-4.82-1.3-5.72-1.82c-1.39-0.77-2.08-1.95-2.08-3.51
						c0-1.71,0.7-3.04,2.11-3.99s3.3-1.43,5.66-1.43c2.12,0,3.9,0.37,5.33,1.1c2.14,1.11,3.3,2.99,3.45,5.63l0,0h8.81
						c-0.16-4.67-1.87-8.22-5.14-10.68S67.31,1.9,62.69,1.9c-5.54,0-9.74,1.3-12.6,3.9s-4.29,5.87-4.29,9.8
						c0,4.31,1.48,7.47,4.44,9.5c1.75,1.21,4.9,2.33,9.47,3.37l0,0l4.65,1.04c2.72,0.6,4.72,1.28,5.99,2.05
						c1.27,0.79,1.91,1.92,1.91,3.37c0,2.48-1.28,4.18-3.84,5.09c-1.35,0.48-3.11,0.71-5.27,0.71c-3.61,0-6.16-0.9-7.65-2.71
						c-0.81-0.99-1.36-2.49-1.64-4.5l0,0h-8.76c0,4.57,1.64,8.15,4.91,10.77C53.28,46.9,57.77,48.21,63.49,48.21z M101.79,48.21
						c5.58,0,9.74-1.69,12.48-5.08c2.74-3.38,4.11-7.46,4.11-12.22c0-4.69-1.37-8.75-4.11-12.18c-2.74-3.43-6.9-5.15-12.48-5.15
						s-9.74,1.72-12.48,5.15c-2.74,3.43-4.11,7.49-4.11,12.18c0,4.76,1.37,8.84,4.11,12.22C92.05,46.52,96.21,48.21,101.79,48.21z
						 M101.76,41.09c-2.48,0-4.39-0.88-5.73-2.65c-1.34-1.77-2.01-4.28-2.01-7.53s0.67-5.76,2.01-7.52
						c1.34-1.76,3.25-2.64,5.73-2.64c2.48,0,4.39,0.88,5.72,2.64c1.33,1.76,2,4.26,2,7.52s-0.67,5.77-2,7.53
						C106.14,40.21,104.24,41.09,101.76,41.09z M133.11,47.08V3.18h-8.49v43.89H133.11z M149.34,48.09c2.3,0,4.37-0.53,6.19-1.58
						c1.53-0.89,2.88-1.98,4.05-3.25c0.06,0.73,0.14,1.39,0.24,1.97s0.28,1.19,0.54,1.85l0,0h9.23v-1.25
						c-0.56-0.26-0.97-0.59-1.25-0.98c-0.28-0.4-0.45-1.15-0.51-2.26c-0.04-1.47-0.06-2.72-0.06-3.75l0,0V23.94
						c0-3.91-1.38-6.57-4.14-7.98c-2.76-1.41-5.92-2.11-9.47-2.11c-5.46,0-9.31,1.43-11.55,4.29c-1.41,1.83-2.2,4.16-2.38,7l0,0
						h8.19c0.2-1.25,0.6-2.24,1.19-2.98c0.83-0.99,2.25-1.49,4.26-1.49c1.79,0,3.14,0.25,4.06,0.76c0.92,0.51,1.38,1.42,1.38,2.75
						c0,1.09-0.61,1.9-1.82,2.41c-0.67,0.3-1.8,0.55-3.37,0.74l0,0l-2.89,0.36c-3.28,0.42-5.76,1.11-7.44,2.08
						c-3.08,1.79-4.62,4.68-4.62,8.67c0,3.08,0.96,5.45,2.87,7.13C143.98,47.25,146.41,48.09,149.34,48.09z M151.85,41.93
						c-1.15,0-2.13-0.32-2.93-0.97s-1.21-1.69-1.21-3.14c0-1.63,0.66-2.83,1.97-3.6c0.77-0.46,2.05-0.84,3.84-1.16l0,0l1.91-0.36
						c0.95-0.18,1.7-0.37,2.25-0.58c0.55-0.21,1.09-0.48,1.62-0.82l0,0v3.16c-0.06,2.84-0.86,4.79-2.4,5.87
						C155.35,41.39,153.67,41.93,151.85,41.93z M183.83,47.08V29.51c0-2.01,0.28-3.65,0.83-4.94c1.07-2.44,3.05-3.66,5.93-3.66
						c2.34,0,3.93,0.83,4.76,2.5c0.46,0.91,0.68,2.22,0.68,3.93l0,0v19.74h8.7V25.22c0-4.07-1.07-6.98-3.2-8.74
						c-2.13-1.76-4.88-2.64-8.23-2.64c-2.68,0-4.89,0.66-6.64,1.97c-0.97,0.73-2.01,1.94-3.1,3.6l0,0v-4.73h-8.19v32.4H183.83z
						 M220.52,48.09c2.3,0,4.37-0.53,6.19-1.58c1.53-0.89,2.88-1.98,4.05-3.25c0.06,0.73,0.14,1.39,0.24,1.97
						c0.1,0.58,0.28,1.19,0.54,1.85l0,0h9.23v-1.25c-0.56-0.26-0.97-0.59-1.25-0.98c-0.28-0.4-0.45-1.15-0.51-2.26
						c-0.04-1.47-0.06-2.72-0.06-3.75V23.94c0-3.91-1.38-6.57-4.14-7.98c-2.76-1.41-5.92-2.11-9.47-2.11
						c-5.46,0-9.31,1.43-11.55,4.29c-1.41,1.83-2.2,4.16-2.38,7l0,0h8.19c0.2-1.25,0.6-2.24,1.19-2.98
						c0.83-0.99,2.25-1.49,4.26-1.49c1.79,0,3.14,0.25,4.06,0.76c0.92,0.51,1.38,1.42,1.38,2.75c0,1.09-0.61,1.9-1.82,2.41
						c-0.68,0.3-1.8,0.55-3.37,0.74l0,0l-2.89,0.36c-3.28,0.42-5.76,1.11-7.44,2.08c-3.08,1.79-4.62,4.68-4.62,8.67
						c0,3.08,0.96,5.45,2.87,7.13C215.15,47.25,217.58,48.09,220.52,48.09z M223.02,41.93c-1.15,0-2.13-0.32-2.93-0.97
						c-0.8-0.65-1.21-1.69-1.21-3.14c0-1.63,0.66-2.83,1.97-3.6c0.77-0.46,2.05-0.84,3.84-1.16l0,0l1.91-0.36
						c0.95-0.18,1.7-0.37,2.25-0.58c0.55-0.21,1.09-0.48,1.62-0.82l0,0v3.16c-0.06,2.84-0.86,4.79-2.4,5.87
						C226.53,41.39,224.84,41.93,223.02,41.93z"/>
				</g>
				<g id="Unknown">
					
						<linearGradient id="Path_1_" gradientUnits="userSpaceOnUse" x1="203.6372" y1="546.1051" x2="205.4167" y2="546.1051" gradientTransform="matrix(2.000000e-15 40 8.1159 0 -4409.7983 -8144.9419)">
						<stop  offset="0" style="stop-color:#B97CFF"/>
						<stop  offset="1" style="stop-color:#FF6892"/>
					</linearGradient>
					<path id="Path" class="st80" d="M15.77,61.97c-0.44-0.43-0.69-1.01-0.69-1.62V2.84c0-2.03,2.5-3.06,3.99-1.64l9.86,9.43
						c0.45,0.43,0.71,1.02,0.71,1.64V70c0,2.04-2.53,3.07-4.01,1.62L15.77,61.97z"/>
					
						<linearGradient id="Path-Copy_1_" gradientUnits="userSpaceOnUse" x1="203.6372" y1="547.0831" x2="205.4167" y2="547.0831" gradientTransform="matrix(2.000000e-15 40 8.1159 0 -4399.7983 -8144.9414)">
						<stop  offset="0" style="stop-color:#B97CFF"/>
						<stop  offset="1" style="stop-color:#FF6892"/>
					</linearGradient>
					<path id="Path-Copy" class="st81" d="M33.71,61.97c-0.44-0.43-0.69-1.01-0.69-1.62V2.84c0-2.03,2.5-3.06,3.99-1.64l9.86,9.43
						c0.45,0.43,0.71,1.02,0.71,1.64V70c0,2.04-2.53,3.07-4.01,1.62L33.71,61.97z"/>
					
						<linearGradient id="Path-Copy-2_1_" gradientUnits="userSpaceOnUse" x1="203.6372" y1="548.0612" x2="205.4167" y2="548.0612" gradientTransform="matrix(2.000000e-15 40 8.1159 0 -4389.7983 -8144.9414)">
						<stop  offset="0" style="stop-color:#B97CFF"/>
						<stop  offset="1" style="stop-color:#FF6892"/>
					</linearGradient>
					<path id="Path-Copy-2" class="st82" d="M51.64,61.97c-0.44-0.43-0.69-1.01-0.69-1.62V2.84c0-2.03,2.5-3.06,3.99-1.64l9.86,9.43
						c0.45,0.43,0.71,1.02,0.71,1.64V70c0,2.04-2.53,3.07-4.01,1.62L51.64,61.97z"/>
				</g>
			</g>
		</g>
	</g>
</g>
</svg>
